{
.appVersion = "3214";
.formatVersion = 3;
DisplayStrings = (
"ÁÁ̆ĂÂÄÀ̄ĀĄĄÅÃÆǼBCĆČÇĈĊDĎĐÐEÉĔĚÊËĖÈĒEĘFGĞĜ̦ĢĠHĦĤIĲÍĬÎÏİÌĪIĮĨJĴKĶLĹĽĻĿŁMNŃŇŅÑŊOÓŎÔÖÒŐŌØǾÕŒPÞQRŔŘŖSŚŠŞŜȘẞTŦŤȚUÚŬÛÜÙŰŪŲŮŨVWẂŴẄẀXYÝŶŸỲZŹŽŻaáăâäàaāąåãæǽbcćčçĉċdďđðeéĕěêëėèēęfgğĝģġhħĥiıíĭîï/idotaccent ìīįĩĳjȷĵkķlĺľļŀłmnńŉňņñŋoóŏôöòőōøǿõœpþqrŕřŗsśšşŝșßtŧťțuúŭûüùűūųůũvwẃŵẅẁxyýŷÿỳzźžż"
);
axes = (
{
name = Weight;
tag = wght;
}
);
customParameters = (
{
name = fsType;
value = (
);
},
{
name = "Use Typo Metrics";
value = 1;
}
);
date = "2023-09-07 12:27:28 +0000";
familyName = "Pixelify Sans";
featurePrefixes = (
{
automatic = 1;
code = "languagesystem DFLT dflt;

languagesystem latn dflt;
languagesystem latn AZE;
languagesystem latn CRT;
languagesystem latn KAZ;
languagesystem latn TAT;
languagesystem latn TRK;
languagesystem latn ROM;
languagesystem latn MOL;
languagesystem latn CAT;
";
name = Languagesystems;
}
);
features = (
{
automatic = 1;
code = "feature locl;
feature subs;
feature sinf;
feature sups;
feature frac;
feature ordn;
feature case;
";
tag = aalt;
},
{
automatic = 1;
code = "lookup ccmp_latn_1 {
	sub fi by f i;
	sub fl by f l;
	sub Ldot by L periodcentered.loclCAT.case;
} ccmp_latn_1;

script latn;
lookup ccmp_latn_1;
";
tag = ccmp;
},
{
automatic = 1;
code = "script latn;
language AZE;
lookup locl_latn_0 {
	sub i by idotaccent;
} locl_latn_0;
language CRT;
lookup locl_latn_0;
language KAZ;
lookup locl_latn_0;
language TAT;
lookup locl_latn_0;
language TRK;
lookup locl_latn_0;

script latn;
language ROM;
lookup locl_latn_1 {
	sub Scedilla by Scommaaccent;
	sub scedilla by scommaaccent;
	sub Tcedilla by Tcommaaccent;
	sub tcedilla by tcommaaccent;
} locl_latn_1;
language MOL;
lookup locl_latn_1;

script latn;
language CAT;
lookup locl_latn_2 {
	sub l periodcentered' l by periodcentered.loclCAT;
	sub L periodcentered' L by periodcentered.loclCAT.case;
} locl_latn_2;
";
tag = locl;
},
{
automatic = 1;
code = "sub zero by zeroinferior;
sub one by oneinferior;
sub two by twoinferior;

glyphs = (
{
glyphname = A;
kernLeft = _A;
kernRight = _A1;
lastChange = "2023-09-07 12:53:59 +0000";
layers = (
{
anchors = (
{
name = bottom;
pos = (302,0);
},
{
name = ogonek;
pos = (483,-12);
},
{
name = top;
pos = (302,638);
}
);
background = {
anchors = (
{
name = bottom;
pos = (481,-12);
},
{
name = top;
pos = (302,638);
}
);
shapes = (
{
closed = 1;
nodes = (
(188,297,l),
(414,297,l),
(414,416,l),
(326,416,l),
(326,501,l),
(276,501,l),
(276,416,l),
(188,416,l)
);
},
{
closed = 1;
nodes = (
(61,-11,l),
(61,467,l),
(149,467,l),
(149,552,l),
(237,552,l),
(237,638,l),
(365,638,l),
(365,552,l),
(453,552,l),
(453,467,l),
(542,467,l),
(542,-11,l),
(414,-11,l),
(414,160,l),
(188,160,l),
(188,-11,l)
);
}
);
};
layerId = "FEF53B85-F0C1-4BB8-A611-3AA340A355BB";
shapes = (
{
closed = 1;
nodes = (
(188,-11,l),
(188,160,l),
(414,160,l),
(414,-11,l),
(542,-11,l),
(542,467,l),
(453,467,l),
(453,552,l),
(365,552,l),
(365,638,l),
(237,638,l),
(237,552,l),
(149,552,l),
(149,467,l),
(61,467,l),
(61,-11,l)
);
},
{
closed = 1;
nodes = (
(188,416,l),
(276,416,l),
(276,501,l),
(326,501,l),
(326,416,l),
(414,416,l),
(414,297,l),
(188,297,l)
);
}
);
width = 603;
},
{
associatedMasterId = "6CDB3465-C44F-49AC-BF84-14420C40CC8C";
layerId = "247CFECD-2598-4D35-A3A7-5961DFED04F8";
name = img;
width = 603;
},
{
associatedMasterId = "6CDB3465-C44F-49AC-BF84-14420C40CC8C";
layerId = "11B51D39-AE1D-4175-8A3F-83CE5513DED9";
name = "#instance";
shapes = (
{
closed = 1;
nodes = (
(188,297,l),
(414,297,l),
(414,416,l),
(326,416,l),
(326,501,l),
(276,501,l),
(276,416,l),
(188,416,l)
);
},
{
closed = 1;
nodes = (
(61,-11,l),
(61,467,l),
(149,467,l),
(149,552,l),
(237,552,l),
(237,638,l),
(365,638,l),
(365,552,l),
(453,552,l),
(453,467,l),
(542,467,l),
(542,-11,l),
(414,-11,l),
(414,160,l),
(188,160,l),
(188,-11,l)
);
}
);
width = 603;
},
{
anchors = (
{
name = bottom;
pos = (293,0);
},
{
name = ogonek;
pos = (475,-12);
},
{
name = top;
pos = (293,630);
}
);
background = {
anchors = (
{
name = bottom;
pos = (475,-12);
},
{
name = top;
pos = (293,631);
}
);
shapes = (
{
closed = 1;
nodes = (
(161,270,l),
(423,270,l),
(423,440,l),
(333,440,l),
(333,530,l),
(251,530,l),
(251,440,l),
(161,440,l)
);
},
{
closed = 1;
nodes = (
(60,-12,l),
(60,450,l),
(151,450,l),
(151,540,l),
(241,540,l),
(241,631,l),
(343,631,l),
(343,540,l),
(433,540,l),
(433,450,l),
(525,450,l),
(525,-12,l),
(423,-12,l),
(423,169,l),
(161,169,l),
(161,-12,l)
);
}
);
};
layerId = "6CDB3465-C44F-49AC-BF84-14420C40CC8C";
shapes = (
{
closed = 1;
nodes = (
(161,-12,l),
(161,169,l),
(423,169,l),
(423,-12,l),
(525,-12,l),
(525,450,l),
(433,450,l),
(433,540,l),
(343,540,l),
(343,631,l),
(241,631,l),
(241,540,l),
(151,540,l),
(151,450,l),
(60,450,l),
(60,-12,l)
);
},
{
closed = 1;
nodes = (
(161,440,l),
(251,440,l),
(251,530,l),
(333,530,l),
(333,440,l),
(423,440,l),
(423,270,l),
(161,270,l)
);
}
);
width = 586;
}
);
unicode = 65;
},
{
color = (153,255,154,255);
glyphname = Aacute;
kernLeft = _Aring;
kernRight = _Aring1;
lastChange = "2023-09-07 12:48:38 +0000";
layers = (
{
anchors = (
{
name = bottom;
pos = (481,-12);
}
);
background = {
anchors = (
{
name = bottom;
pos = (481,-12);
},
{
name = top;
pos = (302,638);
}
);
shapes = (
{
closed = 1;
nodes = (
(188,297,l),
(414,297,l),
(414,416,l),
(326,416,l),
(326,501,l),
(276,501,l),
(276,416,l),
(188,416,l)
);
},
{
closed = 1;
nodes = (
(61,-11,l),
(61,467,l),
(149,467,l),
(149,552,l),
(237,552,l),
(237,638,l),
(365,638,l),
(365,552,l),
(453,552,l),
(453,467,l),
(542,467,l),
(542,-11,l),
(414,-11,l),
(414,160,l),
(188,160,l),
(188,-11,l)
);
},
{
closed = 1;
nodes = (
(342,723,l),
(342,766,l),
(386,766,l),
(386,860,l),
(304,860,l),
(304,816,l),
(259,816,l),
(259,774,l),
(215,774,l),
(215,681,l),
(298,681,l),
(298,723,l)
);
}
);
};
layerId = "FEF53B85-F0C1-4BB8-A611-3AA340A355BB";
shapes = (
{
ref = A;
},
{
pos = (150,171);
ref = acutecomb;
}
);
width = 603;
},
{
anchors = (
{
name = bottom;
pos = (475,-12);
}
);
background = {
anchors = (
{
name = bottom;
pos = (475,-12);
},
{
name = top;
pos = (293,631);
}
);
shapes = (
{
closed = 1;
nodes = (
(161,270,l),
(423,270,l),
(423,440,l),
(333,440,l),
(333,530,l),
(251,530,l),
(251,440,l),
(161,440,l)
);
},
{
closed = 1;
nodes = (
(60,-12,l),
(60,450,l),
(151,450,l),
(151,540,l),
(241,540,l),
(241,631,l),
(343,631,l),
(343,540,l),
(433,540,l),
(433,450,l),
(525,450,l),
(525,-12,l),
(423,-12,l),
(423,169,l),
(161,169,l),
(161,-12,l)
);
},
{
closed = 1;
nodes = (
(306,748,l),
(306,794,l),
(351,794,l),
(351,849,l),
(296,849,l),
(296,803,l),
(250,803,l),
(250,758,l),
(205,758,l),
(205,704,l),
(260,704,l),
(260,748,l)
);
}
);
};
layerId = "6CDB3465-C44F-49AC-BF84-14420C40CC8C";
shapes = (
{
ref = A;
},
{
pos = (128,180);
ref = acutecomb;
}
);
width = 586;
}
);
unicode = 193;
},
{
color = (153,255,154,255);
glyphname = Abreve;
kernLeft = _Abreve;
kernRight = _Abreve;
lastChange = "2023-09-07 12:48:38 +0000";
layers = (
{
anchors = (
{
name = bottom;
pos = (481,-12);
}
);
background = {
anchors = (
{
name = bottom;
pos = (481,-12);
},
{
name = top;
pos = (302,638);
}
);
shapes = (
{
closed = 1;
nodes = (
(188,297,l),
(414,297,l),
(414,416,l),
(326,416,l),
(326,501,l),
(276,501,l),
(276,416,l),
(188,416,l)
);
},
{
closed = 1;
nodes = (
(61,-11,l),
(61,467,l),
(149,467,l),
(149,552,l),
(237,552,l),
(237,638,l),
(365,638,l),
(365,552,l),
(453,552,l),
(453,467,l),
(542,467,l),
(542,-11,l),
(414,-11,l),
(414,160,l),
(188,160,l),
(188,-11,l)
);
},
{
closed = 1;
nodes = (
(169,681,l),
(169,818,l),
(251,818,l),
(251,775,l),
(353,775,l),
(353,818,l),
(434,818,l),
(434,681,l)
);
}
);
};
layerId = "FEF53B85-F0C1-4BB8-A611-3AA340A355BB";
shapes = (
{
ref = A;
},
{
pos = (151,171);
ref = brevecomb;
}
);
width = 603;
},
{
anchors = (
{
name = bottom;
pos = (475,-12);
}
);
background = {
anchors = (
{
name = bottom;
pos = (475,-12);
},
{
name = top;
pos = (293,631);
}
);
shapes = (
{
closed = 1;
nodes = (
(161,270,l),
(423,270,l),
(423,440,l),
(333,440,l),
(333,530,l),
(251,530,l),
(251,440,l),
(161,440,l)
);
},
{
closed = 1;
nodes = (
(60,-12,l),
(60,450,l),
(151,450,l),
(151,540,l),
(241,540,l),
(241,631,l),
(343,631,l),
(343,540,l),
(433,540,l),
(433,450,l),
(525,450,l),
(525,-12,l),
(423,-12,l),
(423,169,l),
(161,169,l),
(161,-12,l)
);
},
{
closed = 1;
nodes = (
(169,704,l),
(169,805,l),
(224,805,l),
(224,759,l),
(358,759,l),
(358,805,l),
(412,805,l),
(412,704,l)
);
}
);
};
layerId = "6CDB3465-C44F-49AC-BF84-14420C40CC8C";
shapes = (
{
ref = A;
},
{
pos = (140,180);
ref = brevecomb;
}
);
width = 586;
}
);
unicode = 258;
},
{
color = (153,255,154,255);
glyphname = Acircumflex;
kernLeft = _Abreve;
kernRight = _Abreve;
lastChange = "2023-09-07 12:48:38 +0000";
layers = (
{
anchors = (
{
name = bottom;
pos = (481,-12);
}
);
background = {
anchors = (
{
name = bottom;
pos = (481,-12);
},
{
name = top;
pos = (302,638);
}
);
shapes = (
{
closed = 1;
nodes = (
(188,297,l),
(414,297,l),
(414,416,l),
(326,416,l),
(326,501,l),
(276,501,l),
(276,416,l),
(188,416,l)
);
},
{
closed = 1;
nodes = (
(61,-11,l),
(61,467,l),
(149,467,l),
(149,552,l),
(237,552,l),
(237,638,l),
(365,638,l),
(365,552,l),
(453,552,l),
(453,467,l),
(542,467,l),
(542,-11,l),
(414,-11,l),
(414,160,l),
(188,160,l),
(188,-11,l)
);
},
{
closed = 1;
nodes = (
(217,672,l),
(299,672,l),
(299,715,l),
(305,715,l),
(305,672,l),
(388,672,l),
(388,765,l),
(344,765,l),
(344,809,l),
(261,809,l),
(261,765,l),
(217,765,l)
);
}
);
};
layerId = "FEF53B85-F0C1-4BB8-A611-3AA340A355BB";
shapes = (
{
ref = A;
},
{
pos = (153,171);
ref = circumflexcomb;
}
);
width = 603;
},
{
anchors = (
{
name = bottom;
pos = (475,-12);
}
);
background = {
anchors = (
{
name = bottom;
pos = (475,-12);
},
{
name = top;
pos = (293,631);
}
);
shapes = (
{
closed = 1;
nodes = (
(161,270,l),
(423,270,l),
(423,440,l),
(333,440,l),
(333,530,l),
(251,530,l),
(251,440,l),
(161,440,l)
);
},
{
closed = 1;
nodes = (
(60,-12,l),
(60,450,l),
(151,450,l),
(151,540,l),
(241,540,l),
(241,631,l),
(343,631,l),
(343,540,l),
(433,540,l),
(433,450,l),
(525,450,l),
(525,-12,l),
(423,-12,l),
(423,169,l),
(161,169,l),
(161,-12,l)
);
},
{
closed = 1;
nodes = (
(220,694,l),
(275,694,l),
(275,740,l),
(311,740,l),
(311,694,l),
(366,694,l),
(366,749,l),
(321,749,l),
(321,795,l),
(265,795,l),
(265,749,l),
(220,749,l)
);
}
);
};
layerId = "6CDB3465-C44F-49AC-BF84-14420C40CC8C";
shapes = (
{
ref = A;
},
{
pos = (143,180);
ref = circumflexcomb;
}
);
width = 586;
}
);
unicode = 194;
},
{
color = (153,255,154,255);
glyphname = Adieresis;
lastChange = "2023-09-07 12:48:38 +0000";
layers = (
{
anchors = (
{
name = bottom;
pos = (481,-12);
}
);
background = {
anchors = (
{
name = bottom;
pos = (481,-12);
},
{
name = top;
pos = (302,638);
}
);
shapes = (
{
closed = 1;
nodes = (
(188,297,l),
(414,297,l),
(414,416,l),
(326,416,l),
(326,501,l),
(276,501,l),
(276,416,l),
(188,416,l)
);
},
{
closed = 1;
nodes = (
(61,-11,l),
(61,467,l),
(149,467,l),
(149,552,l),
(237,552,l),
(237,638,l),
(365,638,l),
(365,552,l),
(453,552,l),
(453,467,l),
(542,467,l),
(542,-11,l),
(414,-11,l),
(414,160,l),
(188,160,l),
(188,-11,l)
);
},
{
closed = 1;
nodes = (
(139,675,l),
(139,812,l),
(267,812,l),
(267,675,l)
);
},
{
closed = 1;
nodes = (
(346,675,l),
(346,812,l),
(473,812,l),
(473,675,l)
);
}
);
};
layerId = "FEF53B85-F0C1-4BB8-A611-3AA340A355BB";
shapes = (
{
ref = A;
},
{
pos = (156,171);
ref = dieresiscomb;
}
);
width = 603;
},
{
anchors = (
{
name = bottom;
pos = (475,-12);
}
);
background = {
anchors = (
{
name = bottom;
pos = (475,-12);
},
{
name = top;
pos = (293,631);
}
);
shapes = (
{
closed = 1;
nodes = (
(161,270,l),
(423,270,l),
(423,440,l),
(333,440,l),
(333,530,l),
(251,530,l),
(251,440,l),
(161,440,l)
);
},
{
closed = 1;
nodes = (
(60,-12,l),
(60,450,l),
(151,450,l),
(151,540,l),
(241,540,l),
(241,631,l),
(343,631,l),
(343,540,l),
(433,540,l),
(433,450,l),
(525,450,l),
(525,-12,l),
(423,-12,l),
(423,169,l),
(161,169,l),
(161,-12,l)
);
},
{
closed = 1;
nodes = (
(140,647,l),
(140,748,l),
(242,748,l),
(242,647,l)
);
},
{
closed = 1;
nodes = (
(353,647,l),
(353,748,l),
(454,748,l),
(454,647,l)
);
}
);
};
layerId = "6CDB3465-C44F-49AC-BF84-14420C40CC8C";
shapes = (
{
ref = A;
},
{
pos = (147,180);
ref = dieresiscomb;
}
);
width = 586;
}
);
unicode = 196;
},
{
color = (153,255,154,255);
glyphname = Agrave;
kernLeft = _Aring;
lastChange = "2023-09-07 12:42:42 +0000";
layers = (
{
anchors = (
{
name = bottom;
pos = (481,-12);
},
{
name = top;
pos = (259,860);
}
);
background = {
anchors = (
{
name = bottom;
pos = (481,-12);
},
{
name = top;
pos = (259,860);
}
);
shapes = (
{
closed = 1;
nodes = (
(188,297,l),
(414,297,l),
(414,416,l),
(326,416,l),
(326,501,l),
(276,501,l),
(276,416,l),
(188,416,l)
);
},
{
closed = 1;
nodes = (
(61,-11,l),
(61,467,l),
(149,467,l),
(149,552,l),
(237,552,l),
(237,638,l),
(365,638,l),
(365,552,l),
(453,552,l),
(453,467,l),
(542,467,l),
(542,-11,l),
(414,-11,l),
(414,160,l),
(188,160,l),
(188,-11,l)
);
},
{
closed = 1;
nodes = (
(217,723,l),
(261,723,l),
(261,681,l),
(344,681,l),
(344,774,l),
(300,774,l),
(300,816,l),
(255,816,l),
(255,860,l),
(173,860,l),
(173,766,l),
(217,766,l)
);
}
);
};
layerId = "FEF53B85-F0C1-4BB8-A611-3AA340A355BB";
shapes = (
{
ref = A;
},
{
pos = (113,171);
ref = gravecomb;
}
);
width = 603;
},
{
anchors = (
{
name = bottom;
pos = (475,-12);
},
{
name = top;
pos = (248,866);
}
);
background = {
anchors = (
{
name = bottom;
pos = (475,-12);
},
{
name = top;
pos = (248,866);
}
);
shapes = (
{
closed = 1;
nodes = (
(161,270,l),
(423,270,l),
(423,440,l),
(333,440,l),
(333,530,l),
(251,530,l),
(251,440,l),
(161,440,l)
);
},
{
closed = 1;
nodes = (
(60,-12,l),
(60,450,l),
(151,450,l),
(151,540,l),
(241,540,l),
(241,631,l),
(343,631,l),
(343,540,l),
(433,540,l),
(433,450,l),
(525,450,l),
(525,-12,l),
(423,-12,l),
(423,169,l),
(161,169,l),
(161,-12,l)
);
},
{
closed = 1;
nodes = (
(220,765,l),
(266,765,l),
(266,721,l),
(321,721,l),
(321,775,l),
(276,775,l),
(276,820,l),
(230,820,l),
(230,866,l),
(175,866,l),
(175,811,l),
(220,811,l)
);
}
);
};
layerId = "6CDB3465-C44F-49AC-BF84-14420C40CC8C";
shapes = (
{
ref = A;
},
{
pos = (115,180);
ref = gravecomb;
}
);
width = 586;
}
);
unicode = 192;
},
{
color = (153,255,154,255);
glyphname = Amacron;
kernLeft = _Atilde;
kernRight = _Atilde;
lastChange = "2023-09-07 12:48:38 +0000";
layers = (
{
anchors = (
{
name = bottom;
pos = (481,-12);
}
);
background = {
anchors = (
{
name = bottom;
pos = (481,-12);
},
{
name = top;
pos = (302,638);
}
);
shapes = (
{
closed = 1;
nodes = (
(188,297,l),
(414,297,l),
(414,416,l),
(326,416,l),
(326,501,l),
(276,501,l),
(276,416,l),
(188,416,l)
);
},
{
closed = 1;
nodes = (
(61,-11,l),
(61,467,l),
(149,467,l),
(149,552,l),
(237,552,l),
(237,638,l),
(365,638,l),
(365,552,l),
(453,552,l),
(453,467,l),
(542,467,l),
(542,-11,l),
(414,-11,l),
(414,160,l),
(188,160,l),
(188,-11,l)
);
},
{
closed = 1;
nodes = (
(148,755,l),
(148,892,l),
(452,892,l),
(452,755,l)
);
}
);
};
layerId = "FEF53B85-F0C1-4BB8-A611-3AA340A355BB";
shapes = (
{
ref = A;
},
{
pos = (150,171);
ref = macroncomb;
}
);
width = 603;
},
{
anchors = (
{
name = bottom;
pos = (475,-12);
}
);
background = {
anchors = (
{
name = bottom;
pos = (475,-12);
},
{
name = top;
pos = (293,631);
}
);
shapes = (
{
closed = 1;
nodes = (
(161,270,l),
(423,270,l),
(423,440,l),
(333,440,l),
(333,530,l),
(251,530,l),
(251,440,l),
(161,440,l)
);
},
{
closed = 1;
nodes = (
(60,-12,l),
(60,450,l),
(151,450,l),
(151,540,l),
(241,540,l),
(241,631,l),
(343,631,l),
(343,540,l),
(433,540,l),
(433,450,l),
(525,450,l),
(525,-12,l),
(423,-12,l),
(423,169,l),
(161,169,l),
(161,-12,l)
);
},
{
closed = 1;
nodes = (
(155,705,l),
(155,806,l),
(437,806,l),
(437,705,l)
);
}
);
};
layerId = "6CDB3465-C44F-49AC-BF84-14420C40CC8C";
shapes = (
{
ref = A;
},
{
pos = (146,180);
ref = macroncomb;
}
);
width = 586;
}
);
unicode = 256;
},
{
color = (153,255,154,255);
glyphname = Aogonek;
kernLeft = _A;
kernRight = _A1;
lastChange = "2023-09-07 12:53:59 +0000";
layers = (
{
anchors = (
{
name = top;
pos = (302,638);
}
);
background = {
anchors = (
{
name = bottom;
pos = (481,-12);
},
{
name = top;
pos = (302,638);
}
);
shapes = (
{
closed = 1;
nodes = (
(188,297,l),
(414,297,l),
(414,416,l),
(326,416,l),
(326,501,l),
(276,501,l),
(276,416,l),
(188,416,l)
);
},
{
closed = 1;
nodes = (
(61,-11,l),
(61,467,l),
(149,467,l),
(149,552,l),
(237,552,l),
(237,638,l),
(365,638,l),
(365,552,l),
(453,552,l),
(453,467,l),
(542,467,l),
(542,-11,l),
(414,-11,l),
(414,160,l),
(188,160,l),
(188,-11,l)
);
},
{
closed = 1;
nodes = (
(368,-158,l),
(412,-158,l),
(412,-201,l),
(583,-201,l),
(583,-158,l),
(627,-158,l),
(627,-65,l),
(545,-65,l),
(545,-107,l),
(495,-107,l),
(495,-90,l),
(495,-90,l),
(495,-73,l),
(539,-73,l),
(539,27,l),
(412,27,l),
(412,-44,l),
(412,-44,l),
(412,-65,l),
(368,-65,l)
);
}
);
};
layerId = "FEF53B85-F0C1-4BB8-A611-3AA340A355BB";
shapes = (
{
ref = A;
},
{
pos = (350,-12);
ref = ogonekcomb;
}
);
width = 603;
},
{
anchors = (
{
name = top;
pos = (293,631);
}
);
background = {
anchors = (
{
name = bottom;
pos = (475,-12);
},
{
name = top;
pos = (293,631);
}
);
shapes = (
{
closed = 1;
nodes = (
(161,270,l),
(423,270,l),
(423,440,l),
(333,440,l),
(333,530,l),
(251,530,l),
(251,440,l),
(161,440,l)
);
},
{
closed = 1;
nodes = (
(60,-12,l),
(60,450,l),
(151,450,l),
(151,540,l),
(241,540,l),
(241,631,l),
(343,631,l),
(343,540,l),
(433,540,l),
(433,450,l),
(525,450,l),
(525,-12,l),
(423,-12,l),
(423,169,l),
(161,169,l),
(161,-12,l)
);
},
{
closed = 1;
nodes = (
(358,-167,l),
(404,-167,l),
(404,-212,l),
(550,-212,l),
(550,-167,l),
(595,-167,l),
(595,-112,l),
(540,-112,l),
(540,-157,l),
(414,-157,l),
(414,-122,l),
(459,-122,l),
(459,-77,l),
(504,-77,l),
(504,26,l),
(449,26,l),
(449,-67,l),
(404,-67,l),
(404,-112,l),
(358,-112,l)
);
}
);
};
layerId = "6CDB3465-C44F-49AC-BF84-14420C40CC8C";
shapes = (
{
ref = A;
},
{
pos = (327,-12);
ref = ogonekcomb;
}
);
width = 586;
}
);
unicode = 260;
},
{
color = (153,255,154,255);
glyphname = Aring;
kernLeft = _Aring;
kernRight = _Aring1;
lastChange = "2023-09-07 12:48:38 +0000";
layers = (
{
anchors = (
{
name = bottom;
pos = (481,-12);
}
);
background = {
anchors = (
{
name = bottom;
pos = (481,-12);
},
{
name = top;
pos = (302,638);
}
);
shapes = (
{
closed = 1;
nodes = (
(188,297,l),
(414,297,l),
(414,416,l),
(326,416,l),
(326,501,l),
(276,501,l),
(276,416,l),
(188,416,l)
);
},
{
closed = 1;
nodes = (
(61,-11,l),
(61,467,l),
(149,467,l),
(149,552,l),
(237,552,l),
(237,638,l),
(365,638,l),
(365,552,l),
(453,552,l),
(453,467,l),
(542,467,l),
(542,-11,l),
(414,-11,l),
(414,160,l),
(188,160,l),
(188,-11,l)
);
},
{
closed = 1;
nodes = (
(239,682,l),
(239,819,l),
(364,819,l),
(364,682,l)
);
},
{
closed = 1;
nodes = (
(272,715,l),
(331,715,l),
(331,786,l),
(272,786,l)
);
}
);
};
layerId = "FEF53B85-F0C1-4BB8-A611-3AA340A355BB";
shapes = (
{
ref = A;
},
{
pos = (151,171);
ref = ringcomb;
}
);
width = 603;
},
{
anchors = (
{
name = bottom;
pos = (475,-12);
}
);
background = {
anchors = (
{
name = bottom;
pos = (475,-12);
},
{
name = top;
pos = (293,631);
}
);
shapes = (
{
closed = 1;
nodes = (
(161,270,l),
(423,270,l),
(423,440,l),
(333,440,l),
(333,530,l),
(251,530,l),
(251,440,l),
(161,440,l)
);
},
{
closed = 1;
nodes = (
(60,-12,l),
(60,450,l),
(151,450,l),
(151,540,l),
(241,540,l),
(241,631,l),
(343,631,l),
(343,540,l),
(433,540,l),
(433,450,l),
(525,450,l),
(525,-12,l),
(423,-12,l),
(423,169,l),
(161,169,l),
(161,-12,l)
);
},
{
closed = 1;
nodes = (
(241,705,l),
(241,806,l),
(342,806,l),
(342,705,l)
);
},
{
closed = 1;
nodes = (
(274,738,l),
(309,738,l),
(309,773,l),
(274,773,l)
);
}
);
};
layerId = "6CDB3465-C44F-49AC-BF84-14420C40CC8C";
shapes = (
{
ref = A;
},
{
pos = (141,180);
ref = ringcomb;
}
);
width = 586;
}
);
unicode = 197;
},
{
color = (153,255,154,255);
glyphname = Atilde;
kernLeft = _Atilde;
kernRight = _Atilde;
lastChange = "2023-09-07 12:48:38 +0000";
layers = (
{
anchors = (
{
name = bottom;
pos = (481,-12);
}
);
background = {
anchors = (
{
name = bottom;
pos = (481,-12);
},
{
name = top;
pos = (302,638);
}
);
shapes = (
{
closed = 1;
nodes = (
(188,297,l),
(414,297,l),
(414,416,l),
(326,416,l),
(326,501,l),
(276,501,l),
(276,416,l),
(188,416,l)
);
},
{
closed = 1;
nodes = (
(61,-11,l),
(61,467,l),
(149,467,l),
(149,552,l),
(237,552,l),
(237,638,l),
(365,638,l),
(365,552,l),
(453,552,l),
(453,467,l),
(542,467,l),
(542,-11,l),
(414,-11,l),
(414,160,l),
(188,160,l),
(188,-11,l)
);
},
{
closed = 1;
nodes = (
(165,668,l),
(249,668,l),
(249,713,l),
(256,713,l),
(256,668,l),
(434,668,l),
(434,807,l),
(349,807,l),
(349,764,l),
(342,764,l),
(342,807,l),
(165,807,l)
);
}
);
};
layerId = "FEF53B85-F0C1-4BB8-A611-3AA340A355BB";
shapes = (
{
ref = A;
},
{
pos = (150,171);
ref = tildecomb;
}
);
width = 603;
},
{
anchors = (
{
name = bottom;
pos = (475,-12);
}
);
background = {
anchors = (
{
name = bottom;
pos = (475,-12);
},
{
name = top;
pos = (293,631);
}
);
shapes = (
{
closed = 1;
nodes = (
(161,270,l),
(423,270,l),
(423,440,l),
(333,440,l),
(333,530,l),
(251,530,l),
(251,440,l),
(161,440,l)
);
},
{
closed = 1;
nodes = (
(60,-12,l),
(60,450,l),
(151,450,l),
(151,540,l),
(241,540,l),
(241,631,l),
(343,631,l),
(343,540,l),
(433,540,l),
(433,450,l),
(525,450,l),
(525,-12,l),
(423,-12,l),
(423,169,l),
(161,169,l),
(161,-12,l)
);
},
{
closed = 1;
nodes = (
(162,692,l),
(219,692,l),
(219,739,l),
(256,739,l),
(256,692,l),
(409,692,l),
(409,795,l),
(351,795,l),
(351,749,l),
(314,749,l),
(314,795,l),
(162,795,l)
);
}
);
};
layerId = "6CDB3465-C44F-49AC-BF84-14420C40CC8C";
shapes = (
{
ref = A;
},
{
pos = (135,180);
ref = tildecomb;
}
);
width = 586;
}
);
unicode = 195;
},
{
glyphname = AE;
kernLeft = _A;
kernRight = _E;
lastChange = "2023-09-07 12:43:12 +0000";
layers = (
{
anchors = (
{
name = bottom;
pos = (478,0);
},
{
name = top;
pos = (490,610);
}
);
background = {
shapes = (
{
closed = 1;
nodes = (
(188,297,l),
(414,297,l),
(414,416,l),
(326,416,l),
(326,501,l),
(276,501,l),
(276,416,l),
(188,416,l)
);
},
{
closed = 1;
nodes = (
(61,-11,l),
(61,467,l),
(149,467,l),
(149,552,l),
(237,552,l),
(237,638,l),
(365,638,l),
(365,552,l),
(503,552,l),
(503,638,l),
(807,638,l),
(807,552,l),
(895,552,l),
(895,416,l),
(768,416,l),
(768,501,l),
(542,501,l),
(542,381,l),
(718,381,l),
(718,246,l),
(542,246,l),
(542,125,l),
(768,125,l),
(768,211,l),
(895,211,l),
(895,74,l),
(807,74,l),
(807,-11,l),
(414,-11,l),
(414,160,l),
(188,160,l),
(188,-11,l)
);
}
);
};
layerId = "FEF53B85-F0C1-4BB8-A611-3AA340A355BB";
shapes = (
{
closed = 1;
nodes = (
(188,-11,l),
(188,160,l),
(414,160,l),
(414,-11,l),
(807,-11,l),
(807,74,l),
(895,74,l),
(895,211,l),
(768,211,l),
(768,125,l),
(542,125,l),
(542,246,l),
(718,246,l),
(718,381,l),
(542,381,l),
(542,501,l),
(768,501,l),
(768,416,l),
(895,416,l),
(895,552,l),
(807,552,l),
(807,638,l),
(503,638,l),
(503,552,l),
(365,552,l),
(365,638,l),
(237,638,l),
(237,552,l),
(149,552,l),
(149,467,l),
(61,467,l),
(61,-11,l)
);
},
{
closed = 1;
nodes = (
(188,416,l),
(276,416,l),
(276,501,l),
(326,501,l),
(326,416,l),
(414,416,l),
(414,297,l),
(188,297,l)
);
}
);
width = 956;
},
{
associatedMasterId = "6CDB3465-C44F-49AC-BF84-14420C40CC8C";
layerId = "247CFECD-2598-4D35-A3A7-5961DFED04F8";
name = img;
width = 956;
},
{
anchors = (
{
name = bottom;
pos = (475,0);
},
{
name = top;
pos = (500,618);
}
);
background = {
shapes = (
{
closed = 1;
nodes = (
(161,270,l),
(423,270,l),
(423,440,l),
(333,440,l),
(333,530,l),
(251,530,l),
(251,440,l),
(161,440,l)
);
},
{
closed = 1;
nodes = (
(60,-12,l),
(60,450,l),
(151,450,l),
(151,540,l),
(241,540,l),
(241,631,l),
(343,631,l),
(343,540,l),
(515,540,l),
(515,631,l),
(797,631,l),
(797,540,l),
(888,540,l),
(888,440,l),
(787,440,l),
(787,530,l),
(525,530,l),
(525,359,l),
(706,359,l),
(706,260,l),
(525,260,l),
(525,88,l),
(787,88,l),
(787,179,l),
(888,179,l),
(888,78,l),
(797,78,l),
(797,-12,l),
(423,-12,l),
(423,169,l),
(161,169,l),
(161,-12,l)
);
}
);
};
layerId = "6CDB3465-C44F-49AC-BF84-14420C40CC8C";
shapes = (
{
closed = 1;
nodes = (
(161,-12,l),
(161,169,l),
(423,169,l),
(423,-12,l),
(797,-12,l),
(797,78,l),
(888,78,l),
(888,179,l),
(787,179,l),
(787,88,l),
(525,88,l),
(525,260,l),
(706,260,l),
(706,359,l),
(525,359,l),
(525,530,l),
(787,530,l),
(787,440,l),
(888,440,l),
(888,540,l),
(797,540,l),
(797,631,l),
(515,631,l),
(515,540,l),
(343,540,l),
(343,631,l),
(241,631,l),
(241,540,l),
(151,540,l),
(151,450,l),
(60,450,l),
(60,-12,l)
);
},
{
closed = 1;
nodes = (
(161,440,l),
(251,440,l),
(251,530,l),
(333,530,l),
(333,440,l),
(423,440,l),
(423,270,l),
(161,270,l)
);
}
);
width = 949;
}
);
unicode = 198;
},
{
glyphname = AEacute;
lastChange = "2023-09-07 12:48:38 +0000";
layers = (
{
background = {
shapes = (
{
closed = 1;
nodes = (
(188,297,l),
(414,297,l),
(414,416,l),
(326,416,l),
(326,501,l),
(276,501,l),
(276,416,l),
(188,416,l)
);
},
{
closed = 1;
nodes = (
(61,-11,l),
(61,467,l),
(149,467,l),
(149,552,l),
(237,552,l),
(237,638,l),
(365,638,l),
(365,552,l),
(503,552,l),
(503,638,l),
(807,638,l),
(807,552,l),
(895,552,l),
(895,416,l),
(768,416,l),
(768,501,l),
(542,501,l),
(542,381,l),
(718,381,l),
(718,246,l),
(542,246,l),
(542,125,l),
(768,125,l),
(768,211,l),
(895,211,l),
(895,74,l),
(807,74,l),
(807,-11,l),
(414,-11,l),
(414,160,l),
(188,160,l),
(188,-11,l)
);
},
{
closed = 1;
nodes = (
(403,653,l),
(403,747,l),
(447,747,l),
(447,790,l),
(491,790,l),
(491,833,l),
(572,833,l),
(572,739,l),
(529,739,l),
(529,696,l),
(486,696,l),
(486,653,l)
);
}
);
};
layerId = "FEF53B85-F0C1-4BB8-A611-3AA340A355BB";
shapes = (
{
ref = AE;
},
{
pos = (338,143);
ref = acutecomb;
}
);
width = 956;
},
{
associatedMasterId = "6CDB3465-C44F-49AC-BF84-14420C40CC8C";
layerId = "247CFECD-2598-4D35-A3A7-5961DFED04F8";
name = img;
width = 956;
},
{
background = {
shapes = (
{
closed = 1;
nodes = (
(161,270,l),
(423,270,l),
(423,440,l),
(333,440,l),
(333,530,l),
(251,530,l),
(251,440,l),
(161,440,l)
);
},
{
closed = 1;
nodes = (
(60,-12,l),
(60,450,l),
(151,450,l),
(151,540,l),
(241,540,l),
(241,631,l),
(343,631,l),
(343,540,l),
(515,540,l),
(515,631,l),
(797,631,l),
(797,540,l),
(888,540,l),
(888,440,l),
(787,440,l),
(787,530,l),
(525,530,l),
(525,359,l),
(706,359,l),
(706,260,l),
(525,260,l),
(525,88,l),
(787,88,l),
(787,179,l),
(888,179,l),
(888,78,l),
(797,78,l),
(797,-12,l),
(423,-12,l),
(423,169,l),
(161,169,l),
(161,-12,l)
);
},
{
closed = 1;
nodes = (
(412,691,l),
(412,746,l),
(457,746,l),
(457,792,l),
(502,792,l),
(502,837,l),
(556,837,l),
(556,782,l),
(512,782,l),
(512,737,l),
(467,737,l),
(467,691,l)
);
}
);
};
layerId = "6CDB3465-C44F-49AC-BF84-14420C40CC8C";
shapes = (
{
ref = AE;
},
{
pos = (335,168);
ref = acutecomb;
}
);
width = 949;
}
);
unicode = 508;
},
{
glyphname = B;
kernLeft = _B;
kernRight = _B1;
lastChange = "2023-09-07 12:43:29 +0000";
layers = (
{
anchors = (
{
name = bottom;
pos = (302,0);
},
{
name = center;
pos = (302,350);
},
{
name = top;
pos = (302,638);
}
);
background = {
shapes = (
{
closed = 1;
nodes = (
(61,74,l),
(149,74,l),
(149,-11,l),
(453,-11,l),
(453,74,l),
(542,74,l),
(542,297,l),
(453,297,l),
(453,331,l),
(542,331,l),
(542,552,l),
(453,552,l),
(453,638,l),
(149,638,l),
(149,552,l),
(61,552,l)
);
},
{
closed = 1;
nodes = (
(188,125,l),
(188,501,l),
(414,501,l),
(414,381,l),
(237,381,l),
(237,246,l),
(414,246,l),
(414,125,l)
);
}
);
};
layerId = "FEF53B85-F0C1-4BB8-A611-3AA340A355BB";
shapes = (
{
closed = 1;
nodes = (
(453,-11,l),
(453,74,l),
(542,74,l),
(542,297,l),
(453,297,l),
(453,331,l),
(542,331,l),
(542,552,l),
(453,552,l),
(453,638,l),
(149,638,l),
(149,552,l),
(61,552,l),
(61,74,l),
(149,74,l),
(149,-11,l)
);
},
{
closed = 1;
nodes = (
(188,501,l),
(414,501,l),
(414,381,l),
(237,381,l),
(237,246,l),
(414,246,l),
(414,125,l),
(188,125,l)
);
}
);
width = 603;
},
{
associatedMasterId = "6CDB3465-C44F-49AC-BF84-14420C40CC8C";
layerId = "247CFECD-2598-4D35-A3A7-5961DFED04F8";
name = img;
width = 603;
},
{
anchors = (
{
name = bottom;
pos = (293,0);
},
{
name = center;
pos = (293,350);
},
{
name = top;
pos = (293,631);
}
);
background = {
shapes = (
{
closed = 1;
nodes = (
(60,78,l),
(151,78,l),
(151,-12,l),
(433,-12,l),
(433,78,l),
(525,78,l),
(525,270,l),
(433,270,l),
(433,350,l),
(525,350,l),
(525,540,l),
(433,540,l),
(433,631,l),
(151,631,l),
(151,540,l),
(60,540,l)
);
},
{
closed = 1;
nodes = (
(161,88,l),
(161,530,l),
(423,530,l),
(423,359,l),
(241,359,l),
(241,260,l),
(423,260,l),
(423,88,l)
);
}
);
};
layerId = "6CDB3465-C44F-49AC-BF84-14420C40CC8C";
shapes = (
{
closed = 1;
nodes = (
(433,-12,l),
(433,78,l),
(525,78,l),
(525,270,l),
(433,270,l),
(433,350,l),
(525,350,l),
(525,540,l),
(433,540,l),
(433,631,l),
(151,631,l),
(151,540,l),
(60,540,l),
(60,78,l),
(151,78,l),
(151,-12,l)
);
},
{
closed = 1;
nodes = (
(161,530,l),
(423,530,l),
(423,359,l),
(241,359,l),
(241,260,l),
(423,260,l),
(423,88,l),
(161,88,l)
);
}
);
width = 586;
}
);
unicode = 66;
},
{
glyphname = C;
kernLeft = _B;
kernRight = _C;
lastChange = "2023-09-07 12:43:43 +0000";
layers = (
{
anchors = (
{
name = bottom;
pos = (302,0);
},
{
name = top;
pos = (300,638);
}
);
background = {
anchors = (
{
name = bottom;
pos = (300,-12);
},
{
name = top;
pos = (300,638);
}
);
shapes = (
{
closed = 1;
nodes = (
(61,74,l),
(149,74,l),
(149,-11,l),
(453,-11,l),
(453,74,l),
(542,74,l),
(542,297,l),
(414,297,l),
(414,125,l),
(188,125,l),
(188,501,l),
(414,501,l),
(414,331,l),
(542,331,l),
(542,552,l),
(453,552,l),
(453,638,l),
(149,638,l),
(149,552,l),
(61,552,l)
);
}
);
};
layerId = "FEF53B85-F0C1-4BB8-A611-3AA340A355BB";
shapes = (
{
closed = 1;
nodes = (
(453,-11,l),
(453,74,l),
(542,74,l),
(542,297,l),
(414,297,l),
(414,125,l),
(188,125,l),
(188,501,l),
(414,501,l),
(414,331,l),
(542,331,l),
(542,552,l),
(453,552,l),
(453,638,l),
(149,638,l),
(149,552,l),
(61,552,l),
(61,74,l),
(149,74,l),
(149,-11,l)
);
}
);
width = 603;
},
{
associatedMasterId = "6CDB3465-C44F-49AC-BF84-14420C40CC8C";
layerId = "247CFECD-2598-4D35-A3A7-5961DFED04F8";
name = img;
width = 603;
},
{
anchors = (
{
name = bottom;
pos = (293,0);
},
{
name = top;
pos = (293,631);
}
);
background = {
anchors = (
{
name = bottom;
pos = (292,0);
},
{
name = top;
pos = (293,631);
}
);
shapes = (
{
closed = 1;
nodes = (
(60,78,l),
(151,78,l),
(151,-12,l),
(433,-12,l),
(433,78,l),
(525,78,l),
(525,270,l),
(423,270,l),
(423,88,l),
(161,88,l),
(161,530,l),
(423,530,l),
(423,350,l),
(525,350,l),
(525,540,l),
(433,540,l),
(433,631,l),
(151,631,l),
(151,540,l),
(60,540,l)
);
}
);
};
layerId = "6CDB3465-C44F-49AC-BF84-14420C40CC8C";
shapes = (
{
closed = 1;
nodes = (
(433,-12,l),
(433,78,l),
(525,78,l),
(525,270,l),
(423,270,l),
(423,88,l),
(161,88,l),
(161,530,l),
(423,530,l),
(423,350,l),
(525,350,l),
(525,540,l),
(433,540,l),
(433,631,l),
(151,631,l),
(151,540,l),
(60,540,l),
(60,78,l),
(151,78,l),
(151,-12,l)
);
}
);
width = 586;
}
);
unicode = 67;
},
{
color = (153,255,154,255);
glyphname = Cacute;
kernLeft = _Cacute;
kernRight = _Cacute1;
lastChange = "2023-09-07 12:48:38 +0000";
layers = (
{
anchors = (
{
name = bottom;
pos = (300,-12);
}
);
background = {
anchors = (
{
name = bottom;
pos = (300,-12);
},
{
name = top;
pos = (300,638);
}
);
shapes = (
{
closed = 1;
nodes = (
(61,74,l),
(149,74,l),
(149,-11,l),
(453,-11,l),
(453,74,l),
(542,74,l),
(542,297,l),
(414,297,l),
(414,125,l),
(188,125,l),
(188,501,l),
(414,501,l),
(414,331,l),
(542,331,l),
(542,552,l),
(453,552,l),
(453,638,l),
(149,638,l),
(149,552,l),
(61,552,l)
);
},
{
closed = 1;
nodes = (
(340,723,l),
(340,766,l),
(384,766,l),
(384,860,l),
(302,860,l),
(302,816,l),
(257,816,l),
(257,774,l),
(213,774,l),
(213,681,l),
(296,681,l),
(296,723,l)
);
}
);
};
layerId = "FEF53B85-F0C1-4BB8-A611-3AA340A355BB";
shapes = (
{
ref = C;
},
{
pos = (148,171);
ref = acutecomb;
}
);
width = 603;
},
{
anchors = (
{
name = bottom;
pos = (292,0);
}
);
background = {
anchors = (
{
name = bottom;
pos = (292,0);
},
{
name = top;
pos = (293,631);
}
);
shapes = (
{
closed = 1;
nodes = (
(60,78,l),
(151,78,l),
(151,-12,l),
(433,-12,l),
(433,78,l),
(525,78,l),
(525,270,l),
(423,270,l),
(423,88,l),
(161,88,l),
(161,530,l),
(423,530,l),
(423,350,l),
(525,350,l),
(525,540,l),
(433,540,l),
(433,631,l),
(151,631,l),
(151,540,l),
(60,540,l)
);
},
{
closed = 1;
nodes = (
(306,748,l),
(306,794,l),
(351,794,l),
(351,849,l),
(296,849,l),
(296,803,l),
(250,803,l),
(250,758,l),
(205,758,l),
(205,704,l),
(260,704,l),
(260,748,l)
);
}
);
};
layerId = "6CDB3465-C44F-49AC-BF84-14420C40CC8C";
shapes = (
{
ref = C;
},
{
pos = (128,181);
ref = acutecomb;
}
);
width = 586;
}
);
unicode = 262;
},
{
color = (153,255,154,255);
glyphname = Ccaron;
kernLeft = _Cacute;
kernRight = _Cacute1;
lastChange = "2023-09-07 12:48:38 +0000";
layers = (
{
anchors = (
{
name = bottom;
pos = (300,-12);
}
);
background = {
anchors = (
{
name = bottom;
pos = (300,-12);
},
{
name = top;
pos = (300,638);
}
);
shapes = (
{
closed = 1;
nodes = (
(61,74,l),
(149,74,l),
(149,-11,l),
(453,-11,l),
(453,74,l),
(542,74,l),
(542,297,l),
(414,297,l),
(414,125,l),
(188,125,l),
(188,501,l),
(414,501,l),
(414,331,l),
(542,331,l),
(542,552,l),
(453,552,l),
(453,638,l),
(149,638,l),
(149,552,l),
(61,552,l)
);
},
{
closed = 1;
nodes = (
(215,809,l),
(297,809,l),
(297,766,l),
(303,766,l),
(303,809,l),
(386,809,l),
(386,716,l),
(342,716,l),
(342,672,l),
(259,672,l),
(259,716,l),
(215,716,l)
);
}
);
};
layerId = "FEF53B85-F0C1-4BB8-A611-3AA340A355BB";
shapes = (
{
ref = C;
},
{
pos = (151,171);
ref = caroncomb;
}
);
width = 603;
},
{
anchors = (
{
name = bottom;
pos = (292,0);
}
);
background = {
anchors = (
{
name = bottom;
pos = (292,0);
},
{
name = top;
pos = (293,631);
}
);
shapes = (
{
closed = 1;
nodes = (
(60,78,l),
(151,78,l),
(151,-12,l),
(433,-12,l),
(433,78,l),
(525,78,l),
(525,270,l),
(423,270,l),
(423,88,l),
(161,88,l),
(161,530,l),
(423,530,l),
(423,350,l),
(525,350,l),
(525,540,l),
(433,540,l),
(433,631,l),
(151,631,l),
(151,540,l),
(60,540,l)
);
},
{
closed = 1;
nodes = (
(220,795,l),
(275,795,l),
(275,749,l),
(311,749,l),
(311,795,l),
(366,795,l),
(366,740,l),
(321,740,l),
(321,694,l),
(265,694,l),
(265,740,l),
(220,740,l)
);
}
);
};
layerId = "6CDB3465-C44F-49AC-BF84-14420C40CC8C";
shapes = (
{
ref = C;
},
{
pos = (143,181);
ref = caroncomb;
}
);
width = 586;
}
);
unicode = 268;
},
{
color = (153,255,154,255);
glyphname = Ccedilla;
kernLeft = _B;
kernRight = _C;
lastChange = "2023-09-07 12:38:57 +0000";
layers = (
{
anchors = (
{
name = top;
pos = (300,638);
}
);
background = {
anchors = (
{
name = bottom;
pos = (300,-12);
},
{
name = top;
pos = (300,638);
}
);
shapes = (
{
closed = 1;
nodes = (
(61,74,l),
(149,74,l),
(149,-11,l),
(453,-11,l),
(453,74,l),
(542,74,l),
(542,297,l),
(414,297,l),
(414,125,l),
(188,125,l),
(188,501,l),
(414,501,l),
(414,331,l),
(542,331,l),
(542,552,l),
(453,552,l),
(453,638,l),
(149,638,l),
(149,552,l),
(61,552,l)
);
},
{
closed = 1;
nodes = (
(149,-158,l),
(193,-158,l),
(193,-201,l),
(364,-201,l),
(364,-158,l),
(408,-158,l),
(408,-121,l),
(408,-102,l),
(408,-65,l),
(364,-65,l),
(364,9,l),
(237,9,l),
(237,-73,l),
(281,-73,l),
(281,-90,l),
(281,-90,l),
(281,-107,l),
(232,-107,l),
(232,-65,l),
(149,-65,l)
);
}
);
};
layerId = "FEF53B85-F0C1-4BB8-A611-3AA340A355BB";
shapes = (
{
ref = C;
},
{
pos = (131,0);
ref = cedillacomb;
}
);
width = 603;
},
{
anchors = (
{
name = top;
pos = (293,631);
}
);
background = {
anchors = (
{
name = bottom;
pos = (292,0);
},
{
name = top;
pos = (293,631);
}
);
shapes = (
{
closed = 1;
nodes = (
(60,78,l),
(151,78,l),
(151,-12,l),
(433,-12,l),
(433,78,l),
(525,78,l),
(525,270,l),
(423,270,l),
(423,88,l),
(161,88,l),
(161,530,l),
(423,530,l),
(423,350,l),
(525,350,l),
(525,540,l),
(433,540,l),
(433,631,l),
(151,631,l),
(151,540,l),
(60,540,l)
);
},
{
closed = 1;
nodes = (
(174,-155,l),
(220,-155,l),
(220,-200,l),
(366,-200,l),
(366,-155,l),
(411,-155,l),
(411,-100,l),
(366,-100,l),
(366,-55,l),
(320,-55,l),
(320,37,l),
(265,37,l),
(265,-65,l),
(310,-65,l),
(310,-110,l),
(356,-110,l),
(356,-145,l),
(230,-145,l),
(230,-100,l),
(174,-100,l)
);
}
);
};
layerId = "6CDB3465-C44F-49AC-BF84-14420C40CC8C";
shapes = (
{
ref = C;
},
{
pos = (144,0);
ref = cedillacomb;
}
);
width = 586;
}
);
unicode = 199;
},
{
color = (153,255,154,255);
glyphname = Ccircumflex;
kernLeft = _Ebreve;
lastChange = "2023-09-07 12:48:38 +0000";
layers = (
{
anchors = (
{
name = bottom;
pos = (300,-12);
}
);
background = {
anchors = (
{
name = bottom;
pos = (300,-12);
},
{
name = top;
pos = (300,638);
}
);
shapes = (
{
closed = 1;
nodes = (
(61,74,l),
(149,74,l),
(149,-11,l),
(453,-11,l),
(453,74,l),
(542,74,l),
(542,297,l),
(414,297,l),
(414,125,l),
(188,125,l),
(188,501,l),
(414,501,l),
(414,331,l),
(542,331,l),
(542,552,l),
(453,552,l),
(453,638,l),
(149,638,l),
(149,552,l),
(61,552,l)
);
},
{
closed = 1;
nodes = (
(215,672,l),
(297,672,l),
(297,715,l),
(303,715,l),
(303,672,l),
(386,672,l),
(386,765,l),
(342,765,l),
(342,809,l),
(259,809,l),
(259,765,l),
(215,765,l)
);
}
);
};
layerId = "FEF53B85-F0C1-4BB8-A611-3AA340A355BB";
shapes = (
{
ref = C;
},
{
pos = (151,171);
ref = circumflexcomb;
}
);
width = 603;
},
{
anchors = (
{
name = bottom;
pos = (292,0);
}
);
background = {
anchors = (
{
name = bottom;
pos = (292,0);
},
{
name = top;
pos = (293,631);
}
);
shapes = (
{
closed = 1;
nodes = (
(60,78,l),
(151,78,l),
(151,-12,l),
(433,-12,l),
(433,78,l),
(525,78,l),
(525,270,l),
(423,270,l),
(423,88,l),
(161,88,l),
(161,530,l),
(423,530,l),
(423,350,l),
(525,350,l),
(525,540,l),
(433,540,l),
(433,631,l),
(151,631,l),
(151,540,l),
(60,540,l)
);
},
{
closed = 1;
nodes = (
(220,694,l),
(275,694,l),
(275,740,l),
(311,740,l),
(311,694,l),
(366,694,l),
(366,749,l),
(321,749,l),
(321,795,l),
(265,795,l),
(265,749,l),
(220,749,l)
);
}
);
};
layerId = "6CDB3465-C44F-49AC-BF84-14420C40CC8C";
shapes = (
{
ref = C;
},
{
pos = (143,181);
ref = circumflexcomb;
}
);
width = 586;
}
);
unicode = 264;
},
{
color = (153,255,154,255);
glyphname = Cdotaccent;
kernLeft = _Cacute;
kernRight = _Cacute1;
lastChange = "2023-09-07 12:48:38 +0000";
layers = (
{
anchors = (
{
name = bottom;
pos = (300,-12);
}
);
background = {
anchors = (
{
name = bottom;
pos = (300,-12);
},
{
name = top;
pos = (300,638);
}
);
shapes = (
{
closed = 1;
nodes = (
(61,74,l),
(149,74,l),
(149,-11,l),
(453,-11,l),
(453,74,l),
(542,74,l),
(542,297,l),
(414,297,l),
(414,125,l),
(188,125,l),
(188,501,l),
(414,501,l),
(414,331,l),
(542,331,l),
(542,552,l),
(453,552,l),
(453,638,l),
(149,638,l),
(149,552,l),
(61,552,l)
);
},
{
closed = 1;
nodes = (
(237,682,l),
(237,819,l),
(365,819,l),
(365,682,l)
);
}
);
};
layerId = "FEF53B85-F0C1-4BB8-A611-3AA340A355BB";
shapes = (
{
ref = C;
},
{
pos = (151,171);
ref = dotaccentcomb;
}
);
width = 603;
},
{
anchors = (
{
name = bottom;
pos = (292,0);
}
);
background = {
anchors = (
{
name = bottom;
pos = (292,0);
},
{
name = top;
pos = (293,631);
}
);
shapes = (
{
closed = 1;
nodes = (
(60,78,l),
(151,78,l),
(151,-12,l),
(433,-12,l),
(433,78,l),
(525,78,l),
(525,270,l),
(423,270,l),
(423,88,l),
(161,88,l),
(161,530,l),
(423,530,l),
(423,350,l),
(525,350,l),
(525,540,l),
(433,540,l),
(433,631,l),
(151,631,l),
(151,540,l),
(60,540,l)
);
},
{
closed = 1;
nodes = (
(242,705,l),
(242,806,l),
(344,806,l),
(344,705,l)
);
}
);
};
layerId = "6CDB3465-C44F-49AC-BF84-14420C40CC8C";
shapes = (
{
ref = C;
},
{
pos = (143,181);
ref = dotaccentcomb;
}
);
width = 586;
}
);
unicode = 266;
},
{
glyphname = D;
kernLeft = _D;
kernRight = _D1;
lastChange = "2023-09-07 12:44:11 +0000";
layers = (
{
anchors = (
{
name = bottom;
pos = (302,0);
},
{
name = center;
pos = (302,350);
},
{
name = top;
pos = (249,638);
}
);
background = {
anchors = (
{
name = bottom;
pos = (249,-11);
},
{
name = top;
pos = (249,638);
}
);
shapes = (
{
closed = 1;
nodes = (
(61,-11,l),
(365,-11,l),
(365,74,l),
(453,74,l),
(453,160,l),
(542,160,l),
(542,467,l),
(453,467,l),
(453,552,l),
(365,552,l),
(365,638,l),
(61,638,l)
);
},
{
closed = 1;
nodes = (
(188,125,l),
(188,501,l),
(326,501,l),
(326,416,l),
(414,416,l),
(414,211,l),
(326,211,l),
(326,125,l)
);
}
);
};
layerId = "FEF53B85-F0C1-4BB8-A611-3AA340A355BB";
shapes = (
{
closed = 1;
nodes = (
(365,-11,l),
(365,74,l),
(453,74,l),
(453,160,l),
(542,160,l),
(542,467,l),
(453,467,l),
(453,552,l),
(365,552,l),
(365,638,l),
(61,638,l),
(61,-11,l)
);
},
{
closed = 1;
nodes = (
(188,501,l),
(326,501,l),
(326,416,l),
(414,416,l),
(414,211,l),
(326,211,l),
(326,125,l),
(188,125,l)
);
}
);
width = 603;
},
{
associatedMasterId = "6CDB3465-C44F-49AC-BF84-14420C40CC8C";
layerId = "247CFECD-2598-4D35-A3A7-5961DFED04F8";
name = img;
width = 603;
},
{
anchors = (
{
name = bottom;
pos = (293,0);
},
{
name = center;
pos = (293,350);
},
{
name = top;
pos = (250,631);
}
);
background = {
anchors = (
{
name = bottom;
pos = (249,-12);
},
{
name = top;
pos = (250,631);
}
);
shapes = (
{
closed = 1;
nodes = (
(60,-12,l),
(343,-12,l),
(343,78,l),
(433,78,l),
(433,169,l),
(525,169,l),
(525,450,l),
(433,450,l),
(433,540,l),
(343,540,l),
(343,631,l),
(60,631,l)
);
},
{
closed = 1;
nodes = (
(161,88,l),
(161,530,l),
(333,530,l),
(333,440,l),
(423,440,l),
(423,179,l),
(333,179,l),
(333,88,l)
);
}
);
};
layerId = "6CDB3465-C44F-49AC-BF84-14420C40CC8C";
shapes = (
{
closed = 1;
nodes = (
(343,-12,l),
(343,78,l),
(433,78,l),
(433,169,l),
(525,169,l),
(525,450,l),
(433,450,l),
(433,540,l),
(343,540,l),
(343,631,l),
(60,631,l),
(60,-12,l)
);
},
{
closed = 1;
nodes = (
(161,530,l),
(333,530,l),
(333,440,l),
(423,440,l),
(423,179,l),
(333,179,l),
(333,88,l),
(161,88,l)
);
}
);
width = 586;
}
);
unicode = 68;
},
{
color = (153,255,154,255);
glyphname = Dcaron;
kernLeft = _Dcaron;
lastChange = "2023-09-07 12:48:38 +0000";
layers = (
{
anchors = (
{
name = bottom;
pos = (249,-11);
}
);
background = {
anchors = (
{
name = bottom;
pos = (249,-11);
},
{
name = top;
pos = (249,638);
}
);
shapes = (
{
closed = 1;
nodes = (
(61,-11,l),
(365,-11,l),
(365,74,l),
(453,74,l),
(453,160,l),
(542,160,l),
(542,467,l),
(453,467,l),
(453,552,l),
(365,552,l),
(365,638,l),
(61,638,l)
);
},
{
closed = 1;
nodes = (
(188,125,l),
(188,501,l),
(326,501,l),
(326,416,l),
(414,416,l),
(414,211,l),
(326,211,l),
(326,125,l)
);
},
{
closed = 1;
nodes = (
(164,809,l),
(246,809,l),
(246,766,l),
(252,766,l),
(252,809,l),
(335,809,l),
(335,716,l),
(291,716,l),
(291,672,l),
(208,672,l),
(208,716,l),
(164,716,l)
);
}
);
};
layerId = "FEF53B85-F0C1-4BB8-A611-3AA340A355BB";
shapes = (
{
ref = D;
},
{
pos = (100,171);
ref = caroncomb;
}
);
width = 603;
},
{
anchors = (
{
name = bottom;
pos = (249,-12);
}
);
background = {
anchors = (
{
name = bottom;
pos = (249,-12);
},
{
name = top;
pos = (250,631);
}
);
shapes = (
{
closed = 1;
nodes = (
(60,-12,l),
(343,-12,l),
(343,78,l),
(433,78,l),
(433,169,l),
(525,169,l),
(525,450,l),
(433,450,l),
(433,540,l),
(343,540,l),
(343,631,l),
(60,631,l)
);
},
{
closed = 1;
nodes = (
(161,88,l),
(161,530,l),
(333,530,l),
(333,440,l),
(423,440,l),
(423,179,l),
(333,179,l),
(333,88,l)
);
},
{
closed = 1;
nodes = (
(177,795,l),
(232,795,l),
(232,749,l),
(268,749,l),
(268,795,l),
(323,795,l),
(323,740,l),
(278,740,l),
(278,694,l),
(222,694,l),
(222,740,l),
(177,740,l)
);
}
);
};
layerId = "6CDB3465-C44F-49AC-BF84-14420C40CC8C";
shapes = (
{
ref = D;
},
{
pos = (100,181);
ref = caroncomb;
}
);
width = 586;
}
);
unicode = 270;
},
{
glyphname = Dcroat;
kernLeft = _D;
kernRight = _D1;
lastChange = "2023-09-07 12:38:57 +0000";
layers = (
{
background = {
shapes = (
{
closed = 1;
nodes = (
(60,-11,l),
(364,-11,l),
(364,74,l),
(452,74,l),
(452,160,l),
(541,160,l),
(541,467,l),
(452,467,l),
(452,552,l),
(364,552,l),
(364,638,l),
(60,638,l),
(60,365,l),
(23,365,l),
(23,228,l),
(60,228,l)
);
},
{
closed = 1;
nodes = (
(187,125,l),
(187,228,l),
(325,228,l),
(325,365,l),
(187,365,l),
(187,501,l),
(325,501,l),
(325,416,l),
(413,416,l),
(413,211,l),
(325,211,l),
(325,125,l)
);
}
);
};
layerId = "FEF53B85-F0C1-4BB8-A611-3AA340A355BB";
shapes = (
{
ref = Eth;
}
);
width = 603;
},
{
associatedMasterId = "6CDB3465-C44F-49AC-BF84-14420C40CC8C";
layerId = "247CFECD-2598-4D35-A3A7-5961DFED04F8";
name = img;
width = 603;
},
{
background = {
shapes = (
{
closed = 1;
nodes = (
(60,-12,l),
(343,-12,l),
(343,78,l),
(433,78,l),
(433,169,l),
(525,169,l),
(525,450,l),
(433,450,l),
(433,540,l),
(343,540,l),
(343,631,l),
(60,631,l),
(60,342,l),
(22,342,l),
(22,241,l),
(60,241,l)
);
},
{
closed = 1;
nodes = (
(161,88,l),
(161,241,l),
(314,241,l),
(314,342,l),
(161,342,l),
(161,530,l),
(333,530,l),
(333,440,l),
(423,440,l),
(423,179,l),
(333,179,l),
(333,88,l)
);
}
);
};
layerId = "6CDB3465-C44F-49AC-BF84-14420C40CC8C";
shapes = (
{
ref = Eth;
}
);
width = 586;
}
);
unicode = 272;
},
{
glyphname = Eth;
kernLeft = _D;
kernRight = _D1;
lastChange = "2023-09-07 12:44:25 +0000";
layers = (
{
background = {
shapes = (
{
closed = 1;
nodes = (
(60,-11,l),
(364,-11,l),
(364,74,l),
(452,74,l),
(452,160,l),
(541,160,l),
(541,467,l),
(452,467,l),
(452,552,l),
(364,552,l),
(364,638,l),
(60,638,l),
(60,365,l),
(23,365,l),
(23,228,l),
(60,228,l)
);
},
{
closed = 1;
nodes = (
(187,125,l),
(187,228,l),
(278,228,l),
(278,365,l),
(187,365,l),
(187,501,l),
(325,501,l),
(325,416,l),
(413,416,l),
(413,211,l),
(325,211,l),
(325,125,l)
);
}
);
};
layerId = "FEF53B85-F0C1-4BB8-A611-3AA340A355BB";
shapes = (
{
closed = 1;
nodes = (
(364,-11,l),
(364,74,l),
(452,74,l),
(452,160,l),
(541,160,l),
(541,467,l),
(452,467,l),
(452,552,l),
(364,552,l),
(364,638,l),
(60,638,l),
(60,365,l),
(23,365,l),
(23,228,l),
(60,228,l),
(60,-11,l)
);
},
{
closed = 1;
nodes = (
(187,228,l),
(288,228,l),
(288,365,l),
(187,365,l),
(187,501,l),
(325,501,l),
(325,416,l),
(413,416,l),
(413,211,l),
(325,211,l),
(325,125,l),
(187,125,l)
);
}
);
width = 603;
},
{
associatedMasterId = "6CDB3465-C44F-49AC-BF84-14420C40CC8C";
layerId = "247CFECD-2598-4D35-A3A7-5961DFED04F8";
name = img;
width = 603;
},
{
background = {
shapes = (
{
closed = 1;
nodes = (
(60,-12,l),
(343,-12,l),
(343,78,l),
(433,78,l),
(433,169,l),
(525,169,l),
(525,450,l),
(433,450,l),
(433,540,l),
(343,540,l),
(343,631,l),
(60,631,l),
(60,342,l),
(22,342,l),
(22,241,l),
(60,241,l)
);
},
{
closed = 1;
nodes = (
(161,88,l),
(161,241,l),
(254,241,l),
(254,342,l),
(161,342,l),
(161,530,l),
(333,530,l),
(333,440,l),
(423,440,l),
(423,179,l),
(333,179,l),
(333,88,l)
);
}
);
};
layerId = "6CDB3465-C44F-49AC-BF84-14420C40CC8C";
shapes = (
{
closed = 1;
nodes = (
(343,-12,l),
(343,78,l),
(433,78,l),
(433,169,l),
(525,169,l),
(525,450,l),
(433,450,l),
(433,540,l),
(343,540,l),
(343,631,l),
(60,631,l),
(60,342,l),
(22,342,l),
(22,241,l),
(60,241,l),
(60,-12,l)
);
},
{
closed = 1;
nodes = (
(161,241,l),
(254,241,l),
(254,342,l),
(161,342,l),
(161,530,l),
(333,530,l),
(333,440,l),
(423,440,l),
(423,179,l),
(333,179,l),
(333,88,l),
(161,88,l)
);
}
);
width = 586;
}
);
unicode = 208;
},
{
glyphname = E;
kernLeft = _B;
kernRight = _E;
lastChange = "2023-09-07 12:56:22 +0000";
layers = (
{
anchors = (
{
name = bottom;
pos = (302,0);
},
{
name = ogonek;
pos = (292,-12);
},
{
name = top;
pos = (298,638);
},
{
name = topleft;
pos = (20,700);
}
);
background = {
anchors = (
{
name = bottom;
pos = (292,-12);
},
{
name = top;
pos = (298,638);
}
);
shapes = (
{
closed = 1;
nodes = (
(61,74,l),
(149,74,l),
(149,-11,l),
(453,-11,l),
(453,74,l),
(542,74,l),
(542,211,l),
(414,211,l),
(414,125,l),
(188,125,l),
(188,246,l),
(365,246,l),
(365,381,l),
(188,381,l),
(188,501,l),
(414,501,l),
(414,416,l),
(542,416,l),
(542,552,l),
(453,552,l),
(453,638,l),
(149,638,l),
(149,552,l),
(61,552,l)
);
}
);
};
layerId = "FEF53B85-F0C1-4BB8-A611-3AA340A355BB";
shapes = (
{
closed = 1;
nodes = (
(453,-11,l),
(453,74,l),
(542,74,l),
(542,211,l),
(414,211,l),
(414,125,l),
(188,125,l),
(188,246,l),
(365,246,l),
(365,381,l),
(188,381,l),
(188,501,l),
(414,501,l),
(414,416,l),
(542,416,l),
(542,552,l),
(453,552,l),
(453,638,l),
(149,638,l),
(149,552,l),
(61,552,l),
(61,74,l),
(149,74,l),
(149,-11,l)
);
}
);
width = 603;
},
{
associatedMasterId = "6CDB3465-C44F-49AC-BF84-14420C40CC8C";
layerId = "247CFECD-2598-4D35-A3A7-5961DFED04F8";
name = img;
width = 603;
},
{
anchors = (
{
name = bottom;
pos = (293,0);
},
{
name = ogonek;
pos = (292,-12);
},
{
name = top;
pos = (293,631);
},
{
name = topleft;
pos = (20,700);
}
);
background = {
anchors = (
{
name = bottom;
pos = (292,-12);
},
{
name = top;
pos = (293,619);
}
);
shapes = (
{
closed = 1;
nodes = (
(60,78,l),
(151,78,l),
(151,-12,l),
(433,-12,l),
(433,78,l),
(525,78,l),
(525,179,l),
(423,179,l),
(423,88,l),
(161,88,l),
(161,260,l),
(343,260,l),
(343,359,l),
(161,359,l),
(161,530,l),
(423,530,l),
(423,440,l),
(525,440,l),
(525,540,l),
(433,540,l),
(433,631,l),
(151,631,l),
(151,540,l),
(60,540,l)
);
}
);
};
layerId = "6CDB3465-C44F-49AC-BF84-14420C40CC8C";
shapes = (
{
closed = 1;
nodes = (
(433,-12,l),
(433,78,l),
(525,78,l),
(525,179,l),
(423,179,l),
(423,88,l),
(161,88,l),
(161,260,l),
(343,260,l),
(343,359,l),
(161,359,l),
(161,530,l),
(423,530,l),
(423,440,l),
(525,440,l),
(525,540,l),
(433,540,l),
(433,631,l),
(151,631,l),
(151,540,l),
(60,540,l),
(60,78,l),
(151,78,l),
(151,-12,l)
);
}
);
width = 586;
}
);
unicode = 69;
},
{
color = (153,255,154,255);
glyphname = Eacute;
kernLeft = _Cacute;
kernRight = _Eacute;
lastChange = "2023-09-07 12:48:38 +0000";
layers = (
{
anchors = (
{
name = bottom;
pos = (292,-12);
}
);
background = {
anchors = (
{
name = bottom;
pos = (292,-12);
},
{
name = top;
pos = (298,638);
}
);
shapes = (
{
closed = 1;
nodes = (
(61,74,l),
(149,74,l),
(149,-11,l),
(453,-11,l),
(453,74,l),
(542,74,l),
(542,211,l),
(414,211,l),
(414,125,l),
(188,125,l),
(188,246,l),
(365,246,l),
(365,381,l),
(188,381,l),
(188,501,l),
(414,501,l),
(414,416,l),
(542,416,l),
(542,552,l),
(453,552,l),
(453,638,l),
(149,638,l),
(149,552,l),
(61,552,l)
);
},
{
closed = 1;
nodes = (
(338,723,l),
(338,766,l),
(382,766,l),
(382,860,l),
(300,860,l),
(300,816,l),
(255,816,l),
(255,774,l),
(211,774,l),
(211,681,l),
(294,681,l),
(294,723,l)
);
}
);
};
layerId = "FEF53B85-F0C1-4BB8-A611-3AA340A355BB";
shapes = (
{
ref = E;
},
{
pos = (146,171);
ref = acutecomb;
}
);
width = 603;
},
{
anchors = (
{
name = bottom;
pos = (292,-12);
}
);
background = {
anchors = (
{
name = bottom;
pos = (292,-12);
},
{
name = top;
pos = (293,619);
}
);
shapes = (
{
closed = 1;
nodes = (
(60,78,l),
(151,78,l),
(151,-12,l),
(433,-12,l),
(433,78,l),
(525,78,l),
(525,179,l),
(423,179,l),
(423,88,l),
(161,88,l),
(161,260,l),
(343,260,l),
(343,359,l),
(161,359,l),
(161,530,l),
(423,530,l),
(423,440,l),
(525,440,l),
(525,540,l),
(433,540,l),
(433,631,l),
(151,631,l),
(151,540,l),
(60,540,l)
);
},
{
closed = 1;
nodes = (
(306,736,l),
(306,782,l),
(351,782,l),
(351,837,l),
(296,837,l),
(296,791,l),
(250,791,l),
(250,746,l),
(205,746,l),
(205,692,l),
(260,692,l),
(260,736,l)
);
}
);
};
layerId = "6CDB3465-C44F-49AC-BF84-14420C40CC8C";
shapes = (
{
ref = E;
},
{
pos = (128,181);
ref = acutecomb;
}
);
width = 586;
}
);
unicode = 201;
},
{
color = (153,255,154,255);
glyphname = Ebreve;
kernLeft = _Ebreve;
kernRight = _Ebreve1;
lastChange = "2023-09-07 12:48:38 +0000";
layers = (
{
anchors = (
{
name = bottom;
pos = (292,-12);
}
);
background = {
anchors = (
{
name = bottom;
pos = (292,-12);
},
{
name = top;
pos = (298,638);
}
);
shapes = (
{
closed = 1;
nodes = (
(61,74,l),
(149,74,l),
(149,-11,l),
(453,-11,l),
(453,74,l),
(542,74,l),
(542,211,l),
(414,211,l),
(414,125,l),
(188,125,l),
(188,246,l),
(365,246,l),
(365,381,l),
(188,381,l),
(188,501,l),
(414,501,l),
(414,416,l),
(542,416,l),
(542,552,l),
(453,552,l),
(453,638,l),
(149,638,l),
(149,552,l),
(61,552,l)
);
},
{
closed = 1;
nodes = (
(165,681,l),
(165,818,l),
(247,818,l),
(247,775,l),
(349,775,l),
(349,818,l),
(430,818,l),
(430,681,l)
);
}
);
};
layerId = "FEF53B85-F0C1-4BB8-A611-3AA340A355BB";
shapes = (
{
ref = E;
},
{
pos = (147,171);
ref = brevecomb;
}
);
width = 603;
},
{
anchors = (
{
name = bottom;
pos = (292,-12);
}
);
background = {
anchors = (
{
name = bottom;
pos = (292,-12);
},
{
name = top;
pos = (293,619);
}
);
shapes = (
{
closed = 1;
nodes = (
(60,78,l),
(151,78,l),
(151,-12,l),
(433,-12,l),
(433,78,l),
(525,78,l),
(525,179,l),
(423,179,l),
(423,88,l),
(161,88,l),
(161,260,l),
(343,260,l),
(343,359,l),
(161,359,l),
(161,530,l),
(423,530,l),
(423,440,l),
(525,440,l),
(525,540,l),
(433,540,l),
(433,631,l),
(151,631,l),
(151,540,l),
(60,540,l)
);
},
{
closed = 1;
nodes = (
(169,692,l),
(169,793,l),
(224,793,l),
(224,747,l),
(358,747,l),
(358,793,l),
(412,793,l),
(412,692,l)
);
}
);
};
layerId = "6CDB3465-C44F-49AC-BF84-14420C40CC8C";
shapes = (
{
ref = E;
},
{
pos = (140,181);
ref = brevecomb;
}
);
width = 586;
}
);
unicode = 276;
},
{
color = (153,255,154,255);
glyphname = Ecaron;
kernLeft = _Cacute;
kernRight = _Eacute;
lastChange = "2023-09-07 12:48:38 +0000";
layers = (
{
anchors = (
{
name = bottom;
pos = (292,-12);
}
);
background = {
anchors = (
{
name = bottom;
pos = (292,-12);
},
{
name = top;
pos = (298,638);
}
);
shapes = (
{
closed = 1;
nodes = (
(61,74,l),
(149,74,l),
(149,-11,l),
(453,-11,l),
(453,74,l),
(542,74,l),
(542,211,l),
(414,211,l),
(414,125,l),
(188,125,l),
(188,246,l),
(365,246,l),
(365,381,l),
(188,381,l),
(188,501,l),
(414,501,l),
(414,416,l),
(542,416,l),
(542,552,l),
(453,552,l),
(453,638,l),
(149,638,l),
(149,552,l),
(61,552,l)
);
},
{
closed = 1;
nodes = (
(213,809,l),
(295,809,l),
(295,766,l),
(301,766,l),
(301,809,l),
(384,809,l),
(384,716,l),
(340,716,l),
(340,672,l),
(257,672,l),
(257,716,l),
(213,716,l)
);
}
);
};
layerId = "FEF53B85-F0C1-4BB8-A611-3AA340A355BB";
shapes = (
{
ref = E;
},
{
pos = (149,171);
ref = caroncomb;
}
);
width = 603;
},
{
anchors = (
{
name = bottom;
pos = (292,-12);
}
);
background = {
anchors = (
{
name = bottom;
pos = (292,-12);
},
{
name = top;
pos = (293,619);
}
);
shapes = (
{
closed = 1;
nodes = (
(60,78,l),
(151,78,l),
(151,-12,l),
(433,-12,l),
(433,78,l),
(525,78,l),
(525,179,l),
(423,179,l),
(423,88,l),
(161,88,l),
(161,260,l),
(343,260,l),
(343,359,l),
(161,359,l),
(161,530,l),
(423,530,l),
(423,440,l),
(525,440,l),
(525,540,l),
(433,540,l),
(433,631,l),
(151,631,l),
(151,540,l),
(60,540,l)
);
},
{
closed = 1;
nodes = (
(220,783,l),
(275,783,l),
(275,737,l),
(311,737,l),
(311,783,l),
(366,783,l),
(366,728,l),
(321,728,l),
(321,682,l),
(265,682,l),
(265,728,l),
(220,728,l)
);
}
);
};
layerId = "6CDB3465-C44F-49AC-BF84-14420C40CC8C";
shapes = (
{
ref = E;
},
{
pos = (143,181);
ref = caroncomb;
}
);
width = 586;
}
);
unicode = 282;
},
{
color = (153,255,154,255);
glyphname = Ecircumflex;
kernLeft = _Ebreve;
kernRight = _Ebreve1;
lastChange = "2023-09-07 12:48:38 +0000";
layers = (
{
anchors = (
{
name = bottom;
pos = (292,-12);
}
);
background = {
anchors = (
{
name = bottom;
pos = (292,-12);
},
{
name = top;
pos = (298,638);
}
);
shapes = (
{
closed = 1;
nodes = (
(61,74,l),
(149,74,l),
(149,-11,l),
(453,-11,l),
(453,74,l),
(542,74,l),
(542,211,l),
(414,211,l),
(414,125,l),
(188,125,l),
(188,246,l),
(365,246,l),
(365,381,l),
(188,381,l),
(188,501,l),
(414,501,l),
(414,416,l),
(542,416,l),
(542,552,l),
(453,552,l),
(453,638,l),
(149,638,l),
(149,552,l),
(61,552,l)
);
},
{
closed = 1;
nodes = (
(213,672,l),
(295,672,l),
(295,715,l),
(301,715,l),
(301,672,l),
(384,672,l),
(384,765,l),
(340,765,l),
(340,809,l),
(257,809,l),
(257,765,l),
(213,765,l)
);
}
);
};
layerId = "FEF53B85-F0C1-4BB8-A611-3AA340A355BB";
shapes = (
{
ref = E;
},
{
pos = (149,171);
ref = circumflexcomb;
}
);
width = 603;
},
{
anchors = (
{
name = bottom;
pos = (292,-12);
}
);
background = {
anchors = (
{
name = bottom;
pos = (292,-12);
},
{
name = top;
pos = (293,619);
}
);
shapes = (
{
closed = 1;
nodes = (
(60,78,l),
(151,78,l),
(151,-12,l),
(433,-12,l),
(433,78,l),
(525,78,l),
(525,179,l),
(423,179,l),
(423,88,l),
(161,88,l),
(161,260,l),
(343,260,l),
(343,359,l),
(161,359,l),
(161,530,l),
(423,530,l),
(423,440,l),
(525,440,l),
(525,540,l),
(433,540,l),
(433,631,l),
(151,631,l),
(151,540,l),
(60,540,l)
);
},
{
closed = 1;
nodes = (
(220,682,l),
(275,682,l),
(275,728,l),
(311,728,l),
(311,682,l),
(366,682,l),
(366,737,l),
(321,737,l),
(321,783,l),
(265,783,l),
(265,737,l),
(220,737,l)
);
}
);
};
layerId = "6CDB3465-C44F-49AC-BF84-14420C40CC8C";
shapes = (
{
ref = E;
},
{
pos = (143,181);
ref = circumflexcomb;
}
);
width = 586;
}
);
unicode = 202;
},
{
color = (153,255,154,255);
glyphname = Edieresis;
kernLeft = _Edieresis;
lastChange = "2023-09-07 12:48:38 +0000";
layers = (
{
anchors = (
{
name = bottom;
pos = (292,-12);
}
);
background = {
anchors = (
{
name = bottom;
pos = (292,-12);
},
{
name = top;
pos = (298,638);
}
);
shapes = (
{
closed = 1;
nodes = (
(61,74,l),
(149,74,l),
(149,-11,l),
(453,-11,l),
(453,74,l),
(542,74,l),
(542,211,l),
(414,211,l),
(414,125,l),
(188,125,l),
(188,246,l),
(365,246,l),
(365,381,l),
(188,381,l),
(188,501,l),
(414,501,l),
(414,416,l),
(542,416,l),
(542,552,l),
(453,552,l),
(453,638,l),
(149,638,l),
(149,552,l),
(61,552,l)
);
},
{
closed = 1;
nodes = (
(135,675,l),
(135,812,l),
(263,812,l),
(263,675,l)
);
},
{
closed = 1;
nodes = (
(342,675,l),
(342,812,l),
(469,812,l),
(469,675,l)
);
}
);
};
layerId = "FEF53B85-F0C1-4BB8-A611-3AA340A355BB";
shapes = (
{
ref = E;
},
{
pos = (152,171);
ref = dieresiscomb;
}
);
width = 603;
},
{
anchors = (
{
name = bottom;
pos = (292,-12);
}
);
background = {
anchors = (
{
name = bottom;
pos = (292,-12);
},
{
name = top;
pos = (293,619);
}
);
shapes = (
{
closed = 1;
nodes = (
(60,78,l),
(151,78,l),
(151,-12,l),
(433,-12,l),
(433,78,l),
(525,78,l),
(525,179,l),
(423,179,l),
(423,88,l),
(161,88,l),
(161,260,l),
(343,260,l),
(343,359,l),
(161,359,l),
(161,530,l),
(423,530,l),
(423,440,l),
(525,440,l),
(525,540,l),
(433,540,l),
(433,631,l),
(151,631,l),
(151,540,l),
(60,540,l)
);
},
{
closed = 1;
nodes = (
(140,635,l),
(140,736,l),
(242,736,l),
(242,635,l)
);
},
{
closed = 1;
nodes = (
(353,635,l),
(353,736,l),
(454,736,l),
(454,635,l)
);
}
);
};
layerId = "6CDB3465-C44F-49AC-BF84-14420C40CC8C";
shapes = (
{
ref = E;
},
{
pos = (147,181);
ref = dieresiscomb;
}
);
width = 586;
}
);
unicode = 203;
},
{
color = (153,255,154,255);
glyphname = Edotaccent;
kernLeft = _Cacute;
kernRight = _Eacute;
lastChange = "2023-09-07 12:48:38 +0000";
layers = (
{
anchors = (
{
name = bottom;
pos = (292,-12);
}
);
background = {
anchors = (
{
name = bottom;
pos = (292,-12);
},
{
name = top;
pos = (298,638);
}
);
shapes = (
{
closed = 1;
nodes = (
(61,74,l),
(149,74,l),
(149,-11,l),
(453,-11,l),
(453,74,l),
(542,74,l),
(542,211,l),
(414,211,l),
(414,125,l),
(188,125,l),
(188,246,l),
(365,246,l),
(365,381,l),
(188,381,l),
(188,501,l),
(414,501,l),
(414,416,l),
(542,416,l),
(542,552,l),
(453,552,l),
(453,638,l),
(149,638,l),
(149,552,l),
(61,552,l)
);
},
{
closed = 1;
nodes = (
(235,682,l),
(235,819,l),
(363,819,l),
(363,682,l)
);
}
);
};
layerId = "FEF53B85-F0C1-4BB8-A611-3AA340A355BB";
shapes = (
{
ref = E;
},
{
pos = (149,171);
ref = dotaccentcomb;
}
);
width = 603;
},
{
anchors = (
{
name = bottom;
pos = (292,-12);
}
);
background = {
anchors = (
{
name = bottom;
pos = (292,-12);
},
{
name = top;
pos = (293,619);
}
);
shapes = (
{
closed = 1;
nodes = (
(60,78,l),
(151,78,l),
(151,-12,l),
(433,-12,l),
(433,78,l),
(525,78,l),
(525,179,l),
(423,179,l),
(423,88,l),
(161,88,l),
(161,260,l),
(343,260,l),
(343,359,l),
(161,359,l),
(161,530,l),
(423,530,l),
(423,440,l),
(525,440,l),
(525,540,l),
(433,540,l),
(433,631,l),
(151,631,l),
(151,540,l),
(60,540,l)
);
},
{
closed = 1;
nodes = (
(242,693,l),
(242,794,l),
(344,794,l),
(344,693,l)
);
}
);
};
layerId = "6CDB3465-C44F-49AC-BF84-14420C40CC8C";
shapes = (
{
ref = E;
},
{
pos = (143,181);
ref = dotaccentcomb;
}
);
width = 586;
}
);
unicode = 278;
},
{
color = (153,255,154,255);
glyphname = Egrave;
kernLeft = _Cacute;
lastChange = "2023-09-07 12:44:46 +0000";
layers = (
{
anchors = (
{
name = bottom;
pos = (292,-12);
},
{
name = top;
pos = (255,860);
}
);
background = {
anchors = (
{
name = bottom;
pos = (292,-12);
},
{
name = top;
pos = (255,860);
}
);
shapes = (
{
closed = 1;
nodes = (
(61,74,l),
(149,74,l),
(149,-11,l),
(453,-11,l),
(453,74,l),
(542,74,l),
(542,211,l),
(414,211,l),
(414,125,l),
(188,125,l),
(188,246,l),
(365,246,l),
(365,381,l),
(188,381,l),
(188,501,l),
(414,501,l),
(414,416,l),
(542,416,l),
(542,552,l),
(453,552,l),
(453,638,l),
(149,638,l),
(149,552,l),
(61,552,l)
);
},
{
closed = 1;
nodes = (
(213,723,l),
(257,723,l),
(257,681,l),
(340,681,l),
(340,774,l),
(296,774,l),
(296,816,l),
(251,816,l),
(251,860,l),
(169,860,l),
(169,766,l),
(213,766,l)
);
}
);
};
layerId = "FEF53B85-F0C1-4BB8-A611-3AA340A355BB";
shapes = (
{
ref = E;
},
{
pos = (109,171);
ref = gravecomb;
}
);
width = 603;
},
{
anchors = (
{
name = bottom;
pos = (292,-12);
},
{
name = top;
pos = (248,854);
}
);
background = {
anchors = (
{
name = bottom;
pos = (292,-12);
},
{
name = top;
pos = (248,854);
}
);
shapes = (
{
closed = 1;
nodes = (
(60,78,l),
(151,78,l),
(151,-12,l),
(433,-12,l),
(433,78,l),
(525,78,l),
(525,179,l),
(423,179,l),
(423,88,l),
(161,88,l),
(161,260,l),
(343,260,l),
(343,359,l),
(161,359,l),
(161,530,l),
(423,530,l),
(423,440,l),
(525,440,l),
(525,540,l),
(433,540,l),
(433,631,l),
(151,631,l),
(151,540,l),
(60,540,l)
);
},
{
closed = 1;
nodes = (
(220,753,l),
(266,753,l),
(266,709,l),
(321,709,l),
(321,763,l),
(276,763,l),
(276,808,l),
(230,808,l),
(230,854,l),
(175,854,l),
(175,799,l),
(220,799,l)
);
}
);
};
layerId = "6CDB3465-C44F-49AC-BF84-14420C40CC8C";
shapes = (
{
ref = E;
},
{
pos = (115,181);
ref = gravecomb;
}
);
width = 586;
}
);
unicode = 200;
},
{
color = (153,255,154,255);
glyphname = Emacron;
kernLeft = _Otilde;
lastChange = "2023-09-07 12:48:38 +0000";
layers = (
{
anchors = (
{
name = bottom;
pos = (292,-12);
}
);
background = {
anchors = (
{
name = bottom;
pos = (292,-12);
},
{
name = top;
pos = (298,638);
}
);
shapes = (
{
closed = 1;
nodes = (
(61,74,l),
(149,74,l),
(149,-11,l),
(453,-11,l),
(453,74,l),
(542,74,l),
(542,211,l),
(414,211,l),
(414,125,l),
(188,125,l),
(188,246,l),
(365,246,l),
(365,381,l),
(188,381,l),
(188,501,l),
(414,501,l),
(414,416,l),
(542,416,l),
(542,552,l),
(453,552,l),
(453,638,l),
(149,638,l),
(149,552,l),
(61,552,l)
);
},
{
closed = 1;
nodes = (
(144,755,l),
(144,892,l),
(448,892,l),
(448,755,l)
);
}
);
};
layerId = "FEF53B85-F0C1-4BB8-A611-3AA340A355BB";
shapes = (
{
ref = E;
},
{
pos = (146,171);
ref = macroncomb;
}
);
width = 603;
},
{
anchors = (
{
name = bottom;
pos = (292,-12);
}
);
background = {
anchors = (
{
name = bottom;
pos = (292,-12);
},
{
name = top;
pos = (293,619);
}
);
shapes = (
{
closed = 1;
nodes = (
(60,78,l),
(151,78,l),
(151,-12,l),
(433,-12,l),
(433,78,l),
(525,78,l),
(525,179,l),
(423,179,l),
(423,88,l),
(161,88,l),
(161,260,l),
(343,260,l),
(343,359,l),
(161,359,l),
(161,530,l),
(423,530,l),
(423,440,l),
(525,440,l),
(525,540,l),
(433,540,l),
(433,631,l),
(151,631,l),
(151,540,l),
(60,540,l)
);
},
{
closed = 1;
nodes = (
(155,693,l),
(155,794,l),
(437,794,l),
(437,693,l)
);
}
);
};
layerId = "6CDB3465-C44F-49AC-BF84-14420C40CC8C";
shapes = (
{
ref = E;
},
{
pos = (146,181);
ref = macroncomb;
}
);
width = 586;
}
);
unicode = 274;
},
{
color = (153,255,154,255);
glyphname = Eogonek;
kernLeft = _B;
kernRight = _E;
lastChange = "2023-09-07 12:56:22 +0000";
layers = (
{
anchors = (
{
name = top;
pos = (298,638);
}
);
background = {
anchors = (
{
name = bottom;
pos = (292,-12);
},
{
name = top;
pos = (298,638);
}
);
shapes = (
{
closed = 1;
nodes = (
(61,74,l),
(149,74,l),
(149,-11,l),
(453,-11,l),
(453,74,l),
(542,74,l),
(542,211,l),
(414,211,l),
(414,125,l),
(188,125,l),
(188,246,l),
(365,246,l),
(365,381,l),
(188,381,l),
(188,501,l),
(414,501,l),
(414,416,l),
(542,416,l),
(542,552,l),
(453,552,l),
(453,638,l),
(149,638,l),
(149,552,l),
(61,552,l)
);
},
{
closed = 1;
nodes = (
(179,-158,l),
(223,-158,l),
(223,-201,l),
(394,-201,l),
(394,-158,l),
(438,-158,l),
(438,-65,l),
(356,-65,l),
(356,-107,l),
(306,-107,l),
(306,-90,l),
(306,-90,l),
(306,-73,l),
(350,-73,l),
(350,27,l),
(223,27,l),
(223,-44,l),
(223,-44,l),
(223,-65,l),
(179,-65,l)
);
}
);
};
layerId = "FEF53B85-F0C1-4BB8-A611-3AA340A355BB";
shapes = (
{
ref = E;
},
{
pos = (159,-12);
ref = ogonekcomb;
}
);
width = 603;
},
{
anchors = (
{
name = top;
pos = (293,619);
}
);
background = {
anchors = (
{
name = bottom;
pos = (292,-12);
},
{
name = top;
pos = (293,619);
}
);
shapes = (
{
closed = 1;
nodes = (
(60,78,l),
(151,78,l),
(151,-12,l),
(433,-12,l),
(433,78,l),
(525,78,l),
(525,179,l),
(423,179,l),
(423,88,l),
(161,88,l),
(161,260,l),
(343,260,l),
(343,359,l),
(161,359,l),
(161,530,l),
(423,530,l),
(423,440,l),
(525,440,l),
(525,540,l),
(433,540,l),
(433,631,l),
(151,631,l),
(151,540,l),
(60,540,l)
);
},
{
closed = 1;
nodes = (
(175,-167,l),
(221,-167,l),
(221,-212,l),
(367,-212,l),
(367,-167,l),
(412,-167,l),
(412,-112,l),
(357,-112,l),
(357,-157,l),
(231,-157,l),
(231,-122,l),
(276,-122,l),
(276,-77,l),
(321,-77,l),
(321,26,l),
(266,26,l),
(266,-67,l),
(221,-67,l),
(221,-112,l),
(175,-112,l)
);
}
);
};
layerId = "6CDB3465-C44F-49AC-BF84-14420C40CC8C";
shapes = (
{
ref = E;
},
{
pos = (144,-12);
ref = ogonekcomb;
}
);
width = 586;
}
);
unicode = 280;
},
{
glyphname = F;
kernLeft = _D;
lastChange = "2023-09-07 12:38:49 +0000";
layers = (
{
anchors = (
{
name = bottom;
pos = (302,0);
},
{
name = top;
pos = (302,700);
}
);
background = {
shapes = (
{
closed = 1;
nodes = (
(61,-11,l),
(188,-11,l),
(188,246,l),
(365,246,l),
(365,381,l),
(188,381,l),
(188,501,l),
(414,501,l),
(414,416,l),
(542,416,l),
(542,552,l),
(453,552,l),
(453,638,l),
(61,638,l)
);
}
);
};
layerId = "FEF53B85-F0C1-4BB8-A611-3AA340A355BB";
shapes = (
{
closed = 1;
nodes = (
(188,-11,l),
(188,246,l),
(365,246,l),
(365,381,l),
(188,381,l),
(188,501,l),
(414,501,l),
(414,416,l),
(542,416,l),
(542,552,l),
(453,552,l),
(453,638,l),
(61,638,l),
(61,-11,l)
);
}
);
width = 603;
},
{
associatedMasterId = "6CDB3465-C44F-49AC-BF84-14420C40CC8C";
layerId = "247CFECD-2598-4D35-A3A7-5961DFED04F8";
name = img;
width = 603;
},
{
anchors = (
{
name = bottom;
pos = (293,0);
},
{
name = top;
pos = (293,700);
}
);
background = {
shapes = (
{
closed = 1;
nodes = (
(60,-12,l),
(161,-12,l),
(161,260,l),
(343,260,l),
(343,359,l),
(161,359,l),
(161,530,l),
(423,530,l),
(423,440,l),
(525,440,l),
(525,540,l),
(433,540,l),
(433,631,l),
(60,631,l)
);
}
);
};
layerId = "6CDB3465-C44F-49AC-BF84-14420C40CC8C";
shapes = (
{
closed = 1;
nodes = (
(161,-12,l),
(161,260,l),
(343,260,l),
(343,359,l),
(161,359,l),
(161,530,l),
(423,530,l),
(423,440,l),
(525,440,l),
(525,540,l),
(433,540,l),
(433,631,l),
(60,631,l),
(60,-12,l)
);
}
);
width = 586;
}
);
unicode = 70;
},
{
glyphname = G;
kernLeft = _B;
kernRight = _G;
lastChange = "2023-09-07 12:56:35 +0000";
layers = (
{
anchors = (
{
name = bottom;
pos = (302,0);
},
{
name = top;
pos = (302,638);
}
);
background = {
anchors = (
{
name = bottom;
pos = (302,-27);
},
{
name = top;
pos = (302,638);
}
);
shapes = (
{
closed = 1;
nodes = (
(61,74,l),
(149,74,l),
(149,-11,l),
(453,-11,l),
(453,74,l),
(542,74,l),
(542,297,l),
(365,297,l),
(365,381,l),
(237,381,l),
(237,246,l),
(326,246,l),
(326,160,l),
(414,160,l),
(414,125,l),
(188,125,l),
(188,501,l),
(414,501,l),
(414,331,l),
(542,331,l),
(542,552,l),
(453,552,l),
(453,638,l),
(149,638,l),
(149,552,l),
(61,552,l)
);
}
);
};
layerId = "FEF53B85-F0C1-4BB8-A611-3AA340A355BB";
shapes = (
{
closed = 1;
nodes = (
(453,-11,l),
(453,74,l),
(542,74,l),
(542,297,l),
(365,297,l),
(365,381,l),
(237,381,l),
(237,246,l),
(326,246,l),
(326,160,l),
(414,160,l),
(414,125,l),
(188,125,l),
(188,501,l),
(414,501,l),
(414,331,l),
(542,331,l),
(542,552,l),
(453,552,l),
(453,638,l),
(149,638,l),
(149,552,l),
(61,552,l),
(61,74,l),
(149,74,l),
(149,-11,l)
);
}
);
width = 603;
},
{
associatedMasterId = "6CDB3465-C44F-49AC-BF84-14420C40CC8C";
layerId = "247CFECD-2598-4D35-A3A7-5961DFED04F8";
name = img;
width = 603;
},
{
anchors = (
{
name = bottom;
pos = (293,0);
},
{
name = top;
pos = (293,631);
}
);
background = {
anchors = (
{
name = bottom;
pos = (300,-32);
},
{
name = top;
pos = (299,631);
}
);
shapes = (
{
closed = 1;
nodes = (
(60,78,l),
(151,78,l),
(151,-12,l),
(433,-12,l),
(433,78,l),
(525,78,l),
(525,270,l),
(343,270,l),
(343,359,l),
(241,359,l),
(241,260,l),
(333,260,l),
(333,169,l),
(423,169,l),
(423,88,l),
(161,88,l),
(161,530,l),
(423,530,l),
(423,350,l),
(525,350,l),
(525,540,l),
(433,540,l),
(433,631,l),
(151,631,l),
(151,540,l),
(60,540,l)
);
}
);
};
layerId = "6CDB3465-C44F-49AC-BF84-14420C40CC8C";
shapes = (
{
closed = 1;
nodes = (
(433,-12,l),
(433,78,l),
(525,78,l),
(525,270,l),
(343,270,l),
(343,359,l),
(241,359,l),
(241,260,l),
(333,260,l),
(333,169,l),
(423,169,l),
(423,88,l),
(161,88,l),
(161,530,l),
(423,530,l),
(423,350,l),
(525,350,l),
(525,540,l),
(433,540,l),
(433,631,l),
(151,631,l),
(151,540,l),
(60,540,l),
(60,78,l),
(151,78,l),
(151,-12,l)
);
}
);
width = 586;
}
);
unicode = 71;
},
{
color = (153,255,154,255);
glyphname = Gbreve;
kernLeft = _Ebreve;
kernRight = _Gbreve;
lastChange = "2023-09-07 12:56:35 +0000";
layers = (
{
anchors = (
{
name = bottom;
pos = (302,-27);
}
);
background = {
anchors = (
{
name = bottom;
pos = (302,-27);
},
{
name = top;
pos = (302,638);
}
);
shapes = (
{
closed = 1;
nodes = (
(61,74,l),
(149,74,l),
(149,-11,l),
(453,-11,l),
(453,74,l),
(542,74,l),
(542,297,l),
(365,297,l),
(365,381,l),
(237,381,l),
(237,246,l),
(326,246,l),
(326,160,l),
(414,160,l),
(414,125,l),
(188,125,l),
(188,501,l),
(414,501,l),
(414,331,l),
(542,331,l),
(542,552,l),
(453,552,l),
(453,638,l),
(149,638,l),
(149,552,l),
(61,552,l)
);
},
{
closed = 1;
nodes = (
(169,681,l),
(169,818,l),
(251,818,l),
(251,775,l),
(353,775,l),
(353,818,l),
(434,818,l),
(434,681,l)
);
}
);
};
layerId = "FEF53B85-F0C1-4BB8-A611-3AA340A355BB";
shapes = (
{
ref = G;
},
{
pos = (151,171);
ref = brevecomb;
}
);
width = 603;
},
{
anchors = (
{
name = bottom;
pos = (300,-32);
}
);
background = {
anchors = (
{
name = bottom;
pos = (300,-32);
},
{
name = top;
pos = (299,631);
}
);
shapes = (
{
closed = 1;
nodes = (
(60,78,l),
(151,78,l),
(151,-12,l),
(433,-12,l),
(433,78,l),
(525,78,l),
(525,270,l),
(343,270,l),
(343,359,l),
(241,359,l),
(241,260,l),
(333,260,l),
(333,169,l),
(423,169,l),
(423,88,l),
(161,88,l),
(161,530,l),
(423,530,l),
(423,350,l),
(525,350,l),
(525,540,l),
(433,540,l),
(433,631,l),
(151,631,l),
(151,540,l),
(60,540,l)
);
},
{
closed = 1;
nodes = (
(175,704,l),
(175,805,l),
(230,805,l),
(230,759,l),
(364,759,l),
(364,805,l),
(418,805,l),
(418,704,l)
);
}
);
};
layerId = "6CDB3465-C44F-49AC-BF84-14420C40CC8C";
shapes = (
{
ref = G;
},
{
pos = (140,181);
ref = brevecomb;
}
);
width = 586;
}
);
unicode = 286;
},
{
color = (153,255,154,255);
glyphname = Gcircumflex;
kernLeft = _Ebreve;
kernRight = _Gbreve;
lastChange = "2023-09-07 12:56:35 +0000";
layers = (
{
anchors = (
{
name = bottom;
pos = (302,-27);
}
);
background = {
anchors = (
{
name = bottom;
pos = (302,-27);
},
{
name = top;
pos = (302,638);
}
);
shapes = (
{
closed = 1;
nodes = (
(61,74,l),
(149,74,l),
(149,-11,l),
(453,-11,l),
(453,74,l),
(542,74,l),
(542,297,l),
(365,297,l),
(365,381,l),
(237,381,l),
(237,246,l),
(326,246,l),
(326,160,l),
(414,160,l),
(414,125,l),
(188,125,l),
(188,501,l),
(414,501,l),
(414,331,l),
(542,331,l),
(542,552,l),
(453,552,l),
(453,638,l),
(149,638,l),
(149,552,l),
(61,552,l)
);
},
{
closed = 1;
nodes = (
(217,672,l),
(299,672,l),
(299,715,l),
(305,715,l),
(305,672,l),
(388,672,l),
(388,765,l),
(344,765,l),
(344,809,l),
(261,809,l),
(261,765,l),
(217,765,l)
);
}
);
};
layerId = "FEF53B85-F0C1-4BB8-A611-3AA340A355BB";
shapes = (
{
ref = G;
},
{
pos = (153,171);
ref = circumflexcomb;
}
);
width = 603;
},
{
anchors = (
{
name = bottom;
pos = (300,-32);
}
);
background = {
anchors = (
{
name = bottom;
pos = (300,-32);
},
{
name = top;
pos = (299,631);
}
);
shapes = (
{
closed = 1;
nodes = (
(60,78,l),
(151,78,l),
(151,-12,l),
(433,-12,l),
(433,78,l),
(525,78,l),
(525,270,l),
(343,270,l),
(343,359,l),
(241,359,l),
(241,260,l),
(333,260,l),
(333,169,l),
(423,169,l),
(423,88,l),
(161,88,l),
(161,530,l),
(423,530,l),
(423,350,l),
(525,350,l),
(525,540,l),
(433,540,l),
(433,631,l),
(151,631,l),
(151,540,l),
(60,540,l)
);
},
{
closed = 1;
nodes = (
(226,694,l),
(281,694,l),
(281,740,l),
(317,740,l),
(317,694,l),
(372,694,l),
(372,749,l),
(327,749,l),
(327,795,l),
(271,795,l),
(271,749,l),
(226,749,l)
);
}
);
};
layerId = "6CDB3465-C44F-49AC-BF84-14420C40CC8C";
shapes = (
{
ref = G;
},
{
pos = (143,181);
ref = circumflexcomb;
}
);
width = 586;
}
);
unicode = 284;
},
{
color = (153,255,154,255);
glyphname = Gcommaaccent;
kernLeft = _B;
kernRight = _G;
lastChange = "2023-09-07 12:58:16 +0000";
layers = (
{
anchors = (
{
name = top;
pos = (302,638);
}
);
background = {
anchors = (
{
name = bottom;
pos = (302,-27);
},
{
name = top;
pos = (302,638);
}
);
shapes = (
{
closed = 1;
nodes = (
(61,74,l),
(149,74,l),
(149,-11,l),
(453,-11,l),
(453,74,l),
(542,74,l),
(542,297,l),
(365,297,l),
(365,381,l),
(237,381,l),
(237,246,l),
(326,246,l),
(326,160,l),
(414,160,l),
(414,125,l),
(188,125,l),
(188,501,l),
(414,501,l),
(414,331,l),
(542,331,l),
(542,552,l),
(453,552,l),
(453,638,l),
(149,638,l),
(149,552,l),
(61,552,l)
);
},
{
closed = 1;
nodes = (
(279,-265,l),
(279,-201,l),
(279,-200,l),
(279,-180,l),
(235,-180,l),
(235,-43,l),
(362,-43,l),
(362,-129,l),
(406,-129,l),
(406,-221,l),
(362,-221,l),
(362,-265,l)
);
}
);
};
layerId = "FEF53B85-F0C1-4BB8-A611-3AA340A355BB";
shapes = (
{
ref = G;
},
{
pos = (147,0);
ref = commaaccentcomb;
}
);
width = 603;
},
{
anchors = (
{
name = top;
pos = (299,631);
}
);
background = {
anchors = (
{
name = bottom;
pos = (300,-32);
},
{
name = top;
pos = (299,631);
}
);
shapes = (
{
closed = 1;
nodes = (
(60,78,l),
(151,78,l),
(151,-12,l),
(433,-12,l),
(433,78,l),
(525,78,l),
(525,270,l),
(343,270,l),
(343,359,l),
(241,359,l),
(241,260,l),
(333,260,l),
(333,169,l),
(423,169,l),
(423,88,l),
(161,88,l),
(161,530,l),
(423,530,l),
(423,350,l),
(525,350,l),
(525,540,l),
(433,540,l),
(433,631,l),
(151,631,l),
(151,540,l),
(60,540,l)
);
},
{
closed = 1;
nodes = (
(280,-244,l),
(280,-188,l),
(326,-188,l),
(326,-154,l),
(235,-154,l),
(235,-53,l),
(336,-53,l),
(336,-144,l),
(381,-144,l),
(381,-198,l),
(336,-198,l),
(336,-244,l)
);
}
);
};
layerId = "6CDB3465-C44F-49AC-BF84-14420C40CC8C";
shapes = (
{
ref = G;
},
{
pos = (147,0);
ref = commaaccentcomb;
}
);
width = 586;
}
);
unicode = 290;
},
{
color = (153,255,154,255);
glyphname = Gdotaccent;
kernLeft = _Cacute;
lastChange = "2023-09-07 12:56:35 +0000";
layers = (
{
anchors = (
{
name = bottom;
pos = (302,-27);
}
);
background = {
anchors = (
{
name = bottom;
pos = (302,-27);
},
{
name = top;
pos = (302,638);
}
);
shapes = (
{
closed = 1;
nodes = (
(61,74,l),
(149,74,l),
(149,-11,l),
(453,-11,l),
(453,74,l),
(542,74,l),
(542,297,l),
(365,297,l),
(365,381,l),
(237,381,l),
(237,246,l),
(326,246,l),
(326,160,l),
(414,160,l),
(414,125,l),
(188,125,l),
(188,501,l),
(414,501,l),
(414,331,l),
(542,331,l),
(542,552,l),
(453,552,l),
(453,638,l),
(149,638,l),
(149,552,l),
(61,552,l)
);
},
{
closed = 1;
nodes = (
(239,682,l),
(239,819,l),
(367,819,l),
(367,682,l)
);
}
);
};
layerId = "FEF53B85-F0C1-4BB8-A611-3AA340A355BB";
shapes = (
{
ref = G;
},
{
pos = (153,171);
ref = dotaccentcomb;
}
);
width = 603;
},
{
anchors = (
{
name = bottom;
pos = (300,-32);
}
);
background = {
anchors = (
{
name = bottom;
pos = (300,-32);
},
{
name = top;
pos = (299,631);
}
);
shapes = (
{
closed = 1;
nodes = (
(60,78,l),
(151,78,l),
(151,-12,l),
(433,-12,l),
(433,78,l),
(525,78,l),
(525,270,l),
(343,270,l),
(343,359,l),
(241,359,l),
(241,260,l),
(333,260,l),
(333,169,l),
(423,169,l),
(423,88,l),
(161,88,l),
(161,530,l),
(423,530,l),
(423,350,l),
(525,350,l),
(525,540,l),
(433,540,l),
(433,631,l),
(151,631,l),
(151,540,l),
(60,540,l)
);
},
{
closed = 1;
nodes = (
(248,705,l),
(248,806,l),
(350,806,l),
(350,705,l)
);
}
);
};
layerId = "6CDB3465-C44F-49AC-BF84-14420C40CC8C";
shapes = (
{
ref = G;
},
{
pos = (143,181);
ref = dotaccentcomb;
}
);
width = 586;
}
);
unicode = 288;
},
{
glyphname = H;
kernLeft = _D;
kernRight = _H;
lastChange = "2023-09-07 12:57:20 +0000";
layers = (
{
anchors = (
{
name = bottom;
pos = (302,0);
},
{
name = center;
pos = (302,350);
},
{
name = top;
pos = (302,638);
},
{
name = topleft;
pos = (20,700);
}
);
background = {
anchors = (
{
name = bottom;
pos = (298,-12);
},
{
name = top;
pos = (302,638);
}
);
shapes = (
{
closed = 1;
nodes = (
(61,-11,l),
(188,-11,l),
(188,246,l),
(414,246,l),
(414,-11,l),
(542,-11,l),
(542,638,l),
(414,638,l),
(414,381,l),
(365,381,l),
(365,467,l),
(237,467,l),
(237,381,l),
(188,381,l),
(188,638,l),
(61,638,l)
);
}
);
};
layerId = "FEF53B85-F0C1-4BB8-A611-3AA340A355BB";
shapes = (
{
closed = 1;
nodes = (
(188,-11,l),
(188,246,l),
(414,246,l),
(414,-11,l),
(542,-11,l),
(542,638,l),
(414,638,l),
(414,381,l),
(365,381,l),
(365,467,l),
(237,467,l),
(237,381,l),
(188,381,l),
(188,638,l),
(61,638,l),
(61,-11,l)
);
}
);
width = 603;
},
{
associatedMasterId = "6CDB3465-C44F-49AC-BF84-14420C40CC8C";
layerId = "247CFECD-2598-4D35-A3A7-5961DFED04F8";
name = img;
width = 603;
},
{
anchors = (
{
name = bottom;
pos = (293,0);
},
{
name = center;
pos = (293,350);
},
{
name = top;
pos = (293,631);
},
{
name = topleft;
pos = (20,700);
}
);
background = {
anchors = (
{
name = bottom;
pos = (292,0);
},
{
name = top;
pos = (286,631);
}
);
shapes = (
{
closed = 1;
nodes = (
(60,-12,l),
(161,-12,l),
(161,260,l),
(423,260,l),
(423,-12,l),
(525,-12,l),
(525,631,l),
(423,631,l),
(423,359,l),
(343,359,l),
(343,450,l),
(241,450,l),
(241,359,l),
(161,359,l),
(161,631,l),
(60,631,l)
);
}
);
};
layerId = "6CDB3465-C44F-49AC-BF84-14420C40CC8C";
shapes = (
{
closed = 1;
nodes = (
(161,-12,l),
(161,260,l),
(423,260,l),
(423,-12,l),
(525,-12,l),
(525,631,l),
(423,631,l),
(423,359,l),
(343,359,l),
(343,450,l),
(241,450,l),
(241,359,l),
(161,359,l),
(161,631,l),
(60,631,l),
(60,-12,l)
);
}
);
width = 586;
}
);
unicode = 72;
},
{
glyphname = Hbar;
kernLeft = _D;
kernRight = _H;
lastChange = "2023-09-07 12:36:37 +0000";
layers = (
{
background = {
shapes = (
{
closed = 1;
nodes = (
(61,-11,l),
(188,-11,l),
(188,246,l),
(414,246,l),
(414,-11,l),
(542,-11,l),
(542,638,l),
(414,638,l),
(414,603,l),
(188,603,l),
(188,638,l),
(61,638,l)
);
},
{
closed = 1;
nodes = (
(188,381,l),
(188,467,l),
(414,467,l),
(414,381,l),
(365,381,l),
(365,467,l),
(237,467,l),
(237,381,l)
);
}
);
};
layerId = "FEF53B85-F0C1-4BB8-A611-3AA340A355BB";
shapes = (
{
closed = 1;
nodes = (
(188,-11,l),
(188,246,l),
(414,246,l),
(414,-11,l),
(542,-11,l),
(542,638,l),
(414,638,l),
(414,603,l),
(188,603,l),
(188,638,l),
(61,638,l),
(61,-11,l)
);
},
{
closed = 1;
nodes = (
(188,467,l),
(414,467,l),
(414,381,l),
(365,381,l),
(365,467,l),
(237,467,l),
(237,381,l),
(188,381,l)
);
}
);
width = 603;
},
{
associatedMasterId = "6CDB3465-C44F-49AC-BF84-14420C40CC8C";
layerId = "247CFECD-2598-4D35-A3A7-5961DFED04F8";
name = img;
width = 603;
},
{
background = {
shapes = (
{
closed = 1;
nodes = (
(60,-12,l),
(161,-12,l),
(161,260,l),
(423,260,l),
(423,-12,l),
(525,-12,l),
(525,631,l),
(423,631,l),
(423,594,l),
(161,594,l),
(161,631,l),
(60,631,l)
);
},
{
closed = 1;
nodes = (
(161,359,l),
(161,494,l),
(423,494,l),
(423,359,l),
(343,359,l),
(343,450,l),
(241,450,l),
(241,359,l)
);
}
);
};
layerId = "6CDB3465-C44F-49AC-BF84-14420C40CC8C";
shapes = (
{
closed = 1;
nodes = (
(161,-12,l),
(161,260,l),
(423,260,l),
(423,-12,l),
(525,-12,l),
(525,631,l),
(423,631,l),
(423,594,l),
(161,594,l),
(161,631,l),
(60,631,l),
(60,-12,l)
);
},
{
closed = 1;
nodes = (
(161,494,l),
(423,494,l),
(423,359,l),
(343,359,l),
(343,450,l),
(241,450,l),
(241,359,l),
(161,359,l)
);
}
);
width = 586;
}
);
unicode = 294;
},
{
color = (153,255,154,255);
glyphname = Hcircumflex;
lastChange = "2023-09-07 12:58:06 +0000";
layers = (
{
anchors = (
{
name = bottom;
pos = (298,-12);
}
);
background = {
anchors = (
{
name = bottom;
pos = (298,-12);
},
{
name = top;
pos = (302,638);
}
);
shapes = (
{
closed = 1;
nodes = (
(61,-11,l),
(188,-11,l),
(188,246,l),
(414,246,l),
(414,-11,l),
(542,-11,l),
(542,638,l),
(414,638,l),
(414,381,l),
(365,381,l),
(365,467,l),
(237,467,l),
(237,381,l),
(188,381,l),
(188,638,l),
(61,638,l)
);
},
{
closed = 1;
nodes = (
(217,672,l),
(299,672,l),
(299,715,l),
(305,715,l),
(305,672,l),
(388,672,l),
(388,765,l),
(344,765,l),
(344,809,l),
(261,809,l),
(261,765,l),
(217,765,l)
);
}
);
};
layerId = "FEF53B85-F0C1-4BB8-A611-3AA340A355BB";
shapes = (
{
ref = H;
},
{
pos = (153,171);
ref = circumflexcomb;
}
);
width = 603;
},
{
anchors = (
{
name = bottom;
pos = (292,0);
}
);
background = {
anchors = (
{
name = bottom;
pos = (292,0);
},
{
name = top;
pos = (286,631);
}
);
shapes = (
{
closed = 1;
nodes = (
(60,-12,l),
(161,-12,l),
(161,260,l),
(423,260,l),
(423,-12,l),
(525,-12,l),
(525,631,l),
(423,631,l),
(423,359,l),
(343,359,l),
(343,450,l),
(241,450,l),
(241,359,l),
(161,359,l),
(161,631,l),
(60,631,l)
);
},
{
closed = 1;
nodes = (
(213,694,l),
(268,694,l),
(268,740,l),
(304,740,l),
(304,694,l),
(359,694,l),
(359,749,l),
(314,749,l),
(314,795,l),
(258,795,l),
(258,749,l),
(213,749,l)
);
}
);
};
layerId = "6CDB3465-C44F-49AC-BF84-14420C40CC8C";
shapes = (
{
ref = H;
},
{
pos = (143,181);
ref = circumflexcomb;
}
);
width = 586;
}
);
unicode = 292;
},
{
glyphname = I;
kernLeft = _I;
kernRight = _I;
lastChange = "2023-09-07 13:03:55 +0000";
layers = (
{
anchors = (
{
name = bottom;
pos = (213,0);
},
{
name = ogonek;
pos = (213,-12);
},
{
name = top;
pos = (213,638);
},
{
name = topleft;
pos = (20,700);
}
);
background = {
anchors = (
{
name = bottom;
pos = (213,-12);
},
{
name = top;
pos = (213,638);
}
);
shapes = (
{
closed = 1;
nodes = (
(61,-11,l),
(365,-11,l),
(365,125,l),
(276,125,l),
(276,501,l),
(365,501,l),
(365,638,l),
(61,638,l),
(61,501,l),
(149,501,l),
(149,125,l),
(61,125,l)
);
}
);
};
layerId = "FEF53B85-F0C1-4BB8-A611-3AA340A355BB";
shapes = (
{
closed = 1;
nodes = (
(365,-11,l),
(365,125,l),
(276,125,l),
(276,501,l),
(365,501,l),
(365,638,l),
(61,638,l),
(61,501,l),
(149,501,l),
(149,125,l),
(61,125,l),
(61,-11,l)
);
}
);
width = 426;
},
{
associatedMasterId = "6CDB3465-C44F-49AC-BF84-14420C40CC8C";
layerId = "247CFECD-2598-4D35-A3A7-5961DFED04F8";
name = img;
width = 426;
},
{
anchors = (
{
name = bottom;
pos = (202,0);
},
{
name = ogonek;
pos = (197,-12);
},
{
name = top;
pos = (202,631);
},
{
name = topleft;
pos = (20,700);
}
);
background = {
anchors = (
{
name = bottom;
pos = (197,-12);
},
{
name = top;
pos = (200,631);
}
);
shapes = (
{
closed = 1;
nodes = (
(60,-12,l),
(343,-12,l),
(343,88,l),
(251,88,l),
(251,530,l),
(343,530,l),
(343,631,l),
(60,631,l),
(60,530,l),
(151,530,l),
(151,88,l),
(60,88,l)
);
}
);
};
layerId = "6CDB3465-C44F-49AC-BF84-14420C40CC8C";
shapes = (
{
closed = 1;
nodes = (
(343,-12,l),
(343,88,l),
(251,88,l),
(251,530,l),
(343,530,l),
(343,631,l),
(60,631,l),
(60,530,l),
(151,530,l),
(151,88,l),
(60,88,l),
(60,-12,l)
);
}
);
width = 404;
}
);
unicode = 73;
},
{
color = 9;
glyphname = IJ;
lastChange = "2023-09-07 12:38:57 +0000";
layers = (
{
background = {
anchors = (
{
name = bottom;
pos = (718,0);
},
{
name = top;
pos = (728,638);
}
);
shapes = (
{
closed = 1;
nodes = (
(61,-11,l),
(365,-11,l),
(365,125,l),
(276,125,l),
(276,501,l),
(365,501,l),
(365,638,l),
(61,638,l),
(61,501,l),
(149,501,l),
(149,125,l),
(61,125,l)
);
},
{
closed = 1;
nodes = (
(487,74,l),
(575,74,l),
(575,-11,l),
(879,-11,l),
(879,74,l),
(968,74,l),
(968,552,l),
(879,552,l),
(879,638,l),
(575,638,l),
(575,501,l),
(840,501,l),
(840,125,l),
(614,125,l),
(614,297,l),
(487,297,l)
);
}
);
};
layerId = "FEF53B85-F0C1-4BB8-A611-3AA340A355BB";
shapes = (
{
ref = I;
},
{
pos = (426,0);
ref = J;
}
);
width = 1029;
},
{
background = {
anchors = (
{
name = bottom;
pos = (696,0);
},
{
name = top;
pos = (704,631);
}
);
shapes = (
{
closed = 1;
nodes = (
(60,-12,l),
(343,-12,l),
(343,88,l),
(251,88,l),
(251,530,l),
(343,530,l),
(343,631,l),
(60,631,l),
(60,530,l),
(151,530,l),
(151,88,l),
(60,88,l)
);
},
{
closed = 1;
nodes = (
(464,78,l),
(555,78,l),
(555,-12,l),
(837,-12,l),
(837,78,l),
(929,78,l),
(929,540,l),
(837,540,l),
(837,631,l),
(555,631,l),
(555,530,l),
(827,530,l),
(827,88,l),
(565,88,l),
(565,270,l),
(464,270,l)
);
}
);
};
layerId = "6CDB3465-C44F-49AC-BF84-14420C40CC8C";
shapes = (
{
ref = I;
},
{
pos = (404,0);
ref = J;
}
);
width = 990;
}
);
unicode = 306;
},
{
color = (153,255,154,255);
glyphname = Iacute;
kernLeft = _Iacute;
kernRight = _Iacute;
lastChange = "2023-09-07 13:03:50 +0000";
layers = (
{
anchors = (
{
name = bottom;
pos = (213,-12);
}
);
background = {
anchors = (
{
name = bottom;
pos = (213,-12);
},
{
name = top;
pos = (213,638);
}
);
shapes = (
{
closed = 1;
nodes = (
(61,-11,l),
(365,-11,l),
(365,125,l),
(276,125,l),
(276,501,l),
(365,501,l),
(365,638,l),
(61,638,l),
(61,501,l),
(149,501,l),
(149,125,l),
(61,125,l)
);
},
{
closed = 1;
nodes = (
(253,723,l),
(253,766,l),
(297,766,l),
(297,860,l),
(215,860,l),
(215,816,l),
(170,816,l),
(170,774,l),
(126,774,l),
(126,681,l),
(209,681,l),
(209,723,l)
);
}
);
};
layerId = "FEF53B85-F0C1-4BB8-A611-3AA340A355BB";
shapes = (
{
ref = I;
},
{
pos = (61,171);
ref = acutecomb;
}
);
width = 426;
},
{
anchors = (
{
name = bottom;
pos = (197,-12);
}
);
background = {
anchors = (
{
name = bottom;
pos = (197,-12);
},
{
name = top;
pos = (200,631);
}
);
shapes = (
{
closed = 1;
nodes = (
(60,-12,l),
(343,-12,l),
(343,88,l),
(251,88,l),
(251,530,l),
(343,530,l),
(343,631,l),
(60,631,l),
(60,530,l),
(151,530,l),
(151,88,l),
(60,88,l)
);
},
{
closed = 1;
nodes = (
(213,748,l),
(213,794,l),
(258,794,l),
(258,849,l),
(203,849,l),
(203,803,l),
(157,803,l),
(157,758,l),
(112,758,l),
(112,704,l),
(167,704,l),
(167,748,l)
);
}
);
};
layerId = "6CDB3465-C44F-49AC-BF84-14420C40CC8C";
shapes = (
{
ref = I;
},
{
pos = (37,181);
ref = acutecomb;
}
);
width = 404;
}
);
unicode = 205;
},
{
glyphname = Ibreve;
kernLeft = _Ibreve;
kernRight = _Ibreve;
lastChange = "2023-09-07 13:03:50 +0000";
layers = (
{
background = {
shapes = (
{
closed = 1;
nodes = (
(61,-11,l),
(365,-11,l),
(365,125,l),
(276,125,l),
(276,501,l),
(365,501,l),
(365,638,l),
(61,638,l),
(61,501,l),
(149,501,l),
(149,125,l),
(61,125,l)
);
},
{
closed = 1;
nodes = (
(80,653,l),
(346,653,l),
(346,790,l),
(263,790,l),
(263,747,l),
(162,747,l),
(162,790,l),
(80,790,l)
);
}
);
};
layerId = "FEF53B85-F0C1-4BB8-A611-3AA340A355BB";
shapes = (
{
ref = I;
},
{
pos = (62,171);
ref = brevecomb;
}
);
width = 426;
},
{
associatedMasterId = "6CDB3465-C44F-49AC-BF84-14420C40CC8C";
layerId = "247CFECD-2598-4D35-A3A7-5961DFED04F8";
name = img;
width = 426;
},
{
background = {
shapes = (
{
closed = 1;
nodes = (
(60,-12,l),
(343,-12,l),
(343,88,l),
(251,88,l),
(251,530,l),
(343,530,l),
(343,631,l),
(60,631,l),
(60,530,l),
(151,530,l),
(151,88,l),
(60,88,l)
);
},
{
closed = 1;
nodes = (
(80,691,l),
(323,691,l),
(323,792,l),
(268,792,l),
(268,746,l),
(134,746,l),
(134,792,l),
(80,792,l)
);
}
);
};
layerId = "6CDB3465-C44F-49AC-BF84-14420C40CC8C";
shapes = (
{
ref = I;
},
{
pos = (49,181);
ref = brevecomb;
}
);
width = 404;
}
);
unicode = 300;
},
{
color = (153,255,154,255);
glyphname = Icircumflex;
kernLeft = _Ibreve;
kernRight = _Ibreve;
lastChange = "2023-09-07 13:03:50 +0000";
layers = (
{
anchors = (
{
name = bottom;
pos = (213,-12);
}
);
background = {
anchors = (
{
name = bottom;
pos = (213,-12);
},
{
name = top;
pos = (213,638);
}
);
shapes = (
{
closed = 1;
nodes = (
(61,-11,l),
(365,-11,l),
(365,125,l),
(276,125,l),
(276,501,l),
(365,501,l),
(365,638,l),
(61,638,l),
(61,501,l),
(149,501,l),
(149,125,l),
(61,125,l)
);
},
{
closed = 1;
nodes = (
(128,672,l),
(210,672,l),
(210,715,l),
(216,715,l),
(216,672,l),
(299,672,l),
(299,765,l),
(255,765,l),
(255,809,l),
(172,809,l),
(172,765,l),
(128,765,l)
);
}
);
};
layerId = "FEF53B85-F0C1-4BB8-A611-3AA340A355BB";
shapes = (
{
ref = I;
},
{
pos = (64,171);
ref = circumflexcomb;
}
);
width = 426;
},
{
anchors = (
{
name = bottom;
pos = (197,-12);
}
);
background = {
anchors = (
{
name = bottom;
pos = (197,-12);
},
{
name = top;
pos = (200,631);
}
);
shapes = (
{
closed = 1;
nodes = (
(60,-12,l),
(343,-12,l),
(343,88,l),
(251,88,l),
(251,530,l),
(343,530,l),
(343,631,l),
(60,631,l),
(60,530,l),
(151,530,l),
(151,88,l),
(60,88,l)
);
},
{
closed = 1;
nodes = (
(127,694,l),
(182,694,l),
(182,740,l),
(218,740,l),
(218,694,l),
(273,694,l),
(273,749,l),
(228,749,l),
(228,795,l),
(172,795,l),
(172,749,l),
(127,749,l)
);
}
);
};
layerId = "6CDB3465-C44F-49AC-BF84-14420C40CC8C";
shapes = (
{
ref = I;
},
{
pos = (52,181);
ref = circumflexcomb;
}
);
width = 404;
}
);
unicode = 206;
},
{
color = (153,255,154,255);
glyphname = Idieresis;
lastChange = "2023-09-07 13:03:50 +0000";
layers = (
{
anchors = (
{
name = bottom;
pos = (213,-12);
}
);
background = {
anchors = (
{
name = bottom;
pos = (213,-12);
},
{
name = top;
pos = (213,638);
}
);
shapes = (
{
closed = 1;
nodes = (
(61,-11,l),
(365,-11,l),
(365,125,l),
(276,125,l),
(276,501,l),
(365,501,l),
(365,638,l),
(61,638,l),
(61,501,l),
(149,501,l),
(149,125,l),
(61,125,l)
);
},
{
closed = 1;
nodes = (
(50,675,l),
(50,812,l),
(178,812,l),
(178,675,l)
);
},
{
closed = 1;
nodes = (
(257,675,l),
(257,812,l),
(384,812,l),
(384,675,l)
);
}
);
};
layerId = "FEF53B85-F0C1-4BB8-A611-3AA340A355BB";
shapes = (
{
ref = I;
},
{
pos = (67,171);
ref = dieresiscomb;
}
);
width = 426;
},
{
anchors = (
{
name = bottom;
pos = (197,-12);
}
);
background = {
anchors = (
{
name = bottom;
pos = (197,-12);
},
{
name = top;
pos = (200,631);
}
);
shapes = (
{
closed = 1;
nodes = (
(60,-12,l),
(343,-12,l),
(343,88,l),
(251,88,l),
(251,530,l),
(343,530,l),
(343,631,l),
(60,631,l),
(60,530,l),
(151,530,l),
(151,88,l),
(60,88,l)
);
},
{
closed = 1;
nodes = (
(47,647,l),
(47,748,l),
(149,748,l),
(149,647,l)
);
},
{
closed = 1;
nodes = (
(260,647,l),
(260,748,l),
(361,748,l),
(361,647,l)
);
}
);
};
layerId = "6CDB3465-C44F-49AC-BF84-14420C40CC8C";
shapes = (
{
ref = I;
},
{
pos = (56,181);
ref = dieresiscomb;
}
);
width = 404;
}
);
unicode = 207;
},
{
glyphname = Idotaccent;
kernLeft = _Iacute;
kernRight = _Iacute;
lastChange = "2023-09-07 13:03:50 +0000";
layers = (
{
background = {
shapes = (
{
closed = 1;
nodes = (
(61,-11,l),
(365,-11,l),
(365,125,l),
(276,125,l),
(276,501,l),
(365,501,l),
(365,638,l),
(61,638,l),
(61,501,l),
(149,501,l),
(149,125,l),
(61,125,l)
);
},
{
closed = 1;
nodes = (
(150,654,l),
(278,654,l),
(278,791,l),
(150,791,l)
);
}
);
};
layerId = "FEF53B85-F0C1-4BB8-A611-3AA340A355BB";
shapes = (
{
ref = I;
},
{
pos = (64,171);
ref = dotaccentcomb;
}
);
width = 426;
},
{
associatedMasterId = "6CDB3465-C44F-49AC-BF84-14420C40CC8C";
layerId = "247CFECD-2598-4D35-A3A7-5961DFED04F8";
name = img;
width = 426;
},
{
background = {
shapes = (
{
closed = 1;
nodes = (
(60,-12,l),
(343,-12,l),
(343,88,l),
(251,88,l),
(251,530,l),
(343,530,l),
(343,631,l),
(60,631,l),
(60,530,l),
(151,530,l),
(151,88,l),
(60,88,l)
);
},
{
closed = 1;
nodes = (
(152,692,l),
(253,692,l),
(253,793,l),
(152,793,l)
);
}
);
};
layerId = "6CDB3465-C44F-49AC-BF84-14420C40CC8C";
shapes = (
{
ref = I;
},
{
pos = (52,181);
ref = dotaccentcomb;
}
);
width = 404;
}
);
unicode = 304;
},
{
color = (153,255,154,255);
glyphname = Igrave;
kernLeft = _Iacute;
kernRight = _Iacute;
lastChange = "2023-09-07 13:03:50 +0000";
layers = (
{
anchors = (
{
name = bottom;
pos = (213,-12);
},
{
name = top;
pos = (170,860);
}
);
background = {
anchors = (
{
name = bottom;
pos = (213,-12);
},
{
name = top;
pos = (170,860);
}
);
shapes = (
{
closed = 1;
nodes = (
(61,-11,l),
(365,-11,l),
(365,125,l),
(276,125,l),
(276,501,l),
(365,501,l),
(365,638,l),
(61,638,l),
(61,501,l),
(149,501,l),
(149,125,l),
(61,125,l)
);
},
{
closed = 1;
nodes = (
(128,723,l),
(172,723,l),
(172,681,l),
(255,681,l),
(255,774,l),
(211,774,l),
(211,816,l),
(166,816,l),
(166,860,l),
(84,860,l),
(84,766,l),
(128,766,l)
);
}
);
};
layerId = "FEF53B85-F0C1-4BB8-A611-3AA340A355BB";
shapes = (
{
ref = I;
},
{
pos = (24,171);
ref = gravecomb;
}
);
width = 426;
},
{
anchors = (
{
name = bottom;
pos = (197,-12);
},
{
name = top;
pos = (155,866);
}
);
background = {
anchors = (
{
name = bottom;
pos = (197,-12);
},
{
name = top;
pos = (155,866);
}
);
shapes = (
{
closed = 1;
nodes = (
(60,-12,l),
(343,-12,l),
(343,88,l),
(251,88,l),
(251,530,l),
(343,530,l),
(343,631,l),
(60,631,l),
(60,530,l),
(151,530,l),
(151,88,l),
(60,88,l)
);
},
{
closed = 1;
nodes = (
(127,765,l),
(173,765,l),
(173,721,l),
(228,721,l),
(228,775,l),
(183,775,l),
(183,820,l),
(137,820,l),
(137,866,l),
(82,866,l),
(82,811,l),
(127,811,l)
);
}
);
};
layerId = "6CDB3465-C44F-49AC-BF84-14420C40CC8C";
shapes = (
{
ref = I;
},
{
pos = (24,181);
ref = gravecomb;
}
);
width = 404;
}
);
unicode = 204;
},
{
color = (153,255,154,255);
glyphname = Imacron;
kernLeft = _Itilde;
kernRight = _Itilde;
lastChange = "2023-09-07 13:03:50 +0000";
layers = (
{
anchors = (
{
name = bottom;
pos = (213,-12);
}
);
background = {
anchors = (
{
name = bottom;
pos = (213,-12);
},
{
name = top;
pos = (213,638);
}
);
shapes = (
{
closed = 1;
nodes = (
(61,-11,l),
(365,-11,l),
(365,125,l),
(276,125,l),
(276,501,l),
(365,501,l),
(365,638,l),
(61,638,l),
(61,501,l),
(149,501,l),
(149,125,l),
(61,125,l)
);
},
{
closed = 1;
nodes = (
(59,755,l),
(59,892,l),
(363,892,l),
(363,755,l)
);
}
);
};
layerId = "FEF53B85-F0C1-4BB8-A611-3AA340A355BB";
shapes = (
{
ref = I;
},
{
pos = (61,171);
ref = macroncomb;
}
);
width = 426;
},
{
anchors = (
{
name = bottom;
pos = (197,-12);
}
);
background = {
anchors = (
{
name = bottom;
pos = (197,-12);
},
{
name = top;
pos = (200,631);
}
);
shapes = (
{
closed = 1;
nodes = (
(60,-12,l),
(343,-12,l),
(343,88,l),
(251,88,l),
(251,530,l),
(343,530,l),
(343,631,l),
(60,631,l),
(60,530,l),
(151,530,l),
(151,88,l),
(60,88,l)
);
},
{
closed = 1;
nodes = (
(62,705,l),
(62,806,l),
(344,806,l),
(344,705,l)
);
}
);
};
layerId = "6CDB3465-C44F-49AC-BF84-14420C40CC8C";
shapes = (
{
ref = I;
},
{
pos = (55,181);
ref = macroncomb;
}
);
width = 404;
}
);
unicode = 298;
},
{
color = (153,255,154,255);
glyphname = Iogonek;
kernLeft = _I;
kernRight = _I;
lastChange = "2023-09-07 13:03:55 +0000";
layers = (
{
anchors = (
{
name = top;
pos = (213,638);
}
);
background = {
anchors = (
{
name = bottom;
pos = (213,-12);
},
{
name = top;
pos = (213,638);
}
);
shapes = (
{
closed = 1;
nodes = (
(61,-11,l),
(365,-11,l),
(365,125,l),
(276,125,l),
(276,501,l),
(365,501,l),
(365,638,l),
(61,638,l),
(61,501,l),
(149,501,l),
(149,125,l),
(61,125,l)
);
},
{
closed = 1;
nodes = (
(100,-158,l),
(144,-158,l),
(144,-201,l),
(315,-201,l),
(315,-158,l),
(359,-158,l),
(359,-65,l),
(277,-65,l),
(277,-107,l),
(227,-107,l),
(227,-90,l),
(227,-90,l),
(227,-73,l),
(271,-73,l),
(271,27,l),
(144,27,l),
(144,-44,l),
(144,-44,l),
(144,-65,l),
(100,-65,l)
);
}
);
};
layerId = "FEF53B85-F0C1-4BB8-A611-3AA340A355BB";
shapes = (
{
ref = I;
},
{
pos = (80,-12);
ref = ogonekcomb;
}
);
width = 426;
},
{
anchors = (
{
name = top;
pos = (200,631);
}
);
background = {
anchors = (
{
name = bottom;
pos = (197,-12);
},
{
name = top;
pos = (200,631);
}
);
shapes = (
{
closed = 1;
nodes = (
(60,-12,l),
(343,-12,l),
(343,88,l),
(251,88,l),
(251,530,l),
(343,530,l),
(343,631,l),
(60,631,l),
(60,530,l),
(151,530,l),
(151,88,l),
(60,88,l)
);
},
{
closed = 1;
nodes = (
(80,-167,l),
(126,-167,l),
(126,-212,l),
(272,-212,l),
(272,-167,l),
(317,-167,l),
(317,-112,l),
(262,-112,l),
(262,-157,l),
(136,-157,l),
(136,-122,l),
(181,-122,l),
(181,-77,l),
(226,-77,l),
(226,26,l),
(171,26,l),
(171,-67,l),
(126,-67,l),
(126,-112,l),
(80,-112,l)
);
}
);
};
layerId = "6CDB3465-C44F-49AC-BF84-14420C40CC8C";
shapes = (
{
ref = I;
},
{
pos = (49,-12);
ref = ogonekcomb;
}
);
width = 404;
}
);
unicode = 302;
},
{
color = (153,255,154,255);
glyphname = Itilde;
kernLeft = _Itilde;
kernRight = _Itilde;
lastChange = "2023-09-07 13:03:50 +0000";
layers = (
{
anchors = (
{
name = bottom;
pos = (213,-12);
}
);
background = {
anchors = (
{
name = bottom;
pos = (213,-12);
},
{
name = top;
pos = (213,638);
}
);
shapes = (
{
closed = 1;
nodes = (
(61,-11,l),
(365,-11,l),
(365,125,l),
(276,125,l),
(276,501,l),
(365,501,l),
(365,638,l),
(61,638,l),
(61,501,l),
(149,501,l),
(149,125,l),
(61,125,l)
);
},
{
closed = 1;
nodes = (
(76,668,l),
(160,668,l),
(160,713,l),
(167,713,l),
(167,668,l),
(345,668,l),
(345,807,l),
(260,807,l),
(260,764,l),
(253,764,l),
(253,807,l),
(76,807,l)
);
}
);
};
layerId = "FEF53B85-F0C1-4BB8-A611-3AA340A355BB";
shapes = (
{
ref = I;
},
{
pos = (61,171);
ref = tildecomb;
}
);
width = 426;
},
{
anchors = (
{
name = bottom;
pos = (197,-12);
}
);
background = {
anchors = (
{
name = bottom;
pos = (197,-12);
},
{
name = top;
pos = (200,631);
}
);
shapes = (
{
closed = 1;
nodes = (
(60,-12,l),
(343,-12,l),
(343,88,l),
(251,88,l),
(251,530,l),
(343,530,l),
(343,631,l),
(60,631,l),
(60,530,l),
(151,530,l),
(151,88,l),
(60,88,l)
);
},
{
closed = 1;
nodes = (
(69,692,l),
(126,692,l),
(126,739,l),
(163,739,l),
(163,692,l),
(316,692,l),
(316,795,l),
(258,795,l),
(258,749,l),
(221,749,l),
(221,795,l),
(69,795,l)
);
}
);
};
layerId = "6CDB3465-C44F-49AC-BF84-14420C40CC8C";
shapes = (
{
ref = I;
},
{
pos = (44,181);
ref = tildecomb;
}
);
width = 404;
}
);
unicode = 296;
},
{
glyphname = J;
kernRight = _J;
lastChange = "2023-09-07 13:04:06 +0000";
layers = (
{
anchors = (
{
name = bottom;
pos = (302,0);
},
{
name = top;
pos = (302,638);
}
);
background = {
anchors = (
{
name = bottom;
pos = (292,0);
},
{
name = top;
pos = (302,638);
}
);
shapes = (
{
closed = 1;
nodes = (
(61,74,l),
(149,74,l),
(149,-11,l),
(453,-11,l),
(453,74,l),
(542,74,l),
(542,552,l),
(453,552,l),
(453,638,l),
(149,638,l),
(149,501,l),
(414,501,l),
(414,125,l),
(188,125,l),
(188,297,l),
(61,297,l)
);
}
);
};
layerId = "FEF53B85-F0C1-4BB8-A611-3AA340A355BB";
shapes = (
{
closed = 1;
nodes = (
(453,-11,l),
(453,74,l),
(542,74,l),
(542,552,l),
(453,552,l),
(453,638,l),
(149,638,l),
(149,501,l),
(414,501,l),
(414,125,l),
(188,125,l),
(188,297,l),
(61,297,l),
(61,74,l),
(149,74,l),
(149,-11,l)
);
}
);
width = 603;
},
{
associatedMasterId = "6CDB3465-C44F-49AC-BF84-14420C40CC8C";
layerId = "247CFECD-2598-4D35-A3A7-5961DFED04F8";
name = img;
width = 603;
},
{
anchors = (
{
name = bottom;
pos = (293,0);
},
{
name = top;
pos = (293,631);
}
);
background = {
anchors = (
{
name = bottom;
pos = (292,0);
},
{
name = top;
pos = (300,631);
}
);
shapes = (
{
closed = 1;
nodes = (
(60,78,l),
(151,78,l),
(151,-12,l),
(433,-12,l),
(433,78,l),
(525,78,l),
(525,540,l),
(433,540,l),
(433,631,l),
(151,631,l),
(151,530,l),
(423,530,l),
(423,88,l),
(161,88,l),
(161,270,l),
(60,270,l)
);
}
);
};
layerId = "6CDB3465-C44F-49AC-BF84-14420C40CC8C";
shapes = (
{
closed = 1;
nodes = (
(433,-12,l),
(433,78,l),
(525,78,l),
(525,540,l),
(433,540,l),
(433,631,l),
(151,631,l),
(151,530,l),
(423,530,l),
(423,88,l),
(161,88,l),
(161,270,l),
(60,270,l),
(60,78,l),
(151,78,l),
(151,-12,l)
);
}
);
width = 586;
}
);
unicode = 74;
},
{
color = (153,255,154,255);
glyphname = Jcircumflex;
kernRight = _Obreve;
lastChange = "2023-09-07 13:04:06 +0000";
layers = (
{
anchors = (
{
name = bottom;
pos = (292,0);
}
);
background = {
anchors = (
{
name = bottom;
pos = (292,0);
},
{
name = top;
pos = (302,638);
}
);
shapes = (
{
closed = 1;
nodes = (
(61,74,l),
(149,74,l),
(149,-11,l),
(453,-11,l),
(453,74,l),
(542,74,l),
(542,552,l),
(453,552,l),
(453,638,l),
(149,638,l),
(149,501,l),
(414,501,l),
(414,125,l),
(188,125,l),
(188,297,l),
(61,297,l)
);
},
{
closed = 1;
nodes = (
(217,672,l),
(299,672,l),
(299,715,l),
(305,715,l),
(305,672,l),
(388,672,l),
(388,765,l),
(344,765,l),
(344,809,l),
(261,809,l),
(261,765,l),
(217,765,l)
);
}
);
};
layerId = "FEF53B85-F0C1-4BB8-A611-3AA340A355BB";
shapes = (
{
ref = J;
},
{
pos = (153,171);
ref = circumflexcomb;
}
);
width = 603;
},
{
anchors = (
{
name = bottom;
pos = (292,0);
}
);
background = {
anchors = (
{
name = bottom;
pos = (292,0);
},
{
name = top;
pos = (300,631);
}
);
shapes = (
{
closed = 1;
nodes = (
(60,78,l),
(151,78,l),
(151,-12,l),
(433,-12,l),
(433,78,l),
(525,78,l),
(525,540,l),
(433,540,l),
(433,631,l),
(151,631,l),
(151,530,l),
(423,530,l),
(423,88,l),
(161,88,l),
(161,270,l),
(60,270,l)
);
},
{
closed = 1;
nodes = (
(227,694,l),
(282,694,l),
(282,740,l),
(318,740,l),
(318,694,l),
(373,694,l),
(373,749,l),
(328,749,l),
(328,795,l),
(272,795,l),
(272,749,l),
(227,749,l)
);
}
);
};
layerId = "6CDB3465-C44F-49AC-BF84-14420C40CC8C";
shapes = (
{
ref = J;
},
{
pos = (143,181);
ref = circumflexcomb;
}
);
width = 586;
}
);
unicode = 308;
},
{
glyphname = K;
kernLeft = _K;
kernRight = _K1;
lastChange = "2023-09-07 13:04:15 +0000";
layers = (
{
anchors = (
{
name = bottom;
pos = (302,0);
},
{
name = top;
pos = (302,638);
}
);
background = {
anchors = (
{
name = bottom;
pos = (302,-12);
},
{
name = top;
pos = (319,638);
}
);
shapes = (
{
closed = 1;
nodes = (
(61,-11,l),
(188,-11,l),
(188,246,l),
(237,246,l),
(237,160,l),
(326,160,l),
(326,74,l),
(414,74,l),
(414,-11,l),
(542,-11,l),
(542,125,l),
(453,125,l),
(453,211,l),
(365,211,l),
(365,297,l),
(276,297,l),
(276,331,l),
(365,331,l),
(365,416,l),
(453,416,l),
(453,501,l),
(542,501,l),
(542,638,l),
(414,638,l),
(414,552,l),
(326,552,l),
(326,467,l),
(237,467,l),
(237,381,l),
(188,381,l),
(188,501,l),
(276,501,l),
(276,638,l),
(149,638,l),
(149,552,l),
(61,552,l)
);
}
);
};
layerId = "FEF53B85-F0C1-4BB8-A611-3AA340A355BB";
shapes = (
{
closed = 1;
nodes = (
(188,-11,l),
(188,246,l),
(237,246,l),
(237,160,l),
(326,160,l),
(326,74,l),
(414,74,l),
(414,-11,l),
(542,-11,l),
(542,125,l),
(453,125,l),
(453,211,l),
(365,211,l),
(365,297,l),
(276,297,l),
(276,331,l),
(365,331,l),
(365,416,l),
(453,416,l),
(453,501,l),
(542,501,l),
(542,638,l),
(414,638,l),
(414,552,l),
(326,552,l),
(326,467,l),
(237,467,l),
(237,381,l),
(188,381,l),
(188,501,l),
(276,501,l),
(276,638,l),
(149,638,l),
(149,552,l),
(61,552,l),
(61,-11,l)
);
}
);
width = 603;
},
{
associatedMasterId = "6CDB3465-C44F-49AC-BF84-14420C40CC8C";
layerId = "247CFECD-2598-4D35-A3A7-5961DFED04F8";
name = img;
width = 603;
},
{
anchors = (
{
name = bottom;
pos = (293,0);
},
{
name = top;
pos = (293,631);
}
);
background = {
anchors = (
{
name = bottom;
pos = (293,-12);
},
{
name = top;
pos = (293,631);
}
);
shapes = (
{
closed = 1;
nodes = (
(60,-12,l),
(161,-12,l),
(161,260,l),
(241,260,l),
(241,169,l),
(333,169,l),
(333,78,l),
(423,78,l),
(423,-12,l),
(525,-12,l),
(525,88,l),
(433,88,l),
(433,179,l),
(343,179,l),
(343,270,l),
(251,270,l),
(251,350,l),
(343,350,l),
(343,440,l),
(433,440,l),
(433,530,l),
(525,530,l),
(525,631,l),
(423,631,l),
(423,540,l),
(333,540,l),
(333,450,l),
(241,450,l),
(241,359,l),
(161,359,l),
(161,530,l),
(251,530,l),
(251,631,l),
(151,631,l),
(151,540,l),
(60,540,l)
);
}
);
};
layerId = "6CDB3465-C44F-49AC-BF84-14420C40CC8C";
shapes = (
{
closed = 1;
nodes = (
(161,-12,l),
(161,260,l),
(241,260,l),
(241,169,l),
(333,169,l),
(333,78,l),
(423,78,l),
(423,-12,l),
(525,-12,l),
(525,88,l),
(433,88,l),
(433,179,l),
(343,179,l),
(343,270,l),
(251,270,l),
(251,350,l),
(343,350,l),
(343,440,l),
(433,440,l),
(433,530,l),
(525,530,l),
(525,631,l),
(423,631,l),
(423,540,l),
(333,540,l),
(333,450,l),
(241,450,l),
(241,359,l),
(161,359,l),
(161,530,l),
(251,530,l),
(251,631,l),
(151,631,l),
(151,540,l),
(60,540,l),
(60,-12,l)
);
}
);
width = 586;
}
);
unicode = 75;
},
{
color = (153,255,154,255);
glyphname = Kcommaaccent;
kernLeft = _K;
kernRight = _K1;
lastChange = "2023-09-07 12:58:16 +0000";
layers = (
{
anchors = (
{
name = top;
pos = (319,638);
}
);
background = {
anchors = (
{
name = bottom;
pos = (302,-12);
},
{
name = top;
pos = (319,638);
}
);
shapes = (
{
closed = 1;
nodes = (
(61,-11,l),
(188,-11,l),
(188,246,l),
(237,246,l),
(237,160,l),
(326,160,l),
(326,74,l),
(414,74,l),
(414,-11,l),
(542,-11,l),
(542,125,l),
(453,125,l),
(453,211,l),
(365,211,l),
(365,297,l),
(276,297,l),
(276,331,l),
(365,331,l),
(365,416,l),
(453,416,l),
(453,501,l),
(542,501,l),
(542,638,l),
(414,638,l),
(414,552,l),
(326,552,l),
(326,467,l),
(237,467,l),
(237,381,l),
(188,381,l),
(188,501,l),
(276,501,l),
(276,638,l),
(149,638,l),
(149,552,l),
(61,552,l)
);
},
{
closed = 1;
nodes = (
(279,-250,l),
(279,-186,l),
(279,-185,l),
(279,-165,l),
(235,-165,l),
(235,-28,l),
(362,-28,l),
(362,-114,l),
(406,-114,l),
(406,-206,l),
(362,-206,l),
(362,-250,l)
);
}
);
};
layerId = "FEF53B85-F0C1-4BB8-A611-3AA340A355BB";
shapes = (
{
ref = K;
},
{
pos = (147,0);
ref = commaaccentcomb;
}
);
width = 603;
},
{
anchors = (
{
name = top;
pos = (293,631);
}
);
background = {
anchors = (
{
name = bottom;
pos = (293,-12);
},
{
name = top;
pos = (293,631);
}
);
shapes = (
{
closed = 1;
nodes = (
(60,-12,l),
(161,-12,l),
(161,260,l),
(241,260,l),
(241,169,l),
(333,169,l),
(333,78,l),
(423,78,l),
(423,-12,l),
(525,-12,l),
(525,88,l),
(433,88,l),
(433,179,l),
(343,179,l),
(343,270,l),
(251,270,l),
(251,350,l),
(343,350,l),
(343,440,l),
(433,440,l),
(433,530,l),
(525,530,l),
(525,631,l),
(423,631,l),
(423,540,l),
(333,540,l),
(333,450,l),
(241,450,l),
(241,359,l),
(161,359,l),
(161,530,l),
(251,530,l),
(251,631,l),
(151,631,l),
(151,540,l),
(60,540,l)
);
},
{
closed = 1;
nodes = (
(273,-224,l),
(273,-168,l),
(319,-168,l),
(319,-134,l),
(228,-134,l),
(228,-33,l),
(329,-33,l),
(329,-124,l),
(374,-124,l),
(374,-178,l),
(329,-178,l),
(329,-224,l)
);
}
);
};
layerId = "6CDB3465-C44F-49AC-BF84-14420C40CC8C";
shapes = (
{
ref = K;
},
{
pos = (147,0);
ref = commaaccentcomb;
}
);
width = 586;
}
);
unicode = 310;
},
{
glyphname = L;
kernLeft = _L;
kernRight = _L1;
lastChange = "2023-09-07 13:04:31 +0000";
layers = (
{
anchors = (
{
name = bottom;
pos = (302,0);
},
{
name = center;
pos = (302,350);
},
{
name = top;
pos = (302,700);
},
{
name = topright;
pos = (583,700);
}
);
background = {
anchors = (
{
name = bottom;
pos = (301,-28);
},
{
name = top;
pos = (301,638);
}
);
shapes = (
{
closed = 1;
nodes = (
(61,74,l),
(149,74,l),
(149,-11,l),
(453,-11,l),
(453,74,l),
(542,74,l),
(542,211,l),
(414,211,l),
(414,125,l),
(188,125,l),
(188,638,l),
(61,638,l)
);
}
);
};
layerId = "FEF53B85-F0C1-4BB8-A611-3AA340A355BB";
shapes = (
{
closed = 1;
nodes = (
(453,-11,l),
(453,74,l),
(542,74,l),
(542,211,l),
(414,211,l),
(414,125,l),
(188,125,l),
(188,638,l),
(61,638,l),
(61,74,l),
(149,74,l),
(149,-11,l)
);
}
);
width = 603;
},
{
associatedMasterId = "6CDB3465-C44F-49AC-BF84-14420C40CC8C";
layerId = "247CFECD-2598-4D35-A3A7-5961DFED04F8";
name = img;
width = 603;
},
{
anchors = (
{
name = bottom;
pos = (293,0);
},
{
name = center;
pos = (293,350);
},
{
name = top;
pos = (293,631);
},
{
name = topright;
pos = (566,700);
}
);
background = {
anchors = (
{
name = bottom;
pos = (292,-37);
},
{
name = top;
pos = (293,633);
}
);
shapes = (
{
closed = 1;
nodes = (
(60,78,l),
(151,78,l),
(151,-12,l),
(433,-12,l),
(433,78,l),
(525,78,l),
(525,179,l),
(423,179,l),
(423,88,l),
(161,88,l),
(161,631,l),
(60,631,l)
);
}
);
};
layerId = "6CDB3465-C44F-49AC-BF84-14420C40CC8C";
shapes = (
{
closed = 1;
nodes = (
(433,-12,l),
(433,78,l),
(525,78,l),
(525,179,l),
(423,179,l),
(423,88,l),
(161,88,l),
(161,631,l),
(60,631,l),
(60,78,l),
(151,78,l),
(151,-12,l)
);
}
);
width = 586;
}
);
unicode = 76;
},
{
color = (153,255,154,255);
glyphname = Lacute;
kernLeft = _Ldot;
kernRight = _Ldot1;
lastChange = "2023-09-07 13:09:28 +0000";
layers = (
{
background = {
anchors = (
{
name = bottom;
pos = (301,-28);
},
{
name = top;
pos = (301,638);
}
);
shapes = (
{
closed = 1;
nodes = (
(61,74,l),
(149,74,l),
(149,-11,l),
(453,-11,l),
(453,74,l),
(542,74,l),
(542,211,l),
(414,211,l),
(414,125,l),
(188,125,l),
(188,638,l),
(61,638,l)
);
},
{
closed = 1;
nodes = (
(341,723,l),
(341,766,l),
(385,766,l),
(385,860,l),
(303,860,l),
(303,816,l),
(258,816,l),
(258,774,l),
(214,774,l),
(214,681,l),
(297,681,l),
(297,723,l)
);
}
);
};
layerId = "FEF53B85-F0C1-4BB8-A611-3AA340A355BB";
shapes = (
{
ref = L;
},
{
pos = (150,233);
ref = acutecomb;
}
);
width = 603;
},
{
background = {
anchors = (
{
name = bottom;
pos = (292,-37);
},
{
name = left;
pos = (298,300);
},
{
name = top;
pos = (293,633);
}
);
shapes = (
{
closed = 1;
nodes = (
(60,78,l),
(151,78,l),
(151,-12,l),
(433,-12,l),
(433,78,l),
(525,78,l),
(525,179,l),
(423,179,l),
(423,88,l),
(161,88,l),
(161,631,l),
(60,631,l)
);
},
{
closed = 1;
nodes = (
(306,750,l),
(306,796,l),
(351,796,l),
(351,851,l),
(296,851,l),
(296,805,l),
(250,805,l),
(250,760,l),
(205,760,l),
(205,706,l),
(260,706,l),
(260,750,l)
);
}
);
};
layerId = "6CDB3465-C44F-49AC-BF84-14420C40CC8C";
shapes = (
{
ref = L;
},
{
pos = (128,181);
ref = acutecomb;
}
);
width = 586;
}
);
unicode = 313;
},
{
color = (153,255,154,255);
glyphname = Lcaron;
kernLeft = _Ldot;
kernRight = _Ldot1;
lastChange = "2023-09-07 13:09:28 +0000";
layers = (
{
background = {
anchors = (
{
name = bottom;
pos = (301,-28);
},
{
name = top;
pos = (301,638);
}
);
shapes = (
{
closed = 1;
nodes = (
(61,74,l),
(149,74,l),
(149,-11,l),
(453,-11,l),
(453,74,l),
(542,74,l),
(542,211,l),
(414,211,l),
(414,125,l),
(188,125,l),
(188,638,l),
(61,638,l)
);
},
{
closed = 1;
nodes = (
(260,649,l),
(260,713,l),
(260,713,l),
(260,734,l),
(216,734,l),
(216,871,l),
(343,871,l),
(343,785,l),
(387,785,l),
(387,692,l),
(343,692,l),
(343,649,l)
);
}
);
};
layerId = "FEF53B85-F0C1-4BB8-A611-3AA340A355BB";
shapes = (
{
ref = L;
},
{
pos = (153,233);
ref = caroncomb.alt;
}
);
width = 603;
},
{
background = {
anchors = (
{
name = bottom;
pos = (292,-37);
},
{
name = left;
pos = (298,300);
},
{
name = top;
pos = (293,633);
}
);
shapes = (
{
closed = 1;
nodes = (
(60,78,l),
(151,78,l),
(151,-12,l),
(433,-12,l),
(433,78,l),
(525,78,l),
(525,179,l),
(423,179,l),
(423,88,l),
(161,88,l),
(161,631,l),
(60,631,l)
);
},
{
closed = 1;
nodes = (
(265,590,l),
(265,646,l),
(311,646,l),
(311,680,l),
(220,680,l),
(220,781,l),
(321,781,l),
(321,690,l),
(366,690,l),
(366,636,l),
(321,636,l),
(321,590,l)
);
}
);
};
layerId = "6CDB3465-C44F-49AC-BF84-14420C40CC8C";
shapes = (
{
ref = L;
},
{
pos = (143,181);
ref = caroncomb.alt;
}
);
width = 586;
}
);
unicode = 317;
},
{
color = (153,255,154,255);
glyphname = Lcommaaccent;
kernLeft = _L;
kernRight = _L1;
lastChange = "2023-09-07 13:09:28 +0000";
layers = (
{
background = {
anchors = (
{
name = bottom;
pos = (301,-28);
},
{
name = top;
pos = (301,638);
}
);
shapes = (
{
closed = 1;
nodes = (
(61,74,l),
(149,74,l),
(149,-11,l),
(453,-11,l),
(453,74,l),
(542,74,l),
(542,211,l),
(414,211,l),
(414,125,l),
(188,125,l),
(188,638,l),
(61,638,l)
);
},
{
closed = 1;
nodes = (
(278,-266,l),
(278,-202,l),
(278,-201,l),
(278,-181,l),
(234,-181,l),
(234,-44,l),
(361,-44,l),
(361,-130,l),
(405,-130,l),
(405,-222,l),
(361,-222,l),
(361,-266,l)
);
}
);
};
layerId = "FEF53B85-F0C1-4BB8-A611-3AA340A355BB";
shapes = (
{
ref = L;
},
{
pos = (147,0);
ref = commaaccentcomb;
}
);
width = 603;
},
{
background = {
anchors = (
{
name = bottom;
pos = (292,-37);
},
{
name = left;
pos = (298,300);
},
{
name = top;
pos = (293,633);
}
);
shapes = (
{
closed = 1;
nodes = (
(60,78,l),
(151,78,l),
(151,-12,l),
(433,-12,l),
(433,78,l),
(525,78,l),
(525,179,l),
(423,179,l),
(423,88,l),
(161,88,l),
(161,631,l),
(60,631,l)
);
},
{
closed = 1;
nodes = (
(272,-249,l),
(272,-193,l),
(318,-193,l),
(318,-159,l),
(227,-159,l),
(227,-58,l),
(328,-58,l),
(328,-149,l),
(373,-149,l),
(373,-203,l),
(328,-203,l),
(328,-249,l)
);
}
);
};
layerId = "6CDB3465-C44F-49AC-BF84-14420C40CC8C";
shapes = (
{
ref = L;
},
{
pos = (147,0);
ref = commaaccentcomb;
}
);
width = 586;
}
);
unicode = 315;
},
{
color = (153,255,154,255);
glyphname = Ldot;
kernLeft = _Ldot;
kernRight = _Ldot1;
lastChange = "2023-09-07 13:09:28 +0000";
layers = (
{
background = {
anchors = (
{
name = bottom;
pos = (301,-28);
},
{
name = top;
pos = (301,638);
}
);
shapes = (
{
closed = 1;
nodes = (
(61,74,l),
(149,74,l),
(149,-11,l),
(453,-11,l),
(453,74,l),
(542,74,l),
(542,211,l),
(414,211,l),
(414,125,l),
(188,125,l),
(188,638,l),
(61,638,l)
);
},
{
closed = 1;
nodes = (
(238,385,l),
(238,521,l),
(365,521,l),
(365,385,l)
);
}
);
};
layerId = "FEF53B85-F0C1-4BB8-A611-3AA340A355BB";
shapes = (
{
ref = L;
},
{
ref = periodcentered.loclCAT.case;
}
);
width = 603;
},
{
background = {
anchors = (
{
name = bottom;
pos = (292,-37);
},
{
name = left;
pos = (298,300);
},
{
name = top;
pos = (293,633);
}
);
shapes = (
{
closed = 1;
nodes = (
(60,78,l),
(151,78,l),
(151,-12,l),
(433,-12,l),
(433,78,l),
(525,78,l),
(525,179,l),
(423,179,l),
(423,88,l),
(161,88,l),
(161,631,l),
(60,631,l)
);
},
{
closed = 1;
nodes = (
(243,416,l),
(243,516,l),
(344,516,l),
(344,416,l)
);
}
);
};
layerId = "6CDB3465-C44F-49AC-BF84-14420C40CC8C";
shapes = (
{
ref = L;
},
{
ref = periodcentered.loclCAT.case;
}
);
width = 586;
}
);
unicode = 319;
},
{
glyphname = Lslash;
lastChange = "2023-09-07 12:36:37 +0000";
layers = (
{
background = {
shapes = (
{
closed = 1;
nodes = (
(71,74,l),
(159,74,l),
(159,-11,l),
(463,-11,l),
(463,74,l),
(552,74,l),
(552,211,l),
(424,211,l),
(424,125,l),
(198,125,l),
(198,322,l),
(323,484,l),
(243,542,l),
(198,485,l),
(198,638,l),
(71,638,l),
(71,320,l),
(-24,200,l),
(57,139,l),
(71,157,l)
);
}
);
};
layerId = "FEF53B85-F0C1-4BB8-A611-3AA340A355BB";
shapes = (
{
closed = 1;
nodes = (
(463,-11,l),
(463,74,l),
(552,74,l),
(552,211,l),
(424,211,l),
(424,125,l),
(198,125,l),
(198,322,l),
(323,484,l),
(243,542,l),
(198,485,l),
(198,638,l),
(71,638,l),
(71,320,l),
(-24,200,l),
(57,139,l),
(71,157,l),
(71,74,l),
(159,74,l),
(159,-11,l)
);
}
);
width = 613;
},
{
associatedMasterId = "6CDB3465-C44F-49AC-BF84-14420C40CC8C";
layerId = "247CFECD-2598-4D35-A3A7-5961DFED04F8";
name = img;
width = 613;
},
{
background = {
shapes = (
{
closed = 1;
nodes = (
(62,78,l),
(153,78,l),
(153,-12,l),
(435,-12,l),
(435,78,l),
(527,78,l),
(527,179,l),
(425,179,l),
(425,88,l),
(163,88,l),
(163,329,l),
(280,485,l),
(226,525,l),
(163,442,l),
(163,631,l),
(62,631,l),
(62,307,l),
(-24,194,l),
(31,152,l),
(62,194,l)
);
}
);
};
layerId = "6CDB3465-C44F-49AC-BF84-14420C40CC8C";
shapes = (
{
closed = 1;
nodes = (
(435,-12,l),
(435,78,l),
(527,78,l),
(527,179,l),
(425,179,l),
(425,88,l),
(163,88,l),
(163,329,l),
(280,485,l),
(226,525,l),
(163,442,l),
(163,631,l),
(62,631,l),
(62,307,l),
(-24,194,l),
(31,152,l),
(62,194,l),
(62,78,l),
(153,78,l),
(153,-12,l)
);
}
);
width = 587;
}
);
unicode = 321;
},
{
glyphname = M;
kernLeft = _K;
kernRight = _M;
lastChange = "2023-09-07 12:38:49 +0000";
layers = (
{
anchors = (
{
name = bottom;
pos = (390,0);
},
{
name = top;
pos = (390,700);
}
);
background = {
shapes = (
{
closed = 1;
nodes = (
(61,-11,l),
(188,-11,l),
(188,501,l),
(237,501,l),
(237,331,l),
(326,331,l),
(326,74,l),
(453,74,l),
(453,331,l),
(542,331,l),
(542,501,l),
(592,501,l),
(592,-11,l),
(718,-11,l),
(718,552,l),
(631,552,l),
(631,638,l),
(503,638,l),
(503,552,l),
(414,552,l),
(414,381,l),
(365,381,l),
(365,552,l),
(276,552,l),
(276,638,l),
(149,638,l),
(149,552,l),
(61,552,l)
);
}
);
};
layerId = "FEF53B85-F0C1-4BB8-A611-3AA340A355BB";
shapes = (
{
closed = 1;
nodes = (
(188,-11,l),
(188,501,l),
(237,501,l),
(237,331,l),
(326,331,l),
(326,74,l),
(453,74,l),
(453,331,l),
(542,331,l),
(542,501,l),
(592,501,l),
(592,-11,l),
(718,-11,l),
(718,552,l),
(631,552,l),
(631,638,l),
(503,638,l),
(503,552,l),
(414,552,l),
(414,381,l),
(365,381,l),
(365,552,l),
(276,552,l),
(276,638,l),
(149,638,l),
(149,552,l),
(61,552,l),
(61,-11,l)
);
}
);
width = 779;
},
{
associatedMasterId = "6CDB3465-C44F-49AC-BF84-14420C40CC8C";
layerId = "247CFECD-2598-4D35-A3A7-5961DFED04F8";
name = img;
width = 779;
},
{
anchors = (
{
name = bottom;
pos = (384,0);
},
{
name = top;
pos = (384,700);
}
);
background = {
shapes = (
{
closed = 1;
nodes = (
(60,-12,l),
(161,-12,l),
(161,530,l),
(241,530,l),
(241,350,l),
(333,350,l),
(333,78,l),
(433,78,l),
(433,350,l),
(525,350,l),
(525,530,l),
(606,530,l),
(606,-12,l),
(706,-12,l),
(706,540,l),
(616,540,l),
(616,631,l),
(515,631,l),
(515,540,l),
(423,540,l),
(423,359,l),
(343,359,l),
(343,540,l),
(251,540,l),
(251,631,l),
(151,631,l),
(151,540,l),
(60,540,l)
);
}
);
};
layerId = "6CDB3465-C44F-49AC-BF84-14420C40CC8C";
shapes = (
{
closed = 1;
nodes = (
(161,-12,l),
(161,530,l),
(241,530,l),
(241,350,l),
(333,350,l),
(333,78,l),
(433,78,l),
(433,350,l),
(525,350,l),
(525,530,l),
(606,530,l),
(606,-12,l),
(706,-12,l),
(706,540,l),
(616,540,l),
(616,631,l),
(515,631,l),
(515,540,l),
(423,540,l),
(423,359,l),
(343,359,l),
(343,540,l),
(251,540,l),
(251,631,l),
(151,631,l),
(151,540,l),
(60,540,l),
(60,-12,l)
);
}
);
width = 767;
}
);
unicode = 77;
},
{
glyphname = N;
kernLeft = _D;
kernRight = _H;
lastChange = "2023-09-07 12:38:49 +0000";
layers = (
{
anchors = (
{
name = bottom;
pos = (302,0);
},
{
name = top;
pos = (302,700);
}
);
background = {
anchors = (
{
name = bottom;
pos = (299,-12);
},
{
name = top;
pos = (299,638);
}
);
shapes = (
{
closed = 1;
nodes = (
(61,-11,l),
(188,-11,l),
(188,416,l),
(237,416,l),
(237,160,l),
(326,160,l),
(326,74,l),
(414,74,l),
(414,-11,l),
(542,-11,l),
(542,638,l),
(414,638,l),
(414,211,l),
(365,211,l),
(365,467,l),
(276,467,l),
(276,552,l),
(188,552,l),
(188,638,l),
(61,638,l)
);
}
);
};
layerId = "FEF53B85-F0C1-4BB8-A611-3AA340A355BB";
shapes = (
{
closed = 1;
nodes = (
(188,-11,l),
(188,416,l),
(237,416,l),
(237,160,l),
(326,160,l),
(326,74,l),
(414,74,l),
(414,-11,l),
(542,-11,l),
(542,638,l),
(414,638,l),
(414,211,l),
(365,211,l),
(365,467,l),
(276,467,l),
(276,552,l),
(188,552,l),
(188,638,l),
(61,638,l),
(61,-11,l)
);
}
);
width = 603;
},
{
associatedMasterId = "6CDB3465-C44F-49AC-BF84-14420C40CC8C";
layerId = "247CFECD-2598-4D35-A3A7-5961DFED04F8";
name = img;
width = 603;
},
{
anchors = (
{
name = bottom;
pos = (293,0);
},
{
name = top;
pos = (293,700);
}
);
background = {
anchors = (
{
name = bottom;
pos = (293,-12);
},
{
name = top;
pos = (293,631);
}
);
shapes = (
{
closed = 1;
nodes = (
(60,-12,l),
(161,-12,l),
(161,440,l),
(241,440,l),
(241,169,l),
(333,169,l),
(333,78,l),
(423,78,l),
(423,-12,l),
(525,-12,l),
(525,631,l),
(423,631,l),
(423,179,l),
(343,179,l),
(343,450,l),
(251,450,l),
(251,540,l),
(161,540,l),
(161,631,l),
(60,631,l)
);
}
);
};
layerId = "6CDB3465-C44F-49AC-BF84-14420C40CC8C";
shapes = (
{
closed = 1;
nodes = (
(161,-12,l),
(161,440,l),
(241,440,l),
(241,169,l),
(333,169,l),
(333,78,l),
(423,78,l),
(423,-12,l),
(525,-12,l),
(525,631,l),
(423,631,l),
(423,179,l),
(343,179,l),
(343,450,l),
(251,450,l),
(251,540,l),
(161,540,l),
(161,631,l),
(60,631,l),
(60,-12,l)
);
}
);
width = 586;
}
);
unicode = 78;
},
{
color = (153,255,154,255);
glyphname = Nacute;
kernLeft = _Dcaron;
kernRight = _Nacute;
lastChange = "2023-09-07 12:48:38 +0000";
layers = (
{
anchors = (
{
name = bottom;
pos = (299,-12);
}
);
background = {
anchors = (
{
name = bottom;
pos = (299,-12);
},
{
name = top;
pos = (299,638);
}
);
shapes = (
{
closed = 1;
nodes = (
(61,-11,l),
(188,-11,l),
(188,416,l),
(237,416,l),
(237,160,l),
(326,160,l),
(326,74,l),
(414,74,l),
(414,-11,l),
(542,-11,l),
(542,638,l),
(414,638,l),
(414,211,l),
(365,211,l),
(365,467,l),
(276,467,l),
(276,552,l),
(188,552,l),
(188,638,l),
(61,638,l)
);
},
{
closed = 1;
nodes = (
(339,723,l),
(339,766,l),
(383,766,l),
(383,860,l),
(301,860,l),
(301,816,l),
(256,816,l),
(256,774,l),
(212,774,l),
(212,681,l),
(295,681,l),
(295,723,l)
);
}
);
};
layerId = "FEF53B85-F0C1-4BB8-A611-3AA340A355BB";
shapes = (
{
ref = N;
},
{
pos = (150,233);
ref = acutecomb;
}
);
width = 603;
},
{
anchors = (
{
name = bottom;
pos = (293,-12);
}
);
background = {
anchors = (
{
name = bottom;
pos = (293,-12);
},
{
name = top;
pos = (293,631);
}
);
shapes = (
{
closed = 1;
nodes = (
(60,-12,l),
(161,-12,l),
(161,440,l),
(241,440,l),
(241,169,l),
(333,169,l),
(333,78,l),
(423,78,l),
(423,-12,l),
(525,-12,l),
(525,631,l),
(423,631,l),
(423,179,l),
(343,179,l),
(343,450,l),
(251,450,l),
(251,540,l),
(161,540,l),
(161,631,l),
(60,631,l)
);
},
{
closed = 1;
nodes = (
(306,748,l),
(306,794,l),
(351,794,l),
(351,849,l),
(296,849,l),
(296,803,l),
(250,803,l),
(250,758,l),
(205,758,l),
(205,704,l),
(260,704,l),
(260,748,l)
);
}
);
};
layerId = "6CDB3465-C44F-49AC-BF84-14420C40CC8C";
shapes = (
{
ref = N;
},
{
pos = (128,250);
ref = acutecomb;
}
);
width = 586;
}
);
unicode = 323;
},
{
color = (153,255,154,255);
glyphname = Ncaron;
kernLeft = _Dcaron;
kernRight = _Nacute;
lastChange = "2023-09-07 12:48:38 +0000";
layers = (
{
anchors = (
{
name = bottom;
pos = (299,-12);
}
);
background = {
anchors = (
{
name = bottom;
pos = (299,-12);
},
{
name = top;
pos = (299,638);
}
);
shapes = (
{
closed = 1;
nodes = (
(61,-11,l),
(188,-11,l),
(188,416,l),
(237,416,l),
(237,160,l),
(326,160,l),
(326,74,l),
(414,74,l),
(414,-11,l),
(542,-11,l),
(542,638,l),
(414,638,l),
(414,211,l),
(365,211,l),
(365,467,l),
(276,467,l),
(276,552,l),
(188,552,l),
(188,638,l),
(61,638,l)
);
},
{
closed = 1;
nodes = (
(214,809,l),
(296,809,l),
(296,766,l),
(302,766,l),
(302,809,l),
(385,809,l),
(385,716,l),
(341,716,l),
(341,672,l),
(258,672,l),
(258,716,l),
(214,716,l)
);
}
);
};
layerId = "FEF53B85-F0C1-4BB8-A611-3AA340A355BB";
shapes = (
{
ref = N;
},
{
pos = (153,233);
ref = caroncomb;
}
);
width = 603;
},
{
anchors = (
{
name = bottom;
pos = (293,-12);
}
);
background = {
anchors = (
{
name = bottom;
pos = (293,-12);
},
{
name = top;
pos = (293,631);
}
);
shapes = (
{
closed = 1;
nodes = (
(60,-12,l),
(161,-12,l),
(161,440,l),
(241,440,l),
(241,169,l),
(333,169,l),
(333,78,l),
(423,78,l),
(423,-12,l),
(525,-12,l),
(525,631,l),
(423,631,l),
(423,179,l),
(343,179,l),
(343,450,l),
(251,450,l),
(251,540,l),
(161,540,l),
(161,631,l),
(60,631,l)
);
},
{
closed = 1;
nodes = (
(220,795,l),
(275,795,l),
(275,749,l),
(311,749,l),
(311,795,l),
(366,795,l),
(366,740,l),
(321,740,l),
(321,694,l),
(265,694,l),
(265,740,l),
(220,740,l)
);
}
);
};
layerId = "6CDB3465-C44F-49AC-BF84-14420C40CC8C";
shapes = (
{
ref = N;
},
{
pos = (143,250);
ref = caroncomb;
}
);
width = 586;
}
);
unicode = 327;
},
{
color = (153,255,154,255);
glyphname = Ncommaaccent;
kernLeft = _D;
kernRight = _H;
lastChange = "2023-09-07 12:58:16 +0000";
layers = (
{
anchors = (
{
name = top;
pos = (299,638);
}
);
background = {
anchors = (
{
name = bottom;
pos = (299,-12);
},
{
name = top;
pos = (299,638);
}
);
shapes = (
{
closed = 1;
nodes = (
(61,-11,l),
(188,-11,l),
(188,416,l),
(237,416,l),
(237,160,l),
(326,160,l),
(326,74,l),
(414,74,l),
(414,-11,l),
(542,-11,l),
(542,638,l),
(414,638,l),
(414,211,l),
(365,211,l),
(365,467,l),
(276,467,l),
(276,552,l),
(188,552,l),
(188,638,l),
(61,638,l)
);
},
{
closed = 1;
nodes = (
(276,-250,l),
(276,-186,l),
(276,-185,l),
(276,-165,l),
(232,-165,l),
(232,-28,l),
(359,-28,l),
(359,-114,l),
(403,-114,l),
(403,-206,l),
(359,-206,l),
(359,-250,l)
);
}
);
};
layerId = "FEF53B85-F0C1-4BB8-A611-3AA340A355BB";
shapes = (
{
ref = N;
},
{
pos = (147,0);
ref = commaaccentcomb;
}
);
width = 603;
},
{
anchors = (
{
name = top;
pos = (293,631);
}
);
background = {
anchors = (
{
name = bottom;
pos = (293,-12);
},
{
name = top;
pos = (293,631);
}
);
shapes = (
{
closed = 1;
nodes = (
(60,-12,l),
(161,-12,l),
(161,440,l),
(241,440,l),
(241,169,l),
(333,169,l),
(333,78,l),
(423,78,l),
(423,-12,l),
(525,-12,l),
(525,631,l),
(423,631,l),
(423,179,l),
(343,179,l),
(343,450,l),
(251,450,l),
(251,540,l),
(161,540,l),
(161,631,l),
(60,631,l)
);
},
{
closed = 1;
nodes = (
(273,-224,l),
(273,-168,l),
(319,-168,l),
(319,-134,l),
(228,-134,l),
(228,-33,l),
(329,-33,l),
(329,-124,l),
(374,-124,l),
(374,-178,l),
(329,-178,l),
(329,-224,l)
);
}
);
};
layerId = "6CDB3465-C44F-49AC-BF84-14420C40CC8C";
shapes = (
{
ref = N;
},
{
pos = (147,0);
ref = commaaccentcomb;
}
);
width = 586;
}
);
unicode = 325;
},
{
color = (153,255,154,255);
glyphname = Ntilde;
lastChange = "2023-09-07 12:48:38 +0000";
layers = (
{
anchors = (
{
name = bottom;
pos = (299,-12);
}
);
background = {
anchors = (
{
name = bottom;
pos = (299,-12);
},
{
name = top;
pos = (299,638);
}
);
shapes = (
{
closed = 1;
nodes = (
(61,-11,l),
(188,-11,l),
(188,416,l),
(237,416,l),
(237,160,l),
(326,160,l),
(326,74,l),
(414,74,l),
(414,-11,l),
(542,-11,l),
(542,638,l),
(414,638,l),
(414,211,l),
(365,211,l),
(365,467,l),
(276,467,l),
(276,552,l),
(188,552,l),
(188,638,l),
(61,638,l)
);
},
{
closed = 1;
nodes = (
(162,668,l),
(246,668,l),
(246,713,l),
(253,713,l),
(253,668,l),
(431,668,l),
(431,807,l),
(346,807,l),
(346,764,l),
(339,764,l),
(339,807,l),
(162,807,l)
);
}
);
};
layerId = "FEF53B85-F0C1-4BB8-A611-3AA340A355BB";
shapes = (
{
ref = N;
},
{
pos = (150,233);
ref = tildecomb;
}
);
width = 603;
},
{
anchors = (
{
name = bottom;
pos = (293,-12);
}
);
background = {
anchors = (
{
name = bottom;
pos = (293,-12);
},
{
name = top;
pos = (293,631);
}
);
shapes = (
{
closed = 1;
nodes = (
(60,-12,l),
(161,-12,l),
(161,440,l),
(241,440,l),
(241,169,l),
(333,169,l),
(333,78,l),
(423,78,l),
(423,-12,l),
(525,-12,l),
(525,631,l),
(423,631,l),
(423,179,l),
(343,179,l),
(343,450,l),
(251,450,l),
(251,540,l),
(161,540,l),
(161,631,l),
(60,631,l)
);
},
{
closed = 1;
nodes = (
(162,692,l),
(219,692,l),
(219,739,l),
(256,739,l),
(256,692,l),
(409,692,l),
(409,795,l),
(351,795,l),
(351,749,l),
(314,749,l),
(314,795,l),
(162,795,l)
);
}
);
};
layerId = "6CDB3465-C44F-49AC-BF84-14420C40CC8C";
shapes = (
{
ref = N;
},
{
pos = (135,250);
ref = tildecomb;
}
);
width = 586;
}
);
unicode = 209;
},
{
glyphname = Eng;
kernLeft = _D;
kernRight = _H;
lastChange = "2023-09-07 12:38:49 +0000";
layers = (
{
anchors = (
{
name = bottom;
pos = (302,0);
},
{
name = top;
pos = (302,700);
}
);
background = {
shapes = (
{
closed = 1;
nodes = (
(148,-148,l),
(237,-148,l),
(237,-234,l),
(453,-234,l),
(453,-148,l),
(542,-148,l),
(542,638,l),
(414,638,l),
(414,211,l),
(365,211,l),
(365,467,l),
(276,467,l),
(276,552,l),
(188,552,l),
(188,638,l),
(61,638,l),
(61,-11,l),
(188,-11,l),
(188,416,l),
(237,416,l),
(237,160,l),
(326,160,l),
(326,74,l),
(414,74,l),
(414,-97,l),
(276,-97,l),
(276,-20,l),
(148,-20,l)
);
}
);
};
layerId = "FEF53B85-F0C1-4BB8-A611-3AA340A355BB";
shapes = (
{
closed = 1;
nodes = (
(453,-234,l),
(453,-148,l),
(542,-148,l),
(542,638,l),
(414,638,l),
(414,211,l),
(365,211,l),
(365,467,l),
(276,467,l),
(276,552,l),
(188,552,l),
(188,638,l),
(61,638,l),
(61,-11,l),
(188,-11,l),
(188,416,l),
(237,416,l),
(237,160,l),
(326,160,l),
(326,74,l),
(414,74,l),
(414,-97,l),
(276,-97,l),
(276,-20,l),
(148,-20,l),
(148,-148,l),
(237,-148,l),
(237,-234,l)
);
}
);
width = 603;
},
{
associatedMasterId = "6CDB3465-C44F-49AC-BF84-14420C40CC8C";
layerId = "247CFECD-2598-4D35-A3A7-5961DFED04F8";
name = img;
width = 603;
},
{
anchors = (
{
name = bottom;
pos = (293,0);
},
{
name = top;
pos = (293,700);
}
);
background = {
shapes = (
{
closed = 1;
nodes = (
(150,-157,l),
(241,-157,l),
(241,-248,l),
(433,-248,l),
(433,-157,l),
(525,-157,l),
(525,631,l),
(423,631,l),
(423,179,l),
(343,179,l),
(343,450,l),
(251,450,l),
(251,540,l),
(161,540,l),
(161,631,l),
(60,631,l),
(60,-12,l),
(161,-12,l),
(161,440,l),
(241,440,l),
(241,169,l),
(333,169,l),
(333,78,l),
(423,78,l),
(423,-147,l),
(251,-147,l),
(251,-56,l),
(150,-56,l)
);
}
);
};
layerId = "6CDB3465-C44F-49AC-BF84-14420C40CC8C";
shapes = (
{
closed = 1;
nodes = (
(433,-248,l),
(433,-157,l),
(525,-157,l),
(525,631,l),
(423,631,l),
(423,179,l),
(343,179,l),
(343,450,l),
(251,450,l),
(251,540,l),
(161,540,l),
(161,631,l),
(60,631,l),
(60,-12,l),
(161,-12,l),
(161,440,l),
(241,440,l),
(241,169,l),
(333,169,l),
(333,78,l),
(423,78,l),
(423,-147,l),
(251,-147,l),
(251,-56,l),
(150,-56,l),
(150,-157,l),
(241,-157,l),
(241,-248,l)
);
}
);
width = 586;
}
);
unicode = 330;
},
{
glyphname = O;
kernLeft = _B;
kernRight = _J;
lastChange = "2023-09-07 12:38:49 +0000";
layers = (
{
anchors = (
{
name = bottom;
pos = (302,0);
},
{
name = center;
pos = (302,350);
},
{
name = ogonek;
pos = (543,10);
},
{
name = top;
pos = (302,700);
},
{
name = topleft;
pos = (20,700);
},
{
name = topright;
pos = (583,700);
}
);
background = {
anchors = (
{
name = bottom;
pos = (292,0);
},
{
name = top;
pos = (302,638);
}
);
shapes = (
{
closed = 1;
nodes = (
(61,74,l),
(61,552,l),
(149,552,l),
(149,638,l),
(453,638,l),
(453,552,l),
(542,552,l),
(542,74,l),
(453,74,l),
(453,-11,l),
(149,-11,l),
(149,74,l)
);
},
{
closed = 1;
nodes = (
(188,125,l),
(414,125,l),
(414,501,l),
(188,501,l)
);
}
);
};
layerId = "FEF53B85-F0C1-4BB8-A611-3AA340A355BB";
shapes = (
{
closed = 1;
nodes = (
(453,-11,l),
(453,74,l),
(542,74,l),
(542,552,l),
(453,552,l),
(453,638,l),
(149,638,l),
(149,552,l),
(61,552,l),
(61,74,l),
(149,74,l),
(149,-11,l)
);
},
{
closed = 1;
nodes = (
(188,501,l),
(414,501,l),
(414,125,l),
(188,125,l)
);
}
);
width = 603;
},
{
associatedMasterId = "6CDB3465-C44F-49AC-BF84-14420C40CC8C";
layerId = "247CFECD-2598-4D35-A3A7-5961DFED04F8";
name = img;
width = 603;
},
{
anchors = (
{
name = bottom;
pos = (293,0);
},
{
name = center;
pos = (293,350);
},
{
name = ogonek;
pos = (527,10);
},
{
name = top;
pos = (293,700);
},
{
name = topleft;
pos = (20,700);
},
{
name = topright;
pos = (566,700);
}
);
background = {
anchors = (
{
name = bottom;
pos = (292,0);
},
{
name = top;
pos = (293,631);
}
);
shapes = (
{
closed = 1;
nodes = (
(60,78,l),
(60,540,l),
(151,540,l),
(151,631,l),
(433,631,l),
(433,540,l),
(525,540,l),
(525,78,l),
(433,78,l),
(433,-12,l),
(151,-12,l),
(151,78,l)
);
},
{
closed = 1;
nodes = (
(161,88,l),
(423,88,l),
(423,530,l),
(161,530,l)
);
}
);
};
layerId = "6CDB3465-C44F-49AC-BF84-14420C40CC8C";
shapes = (
{
closed = 1;
nodes = (
(433,-12,l),
(433,78,l),
(525,78,l),
(525,540,l),
(433,540,l),
(433,631,l),
(151,631,l),
(151,540,l),
(60,540,l),
(60,78,l),
(151,78,l),
(151,-12,l)
);
},
{
closed = 1;
nodes = (
(161,530,l),
(423,530,l),
(423,88,l),
(161,88,l)
);
}
);
width = 586;
}
);
unicode = 79;
},
{
color = (153,255,154,255);
glyphname = Oacute;
kernLeft = _Cacute;
lastChange = "2023-09-07 12:48:38 +0000";
layers = (
{
anchors = (
{
name = bottom;
pos = (292,0);
}
);
background = {
anchors = (
{
name = bottom;
pos = (292,0);
},
{
name = top;
pos = (302,638);
}
);
shapes = (
{
closed = 1;
nodes = (
(61,74,l),
(61,552,l),
(149,552,l),
(149,638,l),
(453,638,l),
(453,552,l),
(542,552,l),
(542,74,l),
(453,74,l),
(453,-11,l),
(149,-11,l),
(149,74,l)
);
},
{
closed = 1;
nodes = (
(188,125,l),
(414,125,l),
(414,501,l),
(188,501,l)
);
},
{
closed = 1;
nodes = (
(342,723,l),
(342,766,l),
(386,766,l),
(386,860,l),
(304,860,l),
(304,816,l),
(259,816,l),
(259,774,l),
(215,774,l),
(215,681,l),
(298,681,l),
(298,723,l)
);
}
);
};
layerId = "FEF53B85-F0C1-4BB8-A611-3AA340A355BB";
shapes = (
{
ref = O;
},
{
pos = (150,233);
ref = acutecomb;
}
);
width = 603;
},
{
anchors = (
{
name = bottom;
pos = (292,0);
}
);
background = {
anchors = (
{
name = bottom;
pos = (292,0);
},
{
name = top;
pos = (293,631);
}
);
shapes = (
{
closed = 1;
nodes = (
(60,78,l),
(60,540,l),
(151,540,l),
(151,631,l),
(433,631,l),
(433,540,l),
(525,540,l),
(525,78,l),
(433,78,l),
(433,-12,l),
(151,-12,l),
(151,78,l)
);
},
{
closed = 1;
nodes = (
(161,88,l),
(423,88,l),
(423,530,l),
(161,530,l)
);
},
{
closed = 1;
nodes = (
(306,748,l),
(306,794,l),
(351,794,l),
(351,849,l),
(296,849,l),
(296,803,l),
(250,803,l),
(250,758,l),
(205,758,l),
(205,704,l),
(260,704,l),
(260,748,l)
);
}
);
};
layerId = "6CDB3465-C44F-49AC-BF84-14420C40CC8C";
shapes = (
{
ref = O;
},
{
pos = (128,250);
ref = acutecomb;
}
);
width = 586;
}
);
unicode = 211;
},
{
color = (153,255,154,255);
glyphname = Obreve;
kernLeft = _Ebreve;
kernRight = _Obreve;
lastChange = "2023-09-07 12:48:38 +0000";
layers = (
{
anchors = (
{
name = bottom;
pos = (292,0);
}
);
background = {
anchors = (
{
name = bottom;
pos = (292,0);
},
{
name = top;
pos = (302,638);
}
);
shapes = (
{
closed = 1;
nodes = (
(61,74,l),
(61,552,l),
(149,552,l),
(149,638,l),
(453,638,l),
(453,552,l),
(542,552,l),
(542,74,l),
(453,74,l),
(453,-11,l),
(149,-11,l),
(149,74,l)
);
},
{
closed = 1;
nodes = (
(188,125,l),
(414,125,l),
(414,501,l),
(188,501,l)
);
},
{
closed = 1;
nodes = (
(169,681,l),
(169,818,l),
(251,818,l),
(251,775,l),
(353,775,l),
(353,818,l),
(434,818,l),
(434,681,l)
);
}
);
};
layerId = "FEF53B85-F0C1-4BB8-A611-3AA340A355BB";
shapes = (
{
ref = O;
},
{
pos = (151,233);
ref = brevecomb;
}
);
width = 603;
},
{
anchors = (
{
name = bottom;
pos = (292,0);
}
);
background = {
anchors = (
{
name = bottom;
pos = (292,0);
},
{
name = top;
pos = (293,631);
}
);
shapes = (
{
closed = 1;
nodes = (
(60,78,l),
(60,540,l),
(151,540,l),
(151,631,l),
(433,631,l),
(433,540,l),
(525,540,l),
(525,78,l),
(433,78,l),
(433,-12,l),
(151,-12,l),
(151,78,l)
);
},
{
closed = 1;
nodes = (
(161,88,l),
(423,88,l),
(423,530,l),
(161,530,l)
);
},
{
closed = 1;
nodes = (
(169,704,l),
(169,805,l),
(224,805,l),
(224,759,l),
(358,759,l),
(358,805,l),
(412,805,l),
(412,704,l)
);
}
);
};
layerId = "6CDB3465-C44F-49AC-BF84-14420C40CC8C";
shapes = (
{
ref = O;
},
{
pos = (140,250);
ref = brevecomb;
}
);
width = 586;
}
);
unicode = 334;
},
{
color = (153,255,154,255);
glyphname = Ocircumflex;
kernLeft = _Ebreve;
kernRight = _Obreve;
lastChange = "2023-09-07 12:48:38 +0000";
layers = (
{
anchors = (
{
name = bottom;
pos = (292,0);
}
);
background = {
anchors = (
{
name = bottom;
pos = (292,0);
},
{
name = top;
pos = (302,638);
}
);
shapes = (
{
closed = 1;
nodes = (
(61,74,l),
(61,552,l),
(149,552,l),
(149,638,l),
(453,638,l),
(453,552,l),
(542,552,l),
(542,74,l),
(453,74,l),
(453,-11,l),
(149,-11,l),
(149,74,l)
);
},
{
closed = 1;
nodes = (
(188,125,l),
(414,125,l),
(414,501,l),
(188,501,l)
);
},
{
closed = 1;
nodes = (
(217,672,l),
(299,672,l),
(299,715,l),
(305,715,l),
(305,672,l),
(388,672,l),
(388,765,l),
(344,765,l),
(344,809,l),
(261,809,l),
(261,765,l),
(217,765,l)
);
}
);
};
layerId = "FEF53B85-F0C1-4BB8-A611-3AA340A355BB";
shapes = (
{
ref = O;
},
{
pos = (153,233);
ref = circumflexcomb;
}
);
width = 603;
},
{
anchors = (
{
name = bottom;
pos = (292,0);
}
);
background = {
anchors = (
{
name = bottom;
pos = (292,0);
},
{
name = top;
pos = (293,631);
}
);
shapes = (
{
closed = 1;
nodes = (
(60,78,l),
(60,540,l),
(151,540,l),
(151,631,l),
(433,631,l),
(433,540,l),
(525,540,l),
(525,78,l),
(433,78,l),
(433,-12,l),
(151,-12,l),
(151,78,l)
);
},
{
closed = 1;
nodes = (
(161,88,l),
(423,88,l),
(423,530,l),
(161,530,l)
);
},
{
closed = 1;
nodes = (
(220,694,l),
(275,694,l),
(275,740,l),
(311,740,l),
(311,694,l),
(366,694,l),
(366,749,l),
(321,749,l),
(321,795,l),
(265,795,l),
(265,749,l),
(220,749,l)
);
}
);
};
layerId = "6CDB3465-C44F-49AC-BF84-14420C40CC8C";
shapes = (
{
ref = O;
},
{
pos = (143,250);
ref = circumflexcomb;
}
);
width = 586;
}
);
unicode = 212;
},
{
color = (153,255,154,255);
glyphname = Odieresis;
kernLeft = _Edieresis;
lastChange = "2023-09-07 12:48:38 +0000";
layers = (
{
anchors = (
{
name = bottom;
pos = (292,0);
}
);
background = {
anchors = (
{
name = bottom;
pos = (292,0);
},
{
name = top;
pos = (302,638);
}
);
shapes = (
{
closed = 1;
nodes = (
(61,74,l),
(61,552,l),
(149,552,l),
(149,638,l),
(453,638,l),
(453,552,l),
(542,552,l),
(542,74,l),
(453,74,l),
(453,-11,l),
(149,-11,l),
(149,74,l)
);
},
{
closed = 1;
nodes = (
(188,125,l),
(414,125,l),
(414,501,l),
(188,501,l)
);
},
{
closed = 1;
nodes = (
(139,675,l),
(139,812,l),
(267,812,l),
(267,675,l)
);
},
{
closed = 1;
nodes = (
(346,675,l),
(346,812,l),
(473,812,l),
(473,675,l)
);
}
);
};
layerId = "FEF53B85-F0C1-4BB8-A611-3AA340A355BB";
shapes = (
{
ref = O;
},
{
pos = (156,233);
ref = dieresiscomb;
}
);
width = 603;
},
{
anchors = (
{
name = bottom;
pos = (292,0);
}
);
background = {
anchors = (
{
name = bottom;
pos = (292,0);
},
{
name = top;
pos = (293,631);
}
);
shapes = (
{
closed = 1;
nodes = (
(60,78,l),
(60,540,l),
(151,540,l),
(151,631,l),
(433,631,l),
(433,540,l),
(525,540,l),
(525,78,l),
(433,78,l),
(433,-12,l),
(151,-12,l),
(151,78,l)
);
},
{
closed = 1;
nodes = (
(161,88,l),
(423,88,l),
(423,530,l),
(161,530,l)
);
},
{
closed = 1;
nodes = (
(140,647,l),
(140,748,l),
(242,748,l),
(242,647,l)
);
},
{
closed = 1;
nodes = (
(353,647,l),
(353,748,l),
(454,748,l),
(454,647,l)
);
}
);
};
layerId = "6CDB3465-C44F-49AC-BF84-14420C40CC8C";
shapes = (
{
ref = O;
},
{
pos = (147,250);
ref = dieresiscomb;
}
);
width = 586;
}
);
unicode = 214;
},
{
color = (153,255,154,255);
glyphname = Ograve;
kernLeft = _Cacute;
lastChange = "2023-09-07 12:38:57 +0000";
layers = (
{
anchors = (
{
name = bottom;
pos = (292,0);
},
{
name = top;
pos = (259,860);
}
);
background = {
anchors = (
{
name = bottom;
pos = (292,0);
},
{
name = top;
pos = (259,860);
}
);
shapes = (
{
closed = 1;
nodes = (
(61,74,l),
(61,552,l),
(149,552,l),
(149,638,l),
(453,638,l),
(453,552,l),
(542,552,l),
(542,74,l),
(453,74,l),
(453,-11,l),
(149,-11,l),
(149,74,l)
);
},
{
closed = 1;
nodes = (
(188,125,l),
(414,125,l),
(414,501,l),
(188,501,l)
);
},
{
closed = 1;
nodes = (
(217,723,l),
(261,723,l),
(261,681,l),
(344,681,l),
(344,774,l),
(300,774,l),
(300,816,l),
(255,816,l),
(255,860,l),
(173,860,l),
(173,766,l),
(217,766,l)
);
}
);
};
layerId = "FEF53B85-F0C1-4BB8-A611-3AA340A355BB";
shapes = (
{
ref = O;
},
{
pos = (113,233);
ref = gravecomb;
}
);
width = 603;
},
{
anchors = (
{
name = bottom;
pos = (292,0);
},
{
name = top;
pos = (248,866);
}
);
background = {
anchors = (
{
name = bottom;
pos = (292,0);
},
{
name = top;
pos = (248,866);
}
);
shapes = (
{
closed = 1;
nodes = (
(60,78,l),
(60,540,l),
(151,540,l),
(151,631,l),
(433,631,l),
(433,540,l),
(525,540,l),
(525,78,l),
(433,78,l),
(433,-12,l),
(151,-12,l),
(151,78,l)
);
},
{
closed = 1;
nodes = (
(161,88,l),
(423,88,l),
(423,530,l),
(161,530,l)
);
},
{
closed = 1;
nodes = (
(220,765,l),
(266,765,l),
(266,721,l),
(321,721,l),
(321,775,l),
(276,775,l),
(276,820,l),
(230,820,l),
(230,866,l),
(175,866,l),
(175,811,l),
(220,811,l)
);
}
);
};
layerId = "6CDB3465-C44F-49AC-BF84-14420C40CC8C";
shapes = (
{
ref = O;
},
{
pos = (115,250);
ref = gravecomb;
}
);
width = 586;
}
);
unicode = 210;
},
{
color = (153,255,154,255);
glyphname = Ohungarumlaut;
kernLeft = _Ebreve;
lastChange = "2023-09-07 12:48:38 +0000";
layers = (
{
anchors = (
{
name = bottom;
pos = (292,0);
}
);
background = {
anchors = (
{
name = bottom;
pos = (292,0);
},
{
name = top;
pos = (302,638);
}
);
shapes = (
{
closed = 1;
nodes = (
(61,74,l),
(61,552,l),
(149,552,l),
(149,638,l),
(453,638,l),
(453,552,l),
(542,552,l),
(542,74,l),
(453,74,l),
(453,-11,l),
(149,-11,l),
(149,74,l)
);
},
{
closed = 1;
nodes = (
(188,125,l),
(414,125,l),
(414,501,l),
(188,501,l)
);
},
{
closed = 1;
nodes = (
(136,716,l),
(136,759,l),
(92,759,l),
(92,853,l),
(174,853,l),
(174,809,l),
(219,809,l),
(219,767,l),
(263,767,l),
(263,674,l),
(180,674,l),
(180,716,l)
);
},
{
closed = 1;
nodes = (
(322,716,l),
(322,759,l),
(278,759,l),
(278,853,l),
(360,853,l),
(360,809,l),
(405,809,l),
(405,767,l),
(449,767,l),
(449,674,l),
(366,674,l),
(366,716,l)
);
}
);
};
layerId = "FEF53B85-F0C1-4BB8-A611-3AA340A355BB";
shapes = (
{
ref = O;
},
{
pos = (121,233);
ref = hungarumlautcomb;
}
);
width = 603;
},
{
anchors = (
{
name = bottom;
pos = (292,0);
}
);
background = {
anchors = (
{
name = bottom;
pos = (292,0);
},
{
name = top;
pos = (293,631);
}
);
shapes = (
{
closed = 1;
nodes = (
(60,78,l),
(60,540,l),
(151,540,l),
(151,631,l),
(433,631,l),
(433,540,l),
(525,540,l),
(525,78,l),
(433,78,l),
(433,-12,l),
(151,-12,l),
(151,78,l)
);
},
{
closed = 1;
nodes = (
(161,88,l),
(423,88,l),
(423,530,l),
(161,530,l)
);
},
{
closed = 1;
nodes = (
(202,749,l),
(202,795,l),
(157,795,l),
(157,850,l),
(212,850,l),
(212,804,l),
(258,804,l),
(258,759,l),
(303,759,l),
(303,705,l),
(248,705,l),
(248,749,l)
);
},
{
closed = 1;
nodes = (
(321,749,l),
(321,795,l),
(276,795,l),
(276,850,l),
(331,850,l),
(331,804,l),
(377,804,l),
(377,759,l),
(422,759,l),
(422,705,l),
(367,705,l),
(367,749,l)
);
}
);
};
layerId = "6CDB3465-C44F-49AC-BF84-14420C40CC8C";
shapes = (
{
ref = O;
},
{
pos = (139,250);
ref = hungarumlautcomb;
}
);
width = 586;
}
);
unicode = 336;
},
{
color = (153,255,154,255);
glyphname = Omacron;
kernLeft = _Otilde;
kernRight = _Otilde1;
lastChange = "2023-09-07 12:48:38 +0000";
layers = (
{
anchors = (
{
name = bottom;
pos = (292,0);
}
);
background = {
anchors = (
{
name = bottom;
pos = (292,0);
},
{
name = top;
pos = (302,638);
}
);
shapes = (
{
closed = 1;
nodes = (
(61,74,l),
(61,552,l),
(149,552,l),
(149,638,l),
(453,638,l),
(453,552,l),
(542,552,l),
(542,74,l),
(453,74,l),
(453,-11,l),
(149,-11,l),
(149,74,l)
);
},
{
closed = 1;
nodes = (
(188,125,l),
(414,125,l),
(414,501,l),
(188,501,l)
);
},
{
closed = 1;
nodes = (
(148,755,l),
(148,892,l),
(452,892,l),
(452,755,l)
);
}
);
};
layerId = "FEF53B85-F0C1-4BB8-A611-3AA340A355BB";
shapes = (
{
ref = O;
},
{
pos = (150,233);
ref = macroncomb;
}
);
width = 603;
},
{
anchors = (
{
name = bottom;
pos = (292,0);
}
);
background = {
anchors = (
{
name = bottom;
pos = (292,0);
},
{
name = top;
pos = (293,631);
}
);
shapes = (
{
closed = 1;
nodes = (
(60,78,l),
(60,540,l),
(151,540,l),
(151,631,l),
(433,631,l),
(433,540,l),
(525,540,l),
(525,78,l),
(433,78,l),
(433,-12,l),
(151,-12,l),
(151,78,l)
);
},
{
closed = 1;
nodes = (
(161,88,l),
(423,88,l),
(423,530,l),
(161,530,l)
);
},
{
closed = 1;
nodes = (
(155,705,l),
(155,806,l),
(437,806,l),
(437,705,l)
);
}
);
};
layerId = "6CDB3465-C44F-49AC-BF84-14420C40CC8C";
shapes = (
{
ref = O;
},
{
pos = (146,250);
ref = macroncomb;
}
);
width = 586;
}
);
unicode = 332;
},
{
color = (153,255,154,255);
glyphname = Oslash;
lastChange = "2023-09-07 12:38:49 +0000";
layers = (
{
anchors = (
{
name = bottom;
pos = (302,0);
},
{
name = top;
pos = (302,700);
}
);
background = {
anchors = (
{
name = bottom;
pos = (292,0);
},
{
name = top;
pos = (302,638);
}
);
shapes = (
{
closed = 1;
nodes = (
(61,74,l),
(61,552,l),
(149,552,l),
(149,638,l),
(453,638,l),
(453,552,l),
(542,552,l),
(542,74,l),
(453,74,l),
(453,-11,l),
(149,-11,l),
(149,74,l)
);
},
{
closed = 1;
nodes = (
(188,125,l),
(414,125,l),
(414,501,l),
(188,501,l)
);
},
{
closed = 1;
nodes = (
(430,670,l),
(557,670,l),
(157,-52,l),
(30,-52,l)
);
}
);
};
layerId = "FEF53B85-F0C1-4BB8-A611-3AA340A355BB";
shapes = (
{
closed = 1;
nodes = (
(157,-52,l),
(557,670,l),
(430,670,l),
(30,-52,l)
);
},
{
closed = 1;
nodes = (
(453,-11,l),
(453,74,l),
(542,74,l),
(542,552,l),
(453,552,l),
(453,638,l),
(149,638,l),
(149,552,l),
(61,552,l),
(61,74,l),
(149,74,l),
(149,-11,l)
);
},
{
closed = 1;
nodes = (
(188,501,l),
(414,501,l),
(414,125,l),
(188,125,l)
);
}
);
width = 603;
},
{
anchors = (
{
name = bottom;
pos = (312,0);
},
{
name = top;
pos = (312,700);
}
);
background = {
anchors = (
{
name = bottom;
pos = (309,0);
},
{
name = top;
pos = (310,631);
}
);
shapes = (
{
closed = 1;
nodes = (
(77,78,l),
(77,540,l),
(168,540,l),
(168,631,l),
(450,631,l),
(450,540,l),
(542,540,l),
(542,78,l),
(450,78,l),
(450,-12,l),
(168,-12,l),
(168,78,l)
);
},
{
closed = 1;
nodes = (
(178,88,l),
(440,88,l),
(440,530,l),
(178,530,l)
);
},
{
closed = 1;
nodes = (
(460,670,l),
(562,670,l),
(162,-52,l),
(60,-52,l)
);
}
);
};
layerId = "6CDB3465-C44F-49AC-BF84-14420C40CC8C";
shapes = (
{
closed = 1;
nodes = (
(162,-52,l),
(562,670,l),
(460,670,l),
(60,-52,l)
);
},
{
closed = 1;
nodes = (
(450,-12,l),
(450,78,l),
(542,78,l),
(542,540,l),
(450,540,l),
(450,631,l),
(168,631,l),
(168,540,l),
(77,540,l),
(77,78,l),
(168,78,l),
(168,-12,l)
);
},
{
closed = 1;
nodes = (
(178,530,l),
(440,530,l),
(440,88,l),
(178,88,l)
);
}
);
width = 623;
}
);
unicode = 216;
},
{
glyphname = Oslashacute;
lastChange = "2023-09-07 12:48:38 +0000";
layers = (
{
background = {
shapes = (
{
closed = 1;
nodes = (
(188,125,l),
(234,125,l),
(234,501,l),
(188,501,l)
);
},
{
closed = 1;
nodes = (
(273,552,l),
(323,552,l),
(323,587,l),
(273,587,l)
);
},
{
closed = 1;
nodes = (
(362,125,l),
(414,125,l),
(414,501,l),
(362,501,l)
);
},
{
closed = 1;
nodes = (
(273,40,l),
(323,40,l),
(323,74,l),
(273,74,l)
);
},
{
closed = 1;
nodes = (
(149,-11,l),
(149,74,l),
(61,74,l),
(61,552,l),
(149,552,l),
(149,638,l),
(234,638,l),
(234,721,l),
(362,721,l),
(362,638,l),
(453,638,l),
(453,552,l),
(542,552,l),
(542,74,l),
(453,74,l),
(453,-11,l),
(362,-11,l),
(362,-90,l),
(234,-90,l),
(234,-11,l)
);
},
{
closed = 1;
nodes = (
(258,728,l),
(258,821,l),
(302,821,l),
(302,865,l),
(346,865,l),
(346,907,l),
(427,907,l),
(427,814,l),
(385,814,l),
(385,771,l),
(341,771,l),
(341,728,l)
);
}
);
};
layerId = "FEF53B85-F0C1-4BB8-A611-3AA340A355BB";
shapes = (
{
ref = Oslash;
},
{
pos = (150,233);
ref = acutecomb;
}
);
width = 603;
},
{
associatedMasterId = "6CDB3465-C44F-49AC-BF84-14420C40CC8C";
layerId = "247CFECD-2598-4D35-A3A7-5961DFED04F8";
name = img;
width = 603;
},
{
background = {
shapes = (
{
closed = 1;
nodes = (
(161,88,l),
(238,88,l),
(238,530,l),
(161,530,l)
);
},
{
closed = 1;
nodes = (
(248,540,l),
(330,540,l),
(330,621,l),
(248,621,l)
);
},
{
closed = 1;
nodes = (
(340,88,l),
(423,88,l),
(423,530,l),
(340,530,l)
);
},
{
closed = 1;
nodes = (
(248,-2,l),
(330,-2,l),
(330,78,l),
(248,78,l)
);
},
{
closed = 1;
nodes = (
(151,-12,l),
(151,78,l),
(60,78,l),
(60,540,l),
(151,540,l),
(151,631,l),
(238,631,l),
(238,719,l),
(340,719,l),
(340,631,l),
(433,631,l),
(433,540,l),
(525,540,l),
(525,78,l),
(433,78,l),
(433,-12,l),
(340,-12,l),
(340,-95,l),
(238,-95,l),
(238,-12,l)
);
},
{
closed = 1;
nodes = (
(263,770,l),
(263,825,l),
(308,825,l),
(308,871,l),
(353,871,l),
(353,916,l),
(407,916,l),
(407,861,l),
(363,861,l),
(363,816,l),
(318,816,l),
(318,770,l)
);
}
);
};
layerId = "6CDB3465-C44F-49AC-BF84-14420C40CC8C";
shapes = (
{
ref = Oslash;
},
{
pos = (147,250);
ref = acutecomb;
}
);
width = 623;
}
);
unicode = 510;
},
{
color = (153,255,154,255);
glyphname = Otilde;
kernLeft = _Otilde;
kernRight = _Otilde1;
lastChange = "2023-09-07 12:48:38 +0000";
layers = (
{
anchors = (
{
name = bottom;
pos = (292,0);
}
);
background = {
anchors = (
{
name = bottom;
pos = (292,0);
},
{
name = top;
pos = (302,638);
}
);
shapes = (
{
closed = 1;
nodes = (
(61,74,l),
(61,552,l),
(149,552,l),
(149,638,l),
(453,638,l),
(453,552,l),
(542,552,l),
(542,74,l),
(453,74,l),
(453,-11,l),
(149,-11,l),
(149,74,l)
);
},
{
closed = 1;
nodes = (
(188,125,l),
(414,125,l),
(414,501,l),
(188,501,l)
);
},
{
closed = 1;
nodes = (
(165,668,l),
(249,668,l),
(249,713,l),
(256,713,l),
(256,668,l),
(434,668,l),
(434,807,l),
(349,807,l),
(349,764,l),
(342,764,l),
(342,807,l),
(165,807,l)
);
}
);
};
layerId = "FEF53B85-F0C1-4BB8-A611-3AA340A355BB";
shapes = (
{
ref = O;
},
{
pos = (150,233);
ref = tildecomb;
}
);
width = 603;
},
{
anchors = (
{
name = bottom;
pos = (292,0);
}
);
background = {
anchors = (
{
name = bottom;
pos = (292,0);
},
{
name = top;
pos = (293,631);
}
);
shapes = (
{
closed = 1;
nodes = (
(60,78,l),
(60,540,l),
(151,540,l),
(151,631,l),
(433,631,l),
(433,540,l),
(525,540,l),
(525,78,l),
(433,78,l),
(433,-12,l),
(151,-12,l),
(151,78,l)
);
},
{
closed = 1;
nodes = (
(161,88,l),
(423,88,l),
(423,530,l),
(161,530,l)
);
},
{
closed = 1;
nodes = (
(162,692,l),
(219,692,l),
(219,739,l),
(256,739,l),
(256,692,l),
(409,692,l),
(409,795,l),
(351,795,l),
(351,749,l),
(314,749,l),
(314,795,l),
(162,795,l)
);
}
);
};
layerId = "6CDB3465-C44F-49AC-BF84-14420C40CC8C";
shapes = (
{
ref = O;
},
{
pos = (135,250);
ref = tildecomb;
}
);
width = 586;
}
);
unicode = 213;
},
{
glyphname = OE;
kernLeft = _B;
kernRight = _E;
lastChange = "2023-09-07 12:38:49 +0000";
layers = (
{
anchors = (
{
name = bottom;
pos = (478,0);
},
{
name = top;
pos = (478,700);
}
);
background = {
shapes = (
{
closed = 1;
nodes = (
(61,74,l),
(149,74,l),
(149,-11,l),
(453,-11,l),
(453,74,l),
(503,74,l),
(503,-11,l),
(807,-11,l),
(807,74,l),
(895,74,l),
(895,211,l),
(768,211,l),
(768,125,l),
(542,125,l),
(542,246,l),
(718,246,l),
(718,381,l),
(542,381,l),
(542,501,l),
(768,501,l),
(768,416,l),
(895,416,l),
(895,552,l),
(807,552,l),
(807,638,l),
(503,638,l),
(503,552,l),
(453,552,l),
(453,638,l),
(149,638,l),
(149,552,l),
(61,552,l)
);
},
{
closed = 1;
nodes = (
(188,125,l),
(188,501,l),
(414,501,l),
(414,125,l)
);
}
);
};
layerId = "FEF53B85-F0C1-4BB8-A611-3AA340A355BB";
shapes = (
{
closed = 1;
nodes = (
(453,-11,l),
(453,74,l),
(503,74,l),
(503,-11,l),
(807,-11,l),
(807,74,l),
(895,74,l),
(895,211,l),
(768,211,l),
(768,125,l),
(542,125,l),
(542,246,l),
(718,246,l),
(718,381,l),
(542,381,l),
(542,501,l),
(768,501,l),
(768,416,l),
(895,416,l),
(895,552,l),
(807,552,l),
(807,638,l),
(503,638,l),
(503,552,l),
(453,552,l),
(453,638,l),
(149,638,l),
(149,552,l),
(61,552,l),
(61,74,l),
(149,74,l),
(149,-11,l)
);
},
{
closed = 1;
nodes = (
(188,501,l),
(414,501,l),
(414,125,l),
(188,125,l)
);
}
);
width = 956;
},
{
associatedMasterId = "6CDB3465-C44F-49AC-BF84-14420C40CC8C";
layerId = "247CFECD-2598-4D35-A3A7-5961DFED04F8";
name = img;
width = 603;
},
{
anchors = (
{
name = bottom;
pos = (475,0);
},
{
name = top;
pos = (475,700);
}
);
background = {
shapes = (
{
closed = 1;
nodes = (
(60,78,l),
(151,78,l),
(151,-12,l),
(433,-12,l),
(433,78,l),
(515,78,l),
(515,-12,l),
(797,-12,l),
(797,78,l),
(888,78,l),
(888,179,l),
(787,179,l),
(787,88,l),
(525,88,l),
(525,260,l),
(706,260,l),
(706,359,l),
(525,359,l),
(525,530,l),
(787,530,l),
(787,440,l),
(888,440,l),
(888,540,l),
(797,540,l),
(797,631,l),
(515,631,l),
(515,540,l),
(433,540,l),
(433,631,l),
(151,631,l),
(151,540,l),
(60,540,l)
);
},
{
closed = 1;
nodes = (
(161,88,l),
(161,530,l),
(423,530,l),
(423,88,l)
);
}
);
};
layerId = "6CDB3465-C44F-49AC-BF84-14420C40CC8C";
shapes = (
{
closed = 1;
nodes = (
(433,-12,l),
(433,78,l),
(515,78,l),
(515,-12,l),
(797,-12,l),
(797,78,l),
(888,78,l),
(888,179,l),
(787,179,l),
(787,88,l),
(525,88,l),
(525,260,l),
(706,260,l),
(706,359,l),
(525,359,l),
(525,530,l),
(787,530,l),
(787,440,l),
(888,440,l),
(888,540,l),
(797,540,l),
(797,631,l),
(515,631,l),
(515,540,l),
(433,540,l),
(433,631,l),
(151,631,l),
(151,540,l),
(60,540,l),
(60,78,l),
(151,78,l),
(151,-12,l)
);
},
{
closed = 1;
nodes = (
(161,530,l),
(423,530,l),
(423,88,l),
(161,88,l)
);
}
);
width = 949;
}
);
unicode = 338;
},
{
glyphname = P;
kernLeft = _K;
lastChange = "2023-09-07 12:38:49 +0000";
layers = (
{
anchors = (
{
name = bottom;
pos = (302,0);
},
{
name = top;
pos = (302,700);
}
);
background = {
shapes = (
{
closed = 1;
nodes = (
(61,-11,l),
(188,-11,l),
(188,160,l),
(453,160,l),
(453,246,l),
(542,246,l),
(542,552,l),
(453,552,l),
(453,638,l),
(149,638,l),
(149,552,l),
(61,552,l)
);
},
{
closed = 1;
nodes = (
(188,297,l),
(188,501,l),
(414,501,l),
(414,297,l)
);
}
);
};
layerId = "FEF53B85-F0C1-4BB8-A611-3AA340A355BB";
shapes = (
{
closed = 1;
nodes = (
(188,-11,l),
(188,160,l),
(453,160,l),
(453,246,l),
(542,246,l),
(542,552,l),
(453,552,l),
(453,638,l),
(149,638,l),
(149,552,l),
(61,552,l),
(61,-11,l)
);
},
{
closed = 1;
nodes = (
(188,501,l),
(414,501,l),
(414,297,l),
(188,297,l)
);
}
);
width = 603;
},
{
associatedMasterId = "6CDB3465-C44F-49AC-BF84-14420C40CC8C";
layerId = "247CFECD-2598-4D35-A3A7-5961DFED04F8";
name = img;
width = 603;
},
{
anchors = (
{
name = bottom;
pos = (293,0);
},
{
name = top;
pos = (293,700);
}
);
background = {
shapes = (
{
closed = 1;
nodes = (
(60,-12,l),
(161,-12,l),
(161,169,l),
(433,169,l),
(433,260,l),
(525,260,l),
(525,540,l),
(433,540,l),
(433,631,l),
(151,631,l),
(151,540,l),
(60,540,l)
);
},
{
closed = 1;
nodes = (
(161,270,l),
(161,530,l),
(423,530,l),
(423,270,l)
);
}
);
};
layerId = "6CDB3465-C44F-49AC-BF84-14420C40CC8C";
shapes = (
{
closed = 1;
nodes = (
(161,-12,l),
(161,169,l),
(433,169,l),
(433,260,l),
(525,260,l),
(525,540,l),
(433,540,l),
(433,631,l),
(151,631,l),
(151,540,l),
(60,540,l),
(60,-12,l)
);
},
{
closed = 1;
nodes = (
(161,530,l),
(423,530,l),
(423,270,l),
(161,270,l)
);
}
);
width = 586;
}
);
unicode = 80;
},
{
glyphname = Thorn;
kernLeft = _D;
lastChange = "2023-09-07 12:38:49 +0000";
layers = (
{
anchors = (
{
name = bottom;
pos = (302,0);
},
{
name = top;
pos = (302,700);
}
);
background = {
shapes = (
{
closed = 1;
nodes = (
(61,-11,l),
(188,-11,l),
(188,64,l),
(453,64,l),
(453,149,l),
(542,149,l),
(542,456,l),
(453,456,l),
(453,542,l),
(188,542,l),
(188,638,l),
(61,638,l)
);
},
{
closed = 1;
nodes = (
(188,200,l),
(188,405,l),
(414,405,l),
(414,200,l)
);
}
);
};
layerId = "FEF53B85-F0C1-4BB8-A611-3AA340A355BB";
shapes = (
{
closed = 1;
nodes = (
(188,-11,l),
(188,64,l),
(453,64,l),
(453,149,l),
(542,149,l),
(542,456,l),
(453,456,l),
(453,542,l),
(188,542,l),
(188,638,l),
(61,638,l),
(61,-11,l)
);
},
{
closed = 1;
nodes = (
(188,405,l),
(414,405,l),
(414,200,l),
(188,200,l)
);
}
);
width = 603;
},
{
associatedMasterId = "6CDB3465-C44F-49AC-BF84-14420C40CC8C";
layerId = "247CFECD-2598-4D35-A3A7-5961DFED04F8";
name = img;
width = 603;
},
{
anchors = (
{
name = bottom;
pos = (293,0);
},
{
name = top;
pos = (293,700);
}
);
background = {
shapes = (
{
closed = 1;
nodes = (
(60,-12,l),
(161,-12,l),
(161,67,l),
(433,67,l),
(433,157,l),
(525,157,l),
(525,438,l),
(433,438,l),
(433,529,l),
(161,529,l),
(161,631,l),
(60,631,l)
);
},
{
closed = 1;
nodes = (
(161,167,l),
(161,429,l),
(423,429,l),
(423,167,l)
);
}
);
};
layerId = "6CDB3465-C44F-49AC-BF84-14420C40CC8C";
shapes = (
{
closed = 1;
nodes = (
(161,-12,l),
(161,67,l),
(433,67,l),
(433,157,l),
(525,157,l),
(525,438,l),
(433,438,l),
(433,529,l),
(161,529,l),
(161,631,l),
(60,631,l),
(60,-12,l)
);
},
{
closed = 1;
nodes = (
(161,429,l),
(423,429,l),
(423,167,l),
(161,167,l)
);
}
);
width = 586;
}
);
unicode = 222;
},
{
glyphname = Q;
kernLeft = _B;
kernRight = _J;
lastChange = "2023-09-07 12:38:49 +0000";
layers = (
{
anchors = (
{
name = bottom;
pos = (302,0);
},
{
name = top;
pos = (302,700);
}
);
background = {
shapes = (
{
closed = 1;
nodes = (
(149,-11,l),
(237,-11,l),
(237,-97,l),
(326,-97,l),
(326,-181,l),
(453,-181,l),
(453,-46,l),
(365,-46,l),
(365,-11,l),
(453,-11,l),
(453,74,l),
(542,74,l),
(542,552,l),
(453,552,l),
(453,638,l),
(149,638,l),
(149,552,l),
(61,552,l),
(61,74,l),
(149,74,l)
);
},
{
closed = 1;
nodes = (
(188,125,l),
(188,501,l),
(414,501,l),
(414,125,l)
);
}
);
};
layerId = "FEF53B85-F0C1-4BB8-A611-3AA340A355BB";
shapes = (
{
closed = 1;
nodes = (
(453,-181,l),
(453,-46,l),
(365,-46,l),
(365,-11,l),
(453,-11,l),
(453,74,l),
(542,74,l),
(542,552,l),
(453,552,l),
(453,638,l),
(149,638,l),
(149,552,l),
(61,552,l),
(61,74,l),
(149,74,l),
(149,-11,l),
(237,-11,l),
(237,-97,l),
(326,-97,l),
(326,-181,l)
);
},
{
closed = 1;
nodes = (
(188,501,l),
(414,501,l),
(414,125,l),
(188,125,l)
);
}
);
width = 603;
},
{
associatedMasterId = "6CDB3465-C44F-49AC-BF84-14420C40CC8C";
layerId = "247CFECD-2598-4D35-A3A7-5961DFED04F8";
name = img;
width = 603;
},
{
anchors = (
{
name = bottom;
pos = (293,0);
},
{
name = top;
pos = (293,700);
}
);
background = {
shapes = (
{
closed = 1;
nodes = (
(151,-12,l),
(241,-12,l),
(241,-103,l),
(333,-103,l),
(333,-192,l),
(433,-192,l),
(433,-93,l),
(343,-93,l),
(343,-12,l),
(433,-12,l),
(433,78,l),
(525,78,l),
(525,540,l),
(433,540,l),
(433,631,l),
(151,631,l),
(151,540,l),
(60,540,l),
(60,78,l),
(151,78,l)
);
},
{
closed = 1;
nodes = (
(161,88,l),
(161,530,l),
(423,530,l),
(423,88,l)
);
}
);
};
layerId = "6CDB3465-C44F-49AC-BF84-14420C40CC8C";
shapes = (
{
closed = 1;
nodes = (
(433,-192,l),
(433,-93,l),
(343,-93,l),
(343,-12,l),
(433,-12,l),
(433,78,l),
(525,78,l),
(525,540,l),
(433,540,l),
(433,631,l),
(151,631,l),
(151,540,l),
(60,540,l),
(60,78,l),
(151,78,l),
(151,-12,l),
(241,-12,l),
(241,-103,l),
(333,-103,l),
(333,-192,l)
);
},
{
closed = 1;
nodes = (
(161,530,l),
(423,530,l),
(423,88,l),
(161,88,l)
);
}
);
width = 586;
}
);
unicode = 81;
},
{
glyphname = R;
kernLeft = _K;
kernRight = _R;
lastChange = "2023-09-07 12:38:49 +0000";
layers = (
{
anchors = (
{
name = bottom;
pos = (302,0);
},
{
name = top;
pos = (302,700);
}
);
background = {
anchors = (
{
name = bottom;
pos = (293,-21);
},
{
name = top;
pos = (300,638);
}
);
shapes = (
{
closed = 1;
nodes = (
(61,-11,l),
(188,-11,l),
(188,160,l),
(281,160,l),
(281,74,l),
(371,74,l),
(371,-11,l),
(497,-11,l),
(497,125,l),
(410,125,l),
(410,160,l),
(453,160,l),
(453,246,l),
(542,246,l),
(542,552,l),
(453,552,l),
(453,638,l),
(149,638,l),
(149,552,l),
(61,552,l)
);
},
{
closed = 1;
nodes = (
(188,297,l),
(188,501,l),
(414,501,l),
(414,297,l)
);
}
);
};
layerId = "FEF53B85-F0C1-4BB8-A611-3AA340A355BB";
shapes = (
{
closed = 1;
nodes = (
(188,-11,l),
(188,160,l),
(281,160,l),
(281,74,l),
(371,74,l),
(371,-11,l),
(497,-11,l),
(497,125,l),
(410,125,l),
(410,160,l),
(453,160,l),
(453,246,l),
(542,246,l),
(542,552,l),
(453,552,l),
(453,638,l),
(149,638,l),
(149,552,l),
(61,552,l),
(61,-11,l)
);
},
{
closed = 1;
nodes = (
(188,501,l),
(414,501,l),
(414,297,l),
(188,297,l)
);
}
);
width = 603;
},
{
associatedMasterId = "6CDB3465-C44F-49AC-BF84-14420C40CC8C";
layerId = "247CFECD-2598-4D35-A3A7-5961DFED04F8";
name = img;
width = 603;
},
{
anchors = (
{
name = bottom;
pos = (293,0);
},
{
name = top;
pos = (293,700);
}
);
background = {
anchors = (
{
name = bottom;
pos = (292,-30);
},
{
name = top;
pos = (298,631);
}
);
shapes = (
{
closed = 1;
nodes = (
(60,-12,l),
(161,-12,l),
(161,169,l),
(287,169,l),
(287,78,l),
(379,78,l),
(379,-12,l),
(479,-12,l),
(479,88,l),
(389,88,l),
(389,169,l),
(433,169,l),
(433,260,l),
(525,260,l),
(525,540,l),
(433,540,l),
(433,631,l),
(151,631,l),
(151,540,l),
(60,540,l)
);
},
{
closed = 1;
nodes = (
(161,270,l),
(161,530,l),
(423,530,l),
(423,270,l)
);
}
);
};
layerId = "6CDB3465-C44F-49AC-BF84-14420C40CC8C";
shapes = (
{
closed = 1;
nodes = (
(161,-12,l),
(161,169,l),
(287,169,l),
(287,78,l),
(379,78,l),
(379,-12,l),
(479,-12,l),
(479,88,l),
(389,88,l),
(389,169,l),
(433,169,l),
(433,260,l),
(525,260,l),
(525,540,l),
(433,540,l),
(433,631,l),
(151,631,l),
(151,540,l),
(60,540,l),
(60,-12,l)
);
},
{
closed = 1;
nodes = (
(161,530,l),
(423,530,l),
(423,270,l),
(161,270,l)
);
}
);
width = 586;
}
);
unicode = 82;
},
{
color = (153,255,154,255);
glyphname = Racute;
kernLeft = _Racute;
kernRight = _Racute;
lastChange = "2023-09-07 12:48:38 +0000";
layers = (
{
anchors = (
{
name = bottom;
pos = (293,-21);
}
);
background = {
anchors = (
{
name = bottom;
pos = (293,-21);
},
{
name = top;
pos = (300,638);
}
);
shapes = (
{
closed = 1;
nodes = (
(61,-11,l),
(188,-11,l),
(188,160,l),
(281,160,l),
(281,74,l),
(371,74,l),
(371,-11,l),
(497,-11,l),
(497,125,l),
(410,125,l),
(410,160,l),
(453,160,l),
(453,246,l),
(542,246,l),
(542,552,l),
(453,552,l),
(453,638,l),
(149,638,l),
(149,552,l),
(61,552,l)
);
},
{
closed = 1;
nodes = (
(188,297,l),
(188,501,l),
(414,501,l),
(414,297,l)
);
},
{
closed = 1;
nodes = (
(340,723,l),
(340,766,l),
(384,766,l),
(384,860,l),
(302,860,l),
(302,816,l),
(257,816,l),
(257,774,l),
(213,774,l),
(213,681,l),
(296,681,l),
(296,723,l)
);
}
);
};
layerId = "FEF53B85-F0C1-4BB8-A611-3AA340A355BB";
shapes = (
{
ref = R;
},
{
pos = (150,233);
ref = acutecomb;
}
);
width = 603;
},
{
anchors = (
{
name = bottom;
pos = (292,-30);
}
);
background = {
anchors = (
{
name = bottom;
pos = (292,-30);
},
{
name = top;
pos = (298,631);
}
);
shapes = (
{
closed = 1;
nodes = (
(60,-12,l),
(161,-12,l),
(161,169,l),
(287,169,l),
(287,78,l),
(379,78,l),
(379,-12,l),
(479,-12,l),
(479,88,l),
(389,88,l),
(389,169,l),
(433,169,l),
(433,260,l),
(525,260,l),
(525,540,l),
(433,540,l),
(433,631,l),
(151,631,l),
(151,540,l),
(60,540,l)
);
},
{
closed = 1;
nodes = (
(161,270,l),
(161,530,l),
(423,530,l),
(423,270,l)
);
},
{
closed = 1;
nodes = (
(311,748,l),
(311,794,l),
(356,794,l),
(356,849,l),
(301,849,l),
(301,803,l),
(255,803,l),
(255,758,l),
(210,758,l),
(210,704,l),
(265,704,l),
(265,748,l)
);
}
);
};
layerId = "6CDB3465-C44F-49AC-BF84-14420C40CC8C";
shapes = (
{
ref = R;
},
{
pos = (128,250);
ref = acutecomb;
}
);
width = 586;
}
);
unicode = 340;
},
{
color = (153,255,154,255);
glyphname = Rcaron;
kernLeft = _Racute;
kernRight = _Racute;
lastChange = "2023-09-07 12:48:38 +0000";
layers = (
{
anchors = (
{
name = bottom;
pos = (293,-21);
}
);
background = {
anchors = (
{
name = bottom;
pos = (293,-21);
},
{
name = top;
pos = (300,638);
}
);
shapes = (
{
closed = 1;
nodes = (
(61,-11,l),
(188,-11,l),
(188,160,l),
(281,160,l),
(281,74,l),
(371,74,l),
(371,-11,l),
(497,-11,l),
(497,125,l),
(410,125,l),
(410,160,l),
(453,160,l),
(453,246,l),
(542,246,l),
(542,552,l),
(453,552,l),
(453,638,l),
(149,638,l),
(149,552,l),
(61,552,l)
);
},
{
closed = 1;
nodes = (
(188,297,l),
(188,501,l),
(414,501,l),
(414,297,l)
);
},
{
closed = 1;
nodes = (
(215,809,l),
(297,809,l),
(297,766,l),
(303,766,l),
(303,809,l),
(386,809,l),
(386,716,l),
(342,716,l),
(342,672,l),
(259,672,l),
(259,716,l),
(215,716,l)
);
}
);
};
layerId = "FEF53B85-F0C1-4BB8-A611-3AA340A355BB";
shapes = (
{
ref = R;
},
{
pos = (153,233);
ref = caroncomb;
}
);
width = 603;
},
{
anchors = (
{
name = bottom;
pos = (292,-30);
}
);
background = {
anchors = (
{
name = bottom;
pos = (292,-30);
},
{
name = top;
pos = (298,631);
}
);
shapes = (
{
closed = 1;
nodes = (
(60,-12,l),
(161,-12,l),
(161,169,l),
(287,169,l),
(287,78,l),
(379,78,l),
(379,-12,l),
(479,-12,l),
(479,88,l),
(389,88,l),
(389,169,l),
(433,169,l),
(433,260,l),
(525,260,l),
(525,540,l),
(433,540,l),
(433,631,l),
(151,631,l),
(151,540,l),
(60,540,l)
);
},
{
closed = 1;
nodes = (
(161,270,l),
(161,530,l),
(423,530,l),
(423,270,l)
);
},
{
closed = 1;
nodes = (
(225,795,l),
(280,795,l),
(280,749,l),
(316,749,l),
(316,795,l),
(371,795,l),
(371,740,l),
(326,740,l),
(326,694,l),
(270,694,l),
(270,740,l),
(225,740,l)
);
}
);
};
layerId = "6CDB3465-C44F-49AC-BF84-14420C40CC8C";
shapes = (
{
ref = R;
},
{
pos = (143,250);
ref = caroncomb;
}
);
width = 586;
}
);
unicode = 344;
},
{
color = (153,255,154,255);
glyphname = Rcommaaccent;
kernLeft = _K;
kernRight = _R;
lastChange = "2023-09-07 12:58:16 +0000";
layers = (
{
anchors = (
{
name = top;
pos = (300,638);
}
);
background = {
anchors = (
{
name = bottom;
pos = (293,-21);
},
{
name = top;
pos = (300,638);
}
);
shapes = (
{
closed = 1;
nodes = (
(61,-11,l),
(188,-11,l),
(188,160,l),
(281,160,l),
(281,74,l),
(371,74,l),
(371,-11,l),
(497,-11,l),
(497,125,l),
(410,125,l),
(410,160,l),
(453,160,l),
(453,246,l),
(542,246,l),
(542,552,l),
(453,552,l),
(453,638,l),
(149,638,l),
(149,552,l),
(61,552,l)
);
},
{
closed = 1;
nodes = (
(188,297,l),
(188,501,l),
(414,501,l),
(414,297,l)
);
},
{
closed = 1;
nodes = (
(270,-259,l),
(270,-195,l),
(270,-194,l),
(270,-174,l),
(226,-174,l),
(226,-37,l),
(353,-37,l),
(353,-123,l),
(397,-123,l),
(397,-215,l),
(353,-215,l),
(353,-259,l)
);
}
);
};
layerId = "FEF53B85-F0C1-4BB8-A611-3AA340A355BB";
shapes = (
{
ref = R;
},
{
pos = (147,0);
ref = commaaccentcomb;
}
);
width = 603;
},
{
anchors = (
{
name = top;
pos = (298,631);
}
);
background = {
anchors = (
{
name = bottom;
pos = (292,-30);
},
{
name = top;
pos = (298,631);
}
);
shapes = (
{
closed = 1;
nodes = (
(60,-12,l),
(161,-12,l),
(161,169,l),
(287,169,l),
(287,78,l),
(379,78,l),
(379,-12,l),
(479,-12,l),
(479,88,l),
(389,88,l),
(389,169,l),
(433,169,l),
(433,260,l),
(525,260,l),
(525,540,l),
(433,540,l),
(433,631,l),
(151,631,l),
(151,540,l),
(60,540,l)
);
},
{
closed = 1;
nodes = (
(161,270,l),
(161,530,l),
(423,530,l),
(423,270,l)
);
},
{
closed = 1;
nodes = (
(272,-242,l),
(272,-186,l),
(318,-186,l),
(318,-152,l),
(227,-152,l),
(227,-51,l),
(328,-51,l),
(328,-142,l),
(373,-142,l),
(373,-196,l),
(328,-196,l),
(328,-242,l)
);
}
);
};
layerId = "6CDB3465-C44F-49AC-BF84-14420C40CC8C";
shapes = (
{
ref = R;
},
{
pos = (147,0);
ref = commaaccentcomb;
}
);
width = 586;
}
);
unicode = 342;
},
{
glyphname = S;
kernLeft = _S;
kernRight = _S1;
lastChange = "2023-09-07 12:38:49 +0000";
layers = (
{
anchors = (
{
name = bottom;
pos = (302,0);
},
{
name = top;
pos = (302,700);
}
);
background = {
anchors = (
{
name = bottom;
pos = (300,-12);
},
{
name = top;
pos = (300,638);
}
);
shapes = (
{
closed = 1;
nodes = (
(61,74,l),
(61,211,l),
(188,211,l),
(188,125,l),
(414,125,l),
(414,246,l),
(149,246,l),
(149,331,l),
(61,331,l),
(61,552,l),
(149,552,l),
(149,638,l),
(453,638,l),
(453,552,l),
(542,552,l),
(542,416,l),
(414,416,l),
(414,501,l),
(188,501,l),
(188,381,l),
(453,381,l),
(453,297,l),
(542,297,l),
(542,74,l),
(453,74,l),
(453,-11,l),
(149,-11,l),
(149,74,l)
);
}
);
};
layerId = "FEF53B85-F0C1-4BB8-A611-3AA340A355BB";
shapes = (
{
closed = 1;
nodes = (
(453,-11,l),
(453,74,l),
(542,74,l),
(542,297,l),
(453,297,l),
(453,381,l),
(188,381,l),
(188,501,l),
(414,501,l),
(414,416,l),
(542,416,l),
(542,552,l),
(453,552,l),
(453,638,l),
(149,638,l),
(149,552,l),
(61,552,l),
(61,331,l),
(149,331,l),
(149,246,l),
(414,246,l),
(414,125,l),
(188,125,l),
(188,211,l),
(61,211,l),
(61,74,l),
(149,74,l),
(149,-11,l)
);
}
);
width = 603;
},
{
associatedMasterId = "6CDB3465-C44F-49AC-BF84-14420C40CC8C";
layerId = "247CFECD-2598-4D35-A3A7-5961DFED04F8";
name = img;
width = 603;
},
{
anchors = (
{
name = bottom;
pos = (293,0);
},
{
name = top;
pos = (293,700);
}
);
background = {
shapes = (
{
closed = 1;
nodes = (
(60,78,l),
(60,179,l),
(161,179,l),
(161,88,l),
(423,88,l),
(423,260,l),
(151,260,l),
(151,350,l),
(60,350,l),
(60,540,l),
(151,540,l),
(151,631,l),
(433,631,l),
(433,540,l),
(525,540,l),
(525,440,l),
(423,440,l),
(423,530,l),
(161,530,l),
(161,359,l),
(433,359,l),
(433,270,l),
(525,270,l),
(525,78,l),
(433,78,l),
(433,-12,l),
(151,-12,l),
(151,78,l)
);
}
);
};
layerId = "6CDB3465-C44F-49AC-BF84-14420C40CC8C";
shapes = (
{
closed = 1;
nodes = (
(433,-12,l),
(433,78,l),
(525,78,l),
(525,270,l),
(433,270,l),
(433,359,l),
(161,359,l),
(161,530,l),
(423,530,l),
(423,440,l),
(525,440,l),
(525,540,l),
(433,540,l),
(433,631,l),
(151,631,l),
(151,540,l),
(60,540,l),
(60,350,l),
(151,350,l),
(151,260,l),
(423,260,l),
(423,88,l),
(161,88,l),
(161,179,l),
(60,179,l),
(60,78,l),
(151,78,l),
(151,-12,l)
);
}
);
width = 586;
}
);
unicode = 83;
},
{
color = (153,255,154,255);
glyphname = Sacute;
kernLeft = _Sacute;
kernRight = _Sacute;
lastChange = "2023-09-07 13:09:28 +0000";
layers = (
{
background = {
anchors = (
{
name = bottom;
pos = (300,-12);
},
{
name = top;
pos = (300,638);
}
);
shapes = (
{
closed = 1;
nodes = (
(61,74,l),
(61,211,l),
(188,211,l),
(188,125,l),
(414,125,l),
(414,246,l),
(149,246,l),
(149,331,l),
(61,331,l),
(61,552,l),
(149,552,l),
(149,638,l),
(453,638,l),
(453,552,l),
(542,552,l),
(542,416,l),
(414,416,l),
(414,501,l),
(188,501,l),
(188,381,l),
(453,381,l),
(453,297,l),
(542,297,l),
(542,74,l),
(453,74,l),
(453,-11,l),
(149,-11,l),
(149,74,l)
);
},
{
closed = 1;
nodes = (
(340,723,l),
(340,766,l),
(384,766,l),
(384,860,l),
(302,860,l),
(302,816,l),
(257,816,l),
(257,774,l),
(213,774,l),
(213,681,l),
(296,681,l),
(296,723,l)
);
}
);
};
layerId = "FEF53B85-F0C1-4BB8-A611-3AA340A355BB";
shapes = (
{
ref = S;
},
{
pos = (150,233);
ref = acutecomb;
}
);
width = 603;
},
{
background = {
shapes = (
{
closed = 1;
nodes = (
(60,78,l),
(60,179,l),
(161,179,l),
(161,88,l),
(423,88,l),
(423,260,l),
(151,260,l),
(151,350,l),
(60,350,l),
(60,540,l),
(151,540,l),
(151,631,l),
(433,631,l),
(433,540,l),
(525,540,l),
(525,440,l),
(423,440,l),
(423,530,l),
(161,530,l),
(161,359,l),
(433,359,l),
(433,270,l),
(525,270,l),
(525,78,l),
(433,78,l),
(433,-12,l),
(151,-12,l),
(151,78,l)
);
},
{
closed = 1;
nodes = (
(321,834,l),
(321,880,l),
(366,880,l),
(366,935,l),
(311,935,l),
(311,889,l),
(265,889,l),
(265,844,l),
(220,844,l),
(220,790,l),
(275,790,l),
(275,834,l)
);
}
);
};
layerId = "6CDB3465-C44F-49AC-BF84-14420C40CC8C";
shapes = (
{
ref = S;
},
{
pos = (128,250);
ref = acutecomb;
}
);
width = 586;
}
);
unicode = 346;
},
{
color = (153,255,154,255);
glyphname = Scaron;
kernLeft = _Sacute;
kernRight = _Sacute;
lastChange = "2023-09-07 13:09:28 +0000";
layers = (
{
background = {
anchors = (
{
name = bottom;
pos = (300,-12);
},
{
name = top;
pos = (300,638);
}
);
shapes = (
{
closed = 1;
nodes = (
(61,74,l),
(61,211,l),
(188,211,l),
(188,125,l),
(414,125,l),
(414,246,l),
(149,246,l),
(149,331,l),
(61,331,l),
(61,552,l),
(149,552,l),
(149,638,l),
(453,638,l),
(453,552,l),
(542,552,l),
(542,416,l),
(414,416,l),
(414,501,l),
(188,501,l),
(188,381,l),
(453,381,l),
(453,297,l),
(542,297,l),
(542,74,l),
(453,74,l),
(453,-11,l),
(149,-11,l),
(149,74,l)
);
},
{
closed = 1;
nodes = (
(215,809,l),
(297,809,l),
(297,766,l),
(303,766,l),
(303,809,l),
(386,809,l),
(386,716,l),
(342,716,l),
(342,672,l),
(259,672,l),
(259,716,l),
(215,716,l)
);
}
);
};
layerId = "FEF53B85-F0C1-4BB8-A611-3AA340A355BB";
shapes = (
{
ref = S;
},
{
pos = (153,233);
ref = caroncomb;
}
);
width = 603;
},
{
background = {
shapes = (
{
closed = 1;
nodes = (
(60,78,l),
(60,179,l),
(161,179,l),
(161,88,l),
(423,88,l),
(423,260,l),
(151,260,l),
(151,350,l),
(60,350,l),
(60,540,l),
(151,540,l),
(151,631,l),
(433,631,l),
(433,540,l),
(525,540,l),
(525,440,l),
(423,440,l),
(423,530,l),
(161,530,l),
(161,359,l),
(433,359,l),
(433,270,l),
(525,270,l),
(525,78,l),
(433,78,l),
(433,-12,l),
(151,-12,l),
(151,78,l)
);
},
{
closed = 1;
nodes = (
(220,881,l),
(275,881,l),
(275,835,l),
(311,835,l),
(311,881,l),
(366,881,l),
(366,826,l),
(321,826,l),
(321,780,l),
(265,780,l),
(265,826,l),
(220,826,l)
);
}
);
};
layerId = "6CDB3465-C44F-49AC-BF84-14420C40CC8C";
shapes = (
{
ref = S;
},
{
pos = (143,250);
ref = caroncomb;
}
);
width = 586;
}
);
unicode = 352;
},
{
color = (153,255,154,255);
glyphname = Scedilla;
kernLeft = _S;
kernRight = _S1;
lastChange = "2023-09-07 13:09:28 +0000";
layers = (
{
background = {
anchors = (
{
name = bottom;
pos = (300,-12);
},
{
name = top;
pos = (300,638);
}
);
shapes = (
{
closed = 1;
nodes = (
(61,74,l),
(61,211,l),
(188,211,l),
(188,125,l),
(414,125,l),
(414,246,l),
(149,246,l),
(149,331,l),
(61,331,l),
(61,552,l),
(149,552,l),
(149,638,l),
(453,638,l),
(453,552,l),
(542,552,l),
(542,416,l),
(414,416,l),
(414,501,l),
(188,501,l),
(188,381,l),
(453,381,l),
(453,297,l),
(542,297,l),
(542,74,l),
(453,74,l),
(453,-11,l),
(149,-11,l),
(149,74,l)
);
},
{
closed = 1;
nodes = (
(149,-158,l),
(193,-158,l),
(193,-201,l),
(364,-201,l),
(364,-158,l),
(408,-158,l),
(408,-121,l),
(408,-102,l),
(408,-65,l),
(364,-65,l),
(364,9,l),
(237,9,l),
(237,-73,l),
(281,-73,l),
(281,-90,l),
(281,-90,l),
(281,-107,l),
(232,-107,l),
(232,-65,l),
(149,-65,l)
);
}
);
};
layerId = "FEF53B85-F0C1-4BB8-A611-3AA340A355BB";
shapes = (
{
ref = S;
},
{
pos = (131,0);
ref = cedillacomb;
}
);
width = 603;
},
{
background = {
shapes = (
{
closed = 1;
nodes = (
(60,78,l),
(60,179,l),
(161,179,l),
(161,88,l),
(423,88,l),
(423,260,l),
(151,260,l),
(151,350,l),
(60,350,l),
(60,540,l),
(151,540,l),
(151,631,l),
(433,631,l),
(433,540,l),
(525,540,l),
(525,440,l),
(423,440,l),
(423,530,l),
(161,530,l),
(161,359,l),
(433,359,l),
(433,270,l),
(525,270,l),
(525,78,l),
(433,78,l),
(433,-12,l),
(151,-12,l),
(151,78,l)
);
},
{
closed = 1;
nodes = (
(175,-155,l),
(221,-155,l),
(221,-200,l),
(367,-200,l),
(367,-155,l),
(412,-155,l),
(412,-100,l),
(367,-100,l),
(367,-55,l),
(321,-55,l),
(321,37,l),
(266,37,l),
(266,-65,l),
(311,-65,l),
(311,-110,l),
(357,-110,l),
(357,-145,l),
(231,-145,l),
(231,-100,l),
(175,-100,l)
);
}
);
};
layerId = "6CDB3465-C44F-49AC-BF84-14420C40CC8C";
shapes = (
{
ref = S;
},
{
pos = (144,0);
ref = cedillacomb;
}
);
width = 586;
}
);
unicode = 350;
},
{
color = (153,255,154,255);
glyphname = Scircumflex;
lastChange = "2023-09-07 13:09:28 +0000";
layers = (
{
background = {
anchors = (
{
name = bottom;
pos = (300,-12);
},
{
name = top;
pos = (300,638);
}
);
shapes = (
{
closed = 1;
nodes = (
(61,74,l),
(61,211,l),
(188,211,l),
(188,125,l),
(414,125,l),
(414,246,l),
(149,246,l),
(149,331,l),
(61,331,l),
(61,552,l),
(149,552,l),
(149,638,l),
(453,638,l),
(453,552,l),
(542,552,l),
(542,416,l),
(414,416,l),
(414,501,l),
(188,501,l),
(188,381,l),
(453,381,l),
(453,297,l),
(542,297,l),
(542,74,l),
(453,74,l),
(453,-11,l),
(149,-11,l),
(149,74,l)
);
},
{
closed = 1;
nodes = (
(215,672,l),
(297,672,l),
(297,715,l),
(303,715,l),
(303,672,l),
(386,672,l),
(386,765,l),
(342,765,l),
(342,809,l),
(259,809,l),
(259,765,l),
(215,765,l)
);
}
);
};
layerId = "FEF53B85-F0C1-4BB8-A611-3AA340A355BB";
shapes = (
{
ref = S;
},
{
pos = (153,233);
ref = circumflexcomb;
}
);
width = 603;
},
{
background = {
shapes = (
{
closed = 1;
nodes = (
(60,78,l),
(60,179,l),
(161,179,l),
(161,88,l),
(423,88,l),
(423,260,l),
(151,260,l),
(151,350,l),
(60,350,l),
(60,540,l),
(151,540,l),
(151,631,l),
(433,631,l),
(433,540,l),
(525,540,l),
(525,440,l),
(423,440,l),
(423,530,l),
(161,530,l),
(161,359,l),
(433,359,l),
(433,270,l),
(525,270,l),
(525,78,l),
(433,78,l),
(433,-12,l),
(151,-12,l),
(151,78,l)
);
},
{
closed = 1;
nodes = (
(220,780,l),
(275,780,l),
(275,826,l),
(311,826,l),
(311,780,l),
(366,780,l),
(366,835,l),
(321,835,l),
(321,881,l),
(265,881,l),
(265,835,l),
(220,835,l)
);
}
);
};
layerId = "6CDB3465-C44F-49AC-BF84-14420C40CC8C";
shapes = (
{
ref = S;
},
{
pos = (143,250);
ref = circumflexcomb;
}
);
width = 586;
}
);
unicode = 348;
},
{
color = (153,255,154,255);
glyphname = Scommaaccent;
kernLeft = _S;
kernRight = _S1;
lastChange = "2023-09-07 13:09:28 +0000";
layers = (
{
background = {
anchors = (
{
name = bottom;
pos = (300,-12);
},
{
name = top;
pos = (300,638);
}
);
shapes = (
{
closed = 1;
nodes = (
(61,74,l),
(61,211,l),
(188,211,l),
(188,125,l),
(414,125,l),
(414,246,l),
(149,246,l),
(149,331,l),
(61,331,l),
(61,552,l),
(149,552,l),
(149,638,l),
(453,638,l),
(453,552,l),
(542,552,l),
(542,416,l),
(414,416,l),
(414,501,l),
(188,501,l),
(188,381,l),
(453,381,l),
(453,297,l),
(542,297,l),
(542,74,l),
(453,74,l),
(453,-11,l),
(149,-11,l),
(149,74,l)
);
},
{
closed = 1;
nodes = (
(277,-250,l),
(277,-186,l),
(277,-185,l),
(277,-165,l),
(233,-165,l),
(233,-28,l),
(360,-28,l),
(360,-114,l),
(404,-114,l),
(404,-206,l),
(360,-206,l),
(360,-250,l)
);
}
);
};
layerId = "FEF53B85-F0C1-4BB8-A611-3AA340A355BB";
shapes = (
{
ref = S;
},
{
pos = (147,0);
ref = commaaccentcomb;
}
);
width = 603;
},
{
background = {
shapes = (
{
closed = 1;
nodes = (
(60,78,l),
(60,179,l),
(161,179,l),
(161,88,l),
(423,88,l),
(423,260,l),
(151,260,l),
(151,350,l),
(60,350,l),
(60,540,l),
(151,540,l),
(151,631,l),
(433,631,l),
(433,540,l),
(525,540,l),
(525,440,l),
(423,440,l),
(423,530,l),
(161,530,l),
(161,359,l),
(433,359,l),
(433,270,l),
(525,270,l),
(525,78,l),
(433,78,l),
(433,-12,l),
(151,-12,l),
(151,78,l)
);
},
{
closed = 1;
nodes = (
(265,-212,l),
(265,-156,l),
(311,-156,l),
(311,-122,l),
(220,-122,l),
(220,-21,l),
(321,-21,l),
(321,-112,l),
(366,-112,l),
(366,-166,l),
(321,-166,l),
(321,-212,l)
);
}
);
};
layerId = "6CDB3465-C44F-49AC-BF84-14420C40CC8C";
shapes = (
{
ref = S;
},
{
pos = (147,0);
ref = commaaccentcomb;
}
);
width = 586;
}
);
unicode = 536;
},
{
color = 9;
glyphname = Germandbls;
lastChange = "2023-09-07 12:38:49 +0000";
layers = (
{
associatedMasterId = "6CDB3465-C44F-49AC-BF84-14420C40CC8C";
layerId = "247CFECD-2598-4D35-A3A7-5961DFED04F8";
name = img;
shapes = (
{
alignment = -1;
ref = l;
},
{
alignment = -1;
ref = three;
}
);
width = 249;
},
{
anchors = (
{
name = bottom;
pos = (337,0);
},
{
name = top;
pos = (337,700);
}
);
background = {
shapes = (
{
closed = 1;
nodes = (
(61,-11,l),
(188,-11,l),
(188,638,l),
(61,638,l)
);
},
{
closed = 1;
nodes = (
(219,-11,l),
(523,-11,l),
(523,74,l),
(612,74,l),
(612,297,l),
(523,297,l),
(523,331,l),
(612,331,l),
(612,552,l),
(523,552,l),
(523,638,l),
(119,638,l),
(119,501,l),
(484,501,l),
(484,381,l),
(319,381,l),
(319,246,l),
(484,246,l),
(484,125,l),
(219,125,l)
);
}
);
};
layerId = "FEF53B85-F0C1-4BB8-A611-3AA340A355BB";
shapes = (
{
closed = 1;
nodes = (
(523,-11,l),
(523,74,l),
(612,74,l),
(612,297,l),
(523,297,l),
(523,331,l),
(612,331,l),
(612,552,l),
(523,552,l),
(523,638,l),
(119,638,l),
(119,501,l),
(484,501,l),
(484,381,l),
(319,381,l),
(319,246,l),
(484,246,l),
(484,125,l),
(219,125,l),
(219,-11,l)
);
},
{
closed = 1;
nodes = (
(188,-11,l),
(188,638,l),
(61,638,l),
(61,-11,l)
);
}
);
width = 674;
},
{
anchors = (
{
name = bottom;
pos = (328,0);
},
{
name = top;
pos = (328,700);
}
);
background = {
shapes = (
{
closed = 1;
nodes = (
(60,-12,l),
(161,-12,l),
(161,631,l),
(60,631,l)
);
},
{
closed = 1;
nodes = (
(221,-12,l),
(503,-12,l),
(503,78,l),
(595,78,l),
(595,270,l),
(503,270,l),
(503,350,l),
(595,350,l),
(595,540,l),
(503,540,l),
(503,631,l),
(121,631,l),
(121,530,l),
(493,530,l),
(493,359,l),
(321,359,l),
(321,260,l),
(493,260,l),
(493,88,l),
(221,88,l)
);
}
);
};
layerId = "6CDB3465-C44F-49AC-BF84-14420C40CC8C";
shapes = (
{
closed = 1;
nodes = (
(503,-12,l),
(503,78,l),
(595,78,l),
(595,270,l),
(503,270,l),
(503,350,l),
(595,350,l),
(595,540,l),
(503,540,l),
(503,631,l),
(121,631,l),
(121,530,l),
(493,530,l),
(493,359,l),
(321,359,l),
(321,260,l),
(493,260,l),
(493,88,l),
(221,88,l),
(221,-12,l)
);
},
{
closed = 1;
nodes = (
(161,-12,l),
(161,631,l),
(60,631,l),
(60,-12,l)
);
}
);
width = 655;
}
);
unicode = 7838;
},
{
glyphname = T;
kernLeft = _T;
kernRight = _T1;
lastChange = "2023-09-07 12:38:49 +0000";
layers = (
{
anchors = (
{
name = bottom;
pos = (302,0);
},
{
name = center;
pos = (302,350);
},
{
name = top;
pos = (302,700);
}
);
background = {
anchors = (
{
name = bottom;
pos = (302,-34);
},
{
name = top;
pos = (300,638);
}
);
shapes = (
{
closed = 1;
nodes = (
(237,-11,l),
(365,-11,l),
(365,501,l),
(414,501,l),
(414,416,l),
(542,416,l),
(542,552,l),
(453,552,l),
(453,638,l),
(149,638,l),
(149,552,l),
(61,552,l),
(61,416,l),
(188,416,l),
(188,501,l),
(237,501,l)
);
}
);
};
layerId = "FEF53B85-F0C1-4BB8-A611-3AA340A355BB";
shapes = (
{
closed = 1;
nodes = (
(365,-11,l),
(365,501,l),
(414,501,l),
(414,416,l),
(542,416,l),
(542,552,l),
(453,552,l),
(453,638,l),
(149,638,l),
(149,552,l),
(61,552,l),
(61,416,l),
(188,416,l),
(188,501,l),
(237,501,l),
(237,-11,l)
);
}
);
width = 603;
},
{
associatedMasterId = "6CDB3465-C44F-49AC-BF84-14420C40CC8C";
layerId = "247CFECD-2598-4D35-A3A7-5961DFED04F8";
name = img;
width = 603;
},
{
anchors = (
{
name = bottom;
pos = (293,0);
},
{
name = center;
pos = (293,350);
},
{
name = top;
pos = (293,700);
}
);
background = {
anchors = (
{
name = bottom;
pos = (292,-32);
},
{
name = top;
pos = (293,631);
}
);
shapes = (
{
closed = 1;
nodes = (
(241,-12,l),
(343,-12,l),
(343,530,l),
(423,530,l),
(423,440,l),
(525,440,l),
(525,540,l),
(433,540,l),
(433,631,l),
(151,631,l),
(151,540,l),
(60,540,l),
(60,440,l),
(161,440,l),
(161,530,l),
(241,530,l)
);
}
);
};
layerId = "6CDB3465-C44F-49AC-BF84-14420C40CC8C";
shapes = (
{
closed = 1;
nodes = (
(343,-12,l),
(343,530,l),
(423,530,l),
(423,440,l),
(525,440,l),
(525,540,l),
(433,540,l),
(433,631,l),
(151,631,l),
(151,540,l),
(60,540,l),
(60,440,l),
(161,440,l),
(161,530,l),
(241,530,l),
(241,-12,l)
);
}
);
width = 586;
}
);
unicode = 84;
},
{
glyphname = Tbar;
lastChange = "2023-09-07 12:36:37 +0000";
layers = (
{
background = {
shapes = (
{
closed = 1;
nodes = (
(239,-12,l),
(369,-12,l),
(369,238,l),
(457,238,l),
(457,359,l),
(369,359,l),
(369,514,l),
(418,514,l),
(418,426,l),
(548,426,l),
(548,547,l),
(457,547,l),
(457,635,l),
(150,635,l),
(150,547,l),
(60,547,l),
(60,426,l),
(189,426,l),
(189,514,l),
(239,514,l),
(239,359,l),
(150,359,l),
(150,238,l),
(239,238,l)
);
}
);
};
layerId = "FEF53B85-F0C1-4BB8-A611-3AA340A355BB";
shapes = (
{
closed = 1;
nodes = (
(369,-12,l),
(369,238,l),
(457,238,l),
(457,359,l),
(369,359,l),
(369,514,l),
(418,514,l),
(418,426,l),
(548,426,l),
(548,547,l),
(457,547,l),
(457,635,l),
(150,635,l),
(150,547,l),
(60,547,l),
(60,426,l),
(189,426,l),
(189,514,l),
(239,514,l),
(239,359,l),
(150,359,l),
(150,238,l),
(239,238,l),
(239,-12,l)
);
}
);
width = 626;
},
{
associatedMasterId = "6CDB3465-C44F-49AC-BF84-14420C40CC8C";
layerId = "247CFECD-2598-4D35-A3A7-5961DFED04F8";
name = img;
width = 626;
},
{
background = {
shapes = (
{
closed = 1;
nodes = (
(241,-12,l),
(343,-12,l),
(343,296,l),
(433,296,l),
(433,397,l),
(343,397,l),
(343,530,l),
(423,530,l),
(423,440,l),
(525,440,l),
(525,540,l),
(433,540,l),
(433,631,l),
(151,631,l),
(151,540,l),
(60,540,l),
(60,440,l),
(161,440,l),
(161,530,l),
(241,530,l),
(241,397,l),
(151,397,l),
(151,296,l),
(241,296,l)
);
}
);
};
layerId = "6CDB3465-C44F-49AC-BF84-14420C40CC8C";
shapes = (
{
closed = 1;
nodes = (
(343,-12,l),
(343,296,l),
(433,296,l),
(433,397,l),
(343,397,l),
(343,530,l),
(423,530,l),
(423,440,l),
(525,440,l),
(525,540,l),
(433,540,l),
(433,631,l),
(151,631,l),
(151,540,l),
(60,540,l),
(60,440,l),
(161,440,l),
(161,530,l),
(241,530,l),
(241,397,l),
(151,397,l),
(151,296,l),
(241,296,l),
(241,-12,l)
);
}
);
width = 586;
}
);
unicode = 358;
},
{
color = (153,255,154,255);
glyphname = Tcaron;
lastChange = "2023-09-07 12:48:38 +0000";
layers = (
{
anchors = (
{
name = bottom;
pos = (302,-34);
}
);
background = {
anchors = (
{
name = bottom;
pos = (302,-34);
},
{
name = top;
pos = (300,638);
}
);
shapes = (
{
closed = 1;
nodes = (
(237,-11,l),
(365,-11,l),
(365,501,l),
(414,501,l),
(414,416,l),
(542,416,l),
(542,552,l),
(453,552,l),
(453,638,l),
(149,638,l),
(149,552,l),
(61,552,l),
(61,416,l),
(188,416,l),
(188,501,l),
(237,501,l)
);
},
{
closed = 1;
nodes = (
(215,809,l),
(297,809,l),
(297,766,l),
(303,766,l),
(303,809,l),
(386,809,l),
(386,716,l),
(342,716,l),
(342,672,l),
(259,672,l),
(259,716,l),
(215,716,l)
);
}
);
};
layerId = "FEF53B85-F0C1-4BB8-A611-3AA340A355BB";
shapes = (
{
ref = T;
},
{
pos = (153,233);
ref = caroncomb;
}
);
width = 603;
},
{
anchors = (
{
name = bottom;
pos = (292,-32);
}
);
background = {
anchors = (
{
name = bottom;
pos = (292,-32);
},
{
name = top;
pos = (293,631);
}
);
shapes = (
{
closed = 1;
nodes = (
(241,-12,l),
(343,-12,l),
(343,530,l),
(423,530,l),
(423,440,l),
(525,440,l),
(525,540,l),
(433,540,l),
(433,631,l),
(151,631,l),
(151,540,l),
(60,540,l),
(60,440,l),
(161,440,l),
(161,530,l),
(241,530,l)
);
},
{
closed = 1;
nodes = (
(220,795,l),
(275,795,l),
(275,749,l),
(311,749,l),
(311,795,l),
(366,795,l),
(366,740,l),
(321,740,l),
(321,694,l),
(265,694,l),
(265,740,l),
(220,740,l)
);
}
);
};
layerId = "6CDB3465-C44F-49AC-BF84-14420C40CC8C";
shapes = (
{
ref = T;
},
{
pos = (143,250);
ref = caroncomb;
}
);
width = 586;
}
);
unicode = 356;
},
{
color = (153,255,154,255);
glyphname = Tcedilla;
lastChange = "2023-09-07 13:39:44 +0000";
layers = (
{
background = {
anchors = (
{
name = _bottom;
pos = (300,0);
},
{
name = bottom;
pos = (302,-34);
},
{
name = top;
pos = (300,638);
}
);
shapes = (
{
closed = 1;
nodes = (
(237,-11,l),
(365,-11,l),
(365,501,l),
(414,501,l),
(414,416,l),
(542,416,l),
(542,552,l),
(453,552,l),
(453,638,l),
(149,638,l),
(149,552,l),
(61,552,l),
(61,416,l),
(188,416,l),
(188,501,l),
(237,501,l)
);
},
{
closed = 1;
nodes = (
(149,-146,l),
(193,-146,l),
(193,-189,l),
(364,-189,l),
(364,-146,l),
(408,-146,l),
(408,-109,l),
(408,-90,l),
(408,-53,l),
(364,-53,l),
(364,21,l),
(238,21,l),
(238,-61,l),
(281,-61,l),
(281,-78,l),
(281,-78,l),
(281,-95,l),
(232,-95,l),
(232,-53,l),
(149,-53,l)
);
}
);
};
layerId = "FEF53B85-F0C1-4BB8-A611-3AA340A355BB";
shapes = (
{
ref = T;
},
{
pos = (131,0);
ref = cedillacomb;
}
);
width = 603;
},
{
background = {
anchors = (
{
name = bottom;
pos = (292,-32);
},
{
name = top;
pos = (293,631);
}
);
shapes = (
{
closed = 1;
nodes = (
(241,-12,l),
(343,-12,l),
(343,530,l),
(423,530,l),
(423,440,l),
(525,440,l),
(525,540,l),
(433,540,l),
(433,631,l),
(151,631,l),
(151,540,l),
(60,540,l),
(60,440,l),
(161,440,l),
(161,530,l),
(241,530,l)
);
},
{
closed = 1;
nodes = (
(175,-155,l),
(221,-155,l),
(221,-200,l),
(367,-200,l),
(367,-155,l),
(412,-155,l),
(412,-100,l),
(367,-100,l),
(367,-55,l),
(321,-55,l),
(321,37,l),
(266,37,l),
(266,-65,l),
(311,-65,l),
(311,-110,l),
(357,-110,l),
(357,-145,l),
(231,-145,l),
(231,-100,l),
(175,-100,l)
);
}
);
};
layerId = "6CDB3465-C44F-49AC-BF84-14420C40CC8C";
shapes = (
{
ref = T;
},
{
pos = (144,0);
ref = cedillacomb;
}
);
width = 586;
}
);
unicode = 354;
},
{
color = (153,255,154,255);
glyphname = Tcommaaccent;
kernLeft = _T;
kernRight = _T1;
lastChange = "2023-09-07 12:58:16 +0000";
layers = (
{
anchors = (
{
name = top;
pos = (300,638);
}
);
background = {
anchors = (
{
name = bottom;
pos = (302,-34);
},
{
name = top;
pos = (300,638);
}
);
shapes = (
{
closed = 1;
nodes = (
(237,-11,l),
(365,-11,l),
(365,501,l),
(414,501,l),
(414,416,l),
(542,416,l),
(542,552,l),
(453,552,l),
(453,638,l),
(149,638,l),
(149,552,l),
(61,552,l),
(61,416,l),
(188,416,l),
(188,501,l),
(237,501,l)
);
},
{
closed = 1;
nodes = (
(279,-272,l),
(279,-208,l),
(279,-207,l),
(279,-187,l),
(235,-187,l),
(235,-50,l),
(362,-50,l),
(362,-136,l),
(406,-136,l),
(406,-228,l),
(362,-228,l),
(362,-272,l)
);
}
);
};
layerId = "FEF53B85-F0C1-4BB8-A611-3AA340A355BB";
shapes = (
{
ref = T;
},
{
pos = (147,0);
ref = commaaccentcomb;
}
);
width = 603;
},
{
anchors = (
{
name = top;
pos = (293,631);
}
);
background = {
anchors = (
{
name = bottom;
pos = (292,-32);
},
{
name = top;
pos = (293,631);
}
);
shapes = (
{
closed = 1;
nodes = (
(241,-12,l),
(343,-12,l),
(343,530,l),
(423,530,l),
(423,440,l),
(525,440,l),
(525,540,l),
(433,540,l),
(433,631,l),
(151,631,l),
(151,540,l),
(60,540,l),
(60,440,l),
(161,440,l),
(161,530,l),
(241,530,l)
);
},
{
closed = 1;
nodes = (
(272,-244,l),
(272,-188,l),
(318,-188,l),
(318,-154,l),
(227,-154,l),
(227,-53,l),
(328,-53,l),
(328,-144,l),
(373,-144,l),
(373,-198,l),
(328,-198,l),
(328,-244,l)
);
}
);
};
layerId = "6CDB3465-C44F-49AC-BF84-14420C40CC8C";
shapes = (
{
ref = T;
},
{
pos = (147,0);
ref = commaaccentcomb;
}
);
width = 586;
}
);
unicode = 538;
},
{
glyphname = U;
kernLeft = _L;
kernRight = _U;
lastChange = "2023-09-07 12:38:49 +0000";
layers = (
{
anchors = (
{
name = bottom;
pos = (302,0);
},
{
name = ogonek;
pos = (543,10);
},
{
name = top;
pos = (302,700);
},
{
name = topright;
pos = (583,700);
}
);
background = {
anchors = (
{
name = bottom;
pos = (298,-11);
},
{
name = top;
pos = (298,638);
}
);
shapes = (
{
closed = 1;
nodes = (
(61,74,l),
(149,74,l),
(149,-11,l),
(453,-11,l),
(453,74,l),
(542,74,l),
(542,638,l),
(414,638,l),
(414,125,l),
(188,125,l),
(188,638,l),
(61,638,l)
);
}
);
};
layerId = "FEF53B85-F0C1-4BB8-A611-3AA340A355BB";
shapes = (
{
closed = 1;
nodes = (
(453,-11,l),
(453,74,l),
(542,74,l),
(542,638,l),
(414,638,l),
(414,125,l),
(188,125,l),
(188,638,l),
(61,638,l),
(61,74,l),
(149,74,l),
(149,-11,l)
);
}
);
width = 603;
},
{
associatedMasterId = "6CDB3465-C44F-49AC-BF84-14420C40CC8C";
layerId = "247CFECD-2598-4D35-A3A7-5961DFED04F8";
name = img;
width = 603;
},
{
anchors = (
{
name = bottom;
pos = (293,0);
},
{
name = ogonek;
pos = (527,10);
},
{
name = top;
pos = (293,700);
},
{
name = topright;
pos = (566,700);
}
);
background = {
anchors = (
{
name = bottom;
pos = (290,-12);
},
{
name = top;
pos = (290,631);
}
);
shapes = (
{
closed = 1;
nodes = (
(60,78,l),
(151,78,l),
(151,-12,l),
(433,-12,l),
(433,78,l),
(525,78,l),
(525,631,l),
(423,631,l),
(423,88,l),
(161,88,l),
(161,631,l),
(60,631,l)
);
}
);
};
layerId = "6CDB3465-C44F-49AC-BF84-14420C40CC8C";
shapes = (
{
closed = 1;
nodes = (
(433,-12,l),
(433,78,l),
(525,78,l),
(525,631,l),
(423,631,l),
(423,88,l),
(161,88,l),
(161,631,l),
(60,631,l),
(60,78,l),
(151,78,l),
(151,-12,l)
);
}
);
width = 586;
}
);
unicode = 85;
},
{
color = (153,255,154,255);
glyphname = Uacute;
kernLeft = _Ldot;
kernRight = _Uring;
lastChange = "2023-09-07 12:48:38 +0000";
layers = (
{
anchors = (
{
name = bottom;
pos = (298,-11);
}
);
background = {
anchors = (
{
name = bottom;
pos = (298,-11);
},
{
name = top;
pos = (298,638);
}
);
shapes = (
{
closed = 1;
nodes = (
(61,74,l),
(149,74,l),
(149,-11,l),
(453,-11,l),
(453,74,l),
(542,74,l),
(542,638,l),
(414,638,l),
(414,125,l),
(188,125,l),
(188,638,l),
(61,638,l)
);
},
{
closed = 1;
nodes = (
(338,723,l),
(338,766,l),
(382,766,l),
(382,860,l),
(300,860,l),
(300,816,l),
(255,816,l),
(255,774,l),
(211,774,l),
(211,681,l),
(294,681,l),
(294,723,l)
);
}
);
};
layerId = "FEF53B85-F0C1-4BB8-A611-3AA340A355BB";
shapes = (
{
ref = U;
},
{
pos = (150,233);
ref = acutecomb;
}
);
width = 603;
},
{
anchors = (
{
name = bottom;
pos = (290,-12);
}
);
background = {
anchors = (
{
name = bottom;
pos = (290,-12);
},
{
name = top;
pos = (290,631);
}
);
shapes = (
{
closed = 1;
nodes = (
(60,78,l),
(151,78,l),
(151,-12,l),
(433,-12,l),
(433,78,l),
(525,78,l),
(525,631,l),
(423,631,l),
(423,88,l),
(161,88,l),
(161,631,l),
(60,631,l)
);
},
{
closed = 1;
nodes = (
(303,748,l),
(303,794,l),
(348,794,l),
(348,849,l),
(293,849,l),
(293,803,l),
(247,803,l),
(247,758,l),
(202,758,l),
(202,704,l),
(257,704,l),
(257,748,l)
);
}
);
};
layerId = "6CDB3465-C44F-49AC-BF84-14420C40CC8C";
shapes = (
{
ref = U;
},
{
pos = (128,250);
ref = acutecomb;
}
);
width = 586;
}
);
unicode = 218;
},
{
color = (153,255,154,255);
glyphname = Ubreve;
kernLeft = _Ubreve;
kernRight = _Ubreve1;
lastChange = "2023-09-07 12:48:38 +0000";
layers = (
{
anchors = (
{
name = bottom;
pos = (298,-11);
}
);
background = {
anchors = (
{
name = bottom;
pos = (298,-11);
},
{
name = top;
pos = (298,638);
}
);
shapes = (
{
closed = 1;
nodes = (
(61,74,l),
(149,74,l),
(149,-11,l),
(453,-11,l),
(453,74,l),
(542,74,l),
(542,638,l),
(414,638,l),
(414,125,l),
(188,125,l),
(188,638,l),
(61,638,l)
);
},
{
closed = 1;
nodes = (
(165,681,l),
(165,818,l),
(247,818,l),
(247,775,l),
(349,775,l),
(349,818,l),
(430,818,l),
(430,681,l)
);
}
);
};
layerId = "FEF53B85-F0C1-4BB8-A611-3AA340A355BB";
shapes = (
{
ref = U;
},
{
pos = (151,233);
ref = brevecomb;
}
);
width = 603;
},
{
anchors = (
{
name = bottom;
pos = (290,-12);
}
);
background = {
anchors = (
{
name = bottom;
pos = (290,-12);
},
{
name = top;
pos = (290,631);
}
);
shapes = (
{
closed = 1;
nodes = (
(60,78,l),
(151,78,l),
(151,-12,l),
(433,-12,l),
(433,78,l),
(525,78,l),
(525,631,l),
(423,631,l),
(423,88,l),
(161,88,l),
(161,631,l),
(60,631,l)
);
},
{
closed = 1;
nodes = (
(166,704,l),
(166,805,l),
(221,805,l),
(221,759,l),
(355,759,l),
(355,805,l),
(409,805,l),
(409,704,l)
);
}
);
};
layerId = "6CDB3465-C44F-49AC-BF84-14420C40CC8C";
shapes = (
{
ref = U;
},
{
pos = (140,250);
ref = brevecomb;
}
);
width = 586;
}
);
unicode = 364;
},
{
color = (153,255,154,255);
glyphname = Ucircumflex;
kernLeft = _Ubreve;
kernRight = _Ubreve1;
lastChange = "2023-09-07 12:48:38 +0000";
layers = (
{
anchors = (
{
name = bottom;
pos = (298,-11);
}
);
background = {
anchors = (
{
name = bottom;
pos = (298,-11);
},
{
name = top;
pos = (298,638);
}
);
shapes = (
{
closed = 1;
nodes = (
(61,74,l),
(149,74,l),
(149,-11,l),
(453,-11,l),
(453,74,l),
(542,74,l),
(542,638,l),
(414,638,l),
(414,125,l),
(188,125,l),
(188,638,l),
(61,638,l)
);
},
{
closed = 1;
nodes = (
(213,672,l),
(295,672,l),
(295,715,l),
(301,715,l),
(301,672,l),
(384,672,l),
(384,765,l),
(340,765,l),
(340,809,l),
(257,809,l),
(257,765,l),
(213,765,l)
);
}
);
};
layerId = "FEF53B85-F0C1-4BB8-A611-3AA340A355BB";
shapes = (
{
ref = U;
},
{
pos = (153,233);
ref = circumflexcomb;
}
);
width = 603;
},
{
anchors = (
{
name = bottom;
pos = (290,-12);
}
);
background = {
anchors = (
{
name = bottom;
pos = (290,-12);
},
{
name = top;
pos = (290,631);
}
);
shapes = (
{
closed = 1;
nodes = (
(60,78,l),
(151,78,l),
(151,-12,l),
(433,-12,l),
(433,78,l),
(525,78,l),
(525,631,l),
(423,631,l),
(423,88,l),
(161,88,l),
(161,631,l),
(60,631,l)
);
},
{
closed = 1;
nodes = (
(217,694,l),
(272,694,l),
(272,740,l),
(308,740,l),
(308,694,l),
(363,694,l),
(363,749,l),
(318,749,l),
(318,795,l),
(262,795,l),
(262,749,l),
(217,749,l)
);
}
);
};
layerId = "6CDB3465-C44F-49AC-BF84-14420C40CC8C";
shapes = (
{
ref = U;
},
{
pos = (143,250);
ref = circumflexcomb;
}
);
width = 586;
}
);
unicode = 219;
},
{
color = (153,255,154,255);
glyphname = Udieresis;
lastChange = "2023-09-07 12:48:38 +0000";
layers = (
{
anchors = (
{
name = bottom;
pos = (298,-11);
}
);
background = {
anchors = (
{
name = bottom;
pos = (298,-11);
},
{
name = top;
pos = (298,638);
}
);
shapes = (
{
closed = 1;
nodes = (
(61,74,l),
(149,74,l),
(149,-11,l),
(453,-11,l),
(453,74,l),
(542,74,l),
(542,638,l),
(414,638,l),
(414,125,l),
(188,125,l),
(188,638,l),
(61,638,l)
);
},
{
closed = 1;
nodes = (
(135,675,l),
(135,812,l),
(263,812,l),
(263,675,l)
);
},
{
closed = 1;
nodes = (
(342,675,l),
(342,812,l),
(469,812,l),
(469,675,l)
);
}
);
};
layerId = "FEF53B85-F0C1-4BB8-A611-3AA340A355BB";
shapes = (
{
ref = U;
},
{
pos = (156,233);
ref = dieresiscomb;
}
);
width = 603;
},
{
anchors = (
{
name = bottom;
pos = (290,-12);
}
);
background = {
anchors = (
{
name = bottom;
pos = (290,-12);
},
{
name = top;
pos = (290,631);
}
);
shapes = (
{
closed = 1;
nodes = (
(60,78,l),
(151,78,l),
(151,-12,l),
(433,-12,l),
(433,78,l),
(525,78,l),
(525,631,l),
(423,631,l),
(423,88,l),
(161,88,l),
(161,631,l),
(60,631,l)
);
},
{
closed = 1;
nodes = (
(137,647,l),
(137,748,l),
(239,748,l),
(239,647,l)
);
},
{
closed = 1;
nodes = (
(350,647,l),
(350,748,l),
(451,748,l),
(451,647,l)
);
}
);
};
layerId = "6CDB3465-C44F-49AC-BF84-14420C40CC8C";
shapes = (
{
ref = U;
},
{
pos = (147,250);
ref = dieresiscomb;
}
);
width = 586;
}
);
unicode = 220;
},
{
color = (153,255,154,255);
glyphname = Ugrave;
kernLeft = _Ldot;
lastChange = "2023-09-07 12:38:57 +0000";
layers = (
{
anchors = (
{
name = bottom;
pos = (298,-11);
},
{
name = top;
pos = (255,860);
}
);
background = {
anchors = (
{
name = bottom;
pos = (298,-11);
},
{
name = top;
pos = (255,860);
}
);
shapes = (
{
closed = 1;
nodes = (
(61,74,l),
(149,74,l),
(149,-11,l),
(453,-11,l),
(453,74,l),
(542,74,l),
(542,638,l),
(414,638,l),
(414,125,l),
(188,125,l),
(188,638,l),
(61,638,l)
);
},
{
closed = 1;
nodes = (
(213,723,l),
(257,723,l),
(257,681,l),
(340,681,l),
(340,774,l),
(296,774,l),
(296,816,l),
(251,816,l),
(251,860,l),
(169,860,l),
(169,766,l),
(213,766,l)
);
}
);
};
layerId = "FEF53B85-F0C1-4BB8-A611-3AA340A355BB";
shapes = (
{
ref = U;
},
{
pos = (113,233);
ref = gravecomb;
}
);
width = 603;
},
{
anchors = (
{
name = bottom;
pos = (290,-12);
},
{
name = top;
pos = (245,866);
}
);
background = {
anchors = (
{
name = bottom;
pos = (290,-12);
},
{
name = top;
pos = (245,866);
}
);
shapes = (
{
closed = 1;
nodes = (
(60,78,l),
(151,78,l),
(151,-12,l),
(433,-12,l),
(433,78,l),
(525,78,l),
(525,631,l),
(423,631,l),
(423,88,l),
(161,88,l),
(161,631,l),
(60,631,l)
);
},
{
closed = 1;
nodes = (
(217,765,l),
(263,765,l),
(263,721,l),
(318,721,l),
(318,775,l),
(273,775,l),
(273,820,l),
(227,820,l),
(227,866,l),
(172,866,l),
(172,811,l),
(217,811,l)
);
}
);
};
layerId = "6CDB3465-C44F-49AC-BF84-14420C40CC8C";
shapes = (
{
ref = U;
},
{
pos = (115,250);
ref = gravecomb;
}
);
width = 586;
}
);
unicode = 217;
},
{
color = (153,255,154,255);
glyphname = Uhungarumlaut;
kernLeft = _Ubreve;
lastChange = "2023-09-07 12:48:38 +0000";
layers = (
{
anchors = (
{
name = bottom;
pos = (298,-11);
}
);
background = {
anchors = (
{
name = bottom;
pos = (298,-11);
},
{
name = top;
pos = (298,638);
}
);
shapes = (
{
closed = 1;
nodes = (
(61,74,l),
(149,74,l),
(149,-11,l),
(453,-11,l),
(453,74,l),
(542,74,l),
(542,638,l),
(414,638,l),
(414,125,l),
(188,125,l),
(188,638,l),
(61,638,l)
);
},
{
closed = 1;
nodes = (
(132,716,l),
(132,759,l),
(88,759,l),
(88,853,l),
(170,853,l),
(170,809,l),
(215,809,l),
(215,767,l),
(259,767,l),
(259,674,l),
(176,674,l),
(176,716,l)
);
},
{
closed = 1;
nodes = (
(318,716,l),
(318,759,l),
(274,759,l),
(274,853,l),
(356,853,l),
(356,809,l),
(401,809,l),
(401,767,l),
(445,767,l),
(445,674,l),
(362,674,l),
(362,716,l)
);
}
);
};
layerId = "FEF53B85-F0C1-4BB8-A611-3AA340A355BB";
shapes = (
{
ref = U;
},
{
pos = (121,233);
ref = hungarumlautcomb;
}
);
width = 603;
},
{
anchors = (
{
name = bottom;
pos = (290,-12);
}
);
background = {
anchors = (
{
name = bottom;
pos = (290,-12);
},
{
name = top;
pos = (290,631);
}
);
shapes = (
{
closed = 1;
nodes = (
(60,78,l),
(151,78,l),
(151,-12,l),
(433,-12,l),
(433,78,l),
(525,78,l),
(525,631,l),
(423,631,l),
(423,88,l),
(161,88,l),
(161,631,l),
(60,631,l)
);
},
{
closed = 1;
nodes = (
(199,749,l),
(199,795,l),
(154,795,l),
(154,850,l),
(209,850,l),
(209,804,l),
(255,804,l),
(255,759,l),
(300,759,l),
(300,705,l),
(245,705,l),
(245,749,l)
);
},
{
closed = 1;
nodes = (
(318,749,l),
(318,795,l),
(273,795,l),
(273,850,l),
(328,850,l),
(328,804,l),
(374,804,l),
(374,759,l),
(419,759,l),
(419,705,l),
(364,705,l),
(364,749,l)
);
}
);
};
layerId = "6CDB3465-C44F-49AC-BF84-14420C40CC8C";
shapes = (
{
ref = U;
},
{
pos = (139,250);
ref = hungarumlautcomb;
}
);
width = 586;
}
);
unicode = 368;
},
{
color = (153,255,154,255);
glyphname = Umacron;
kernLeft = _Utilde;
kernRight = _Utilde;
lastChange = "2023-09-07 12:48:38 +0000";
layers = (
{
anchors = (
{
name = bottom;
pos = (298,-11);
}
);
background = {
anchors = (
{
name = bottom;
pos = (298,-11);
},
{
name = top;
pos = (298,638);
}
);
shapes = (
{
closed = 1;
nodes = (
(61,74,l),
(149,74,l),
(149,-11,l),
(453,-11,l),
(453,74,l),
(542,74,l),
(542,638,l),
(414,638,l),
(414,125,l),
(188,125,l),
(188,638,l),
(61,638,l)
);
},
{
closed = 1;
nodes = (
(144,755,l),
(144,892,l),
(448,892,l),
(448,755,l)
);
}
);
};
layerId = "FEF53B85-F0C1-4BB8-A611-3AA340A355BB";
shapes = (
{
ref = U;
},
{
pos = (150,233);
ref = macroncomb;
}
);
width = 603;
},
{
anchors = (
{
name = bottom;
pos = (290,-12);
}
);
background = {
anchors = (
{
name = bottom;
pos = (290,-12);
},
{
name = top;
pos = (290,631);
}
);
shapes = (
{
closed = 1;
nodes = (
(60,78,l),
(151,78,l),
(151,-12,l),
(433,-12,l),
(433,78,l),
(525,78,l),
(525,631,l),
(423,631,l),
(423,88,l),
(161,88,l),
(161,631,l),
(60,631,l)
);
},
{
closed = 1;
nodes = (
(152,705,l),
(152,806,l),
(434,806,l),
(434,705,l)
);
}
);
};
layerId = "6CDB3465-C44F-49AC-BF84-14420C40CC8C";
shapes = (
{
ref = U;
},
{
pos = (146,250);
ref = macroncomb;
}
);
width = 586;
}
);
unicode = 362;
},
{
color = (153,255,154,255);
glyphname = Uogonek;
kernLeft = _L;
kernRight = _U;
lastChange = "2023-09-07 12:53:52 +0000";
layers = (
{
anchors = (
{
name = top;
pos = (298,638);
}
);
background = {
anchors = (
{
name = bottom;
pos = (298,-11);
},
{
name = top;
pos = (298,638);
}
);
shapes = (
{
closed = 1;
nodes = (
(61,74,l),
(149,74,l),
(149,-11,l),
(453,-11,l),
(453,74,l),
(542,74,l),
(542,638,l),
(414,638,l),
(414,125,l),
(188,125,l),
(188,638,l),
(61,638,l)
);
},
{
closed = 1;
nodes = (
(185,-157,l),
(229,-157,l),
(229,-200,l),
(400,-200,l),
(400,-157,l),
(444,-157,l),
(444,-64,l),
(362,-64,l),
(362,-106,l),
(312,-106,l),
(312,-89,l),
(312,-89,l),
(312,-72,l),
(356,-72,l),
(356,28,l),
(229,28,l),
(229,-43,l),
(229,-43,l),
(229,-64,l),
(185,-64,l)
);
}
);
};
layerId = "FEF53B85-F0C1-4BB8-A611-3AA340A355BB";
shapes = (
{
ref = U;
},
{
pos = (410,10);
ref = ogonekcomb;
}
);
width = 603;
},
{
anchors = (
{
name = top;
pos = (290,631);
}
);
background = {
anchors = (
{
name = bottom;
pos = (290,-12);
},
{
name = top;
pos = (290,631);
}
);
shapes = (
{
closed = 1;
nodes = (
(60,78,l),
(151,78,l),
(151,-12,l),
(433,-12,l),
(433,78,l),
(525,78,l),
(525,631,l),
(423,631,l),
(423,88,l),
(161,88,l),
(161,631,l),
(60,631,l)
);
},
{
closed = 1;
nodes = (
(173,-167,l),
(219,-167,l),
(219,-212,l),
(365,-212,l),
(365,-167,l),
(410,-167,l),
(410,-112,l),
(355,-112,l),
(355,-157,l),
(229,-157,l),
(229,-122,l),
(274,-122,l),
(274,-77,l),
(319,-77,l),
(319,26,l),
(264,26,l),
(264,-67,l),
(219,-67,l),
(219,-112,l),
(173,-112,l)
);
}
);
};
layerId = "6CDB3465-C44F-49AC-BF84-14420C40CC8C";
shapes = (
{
ref = U;
},
{
pos = (379,10);
ref = ogonekcomb;
}
);
width = 586;
}
);
unicode = 370;
},
{
color = (153,255,154,255);
glyphname = Uring;
kernLeft = _Ldot;
kernRight = _Uring;
lastChange = "2023-09-07 12:48:38 +0000";
layers = (
{
anchors = (
{
name = bottom;
pos = (298,-11);
}
);
background = {
anchors = (
{
name = bottom;
pos = (298,-11);
},
{
name = top;
pos = (298,638);
}
);
shapes = (
{
closed = 1;
nodes = (
(61,74,l),
(149,74,l),
(149,-11,l),
(453,-11,l),
(453,74,l),
(542,74,l),
(542,638,l),
(414,638,l),
(414,125,l),
(188,125,l),
(188,638,l),
(61,638,l)
);
},
{
closed = 1;
nodes = (
(235,682,l),
(235,819,l),
(360,819,l),
(360,682,l)
);
},
{
closed = 1;
nodes = (
(268,715,l),
(327,715,l),
(327,786,l),
(268,786,l)
);
}
);
};
layerId = "FEF53B85-F0C1-4BB8-A611-3AA340A355BB";
shapes = (
{
ref = U;
},
{
pos = (151,233);
ref = ringcomb;
}
);
width = 603;
},
{
anchors = (
{
name = bottom;
pos = (290,-12);
}
);
background = {
anchors = (
{
name = bottom;
pos = (290,-12);
},
{
name = top;
pos = (290,631);
}
);
shapes = (
{
closed = 1;
nodes = (
(60,78,l),
(151,78,l),
(151,-12,l),
(433,-12,l),
(433,78,l),
(525,78,l),
(525,631,l),
(423,631,l),
(423,88,l),
(161,88,l),
(161,631,l),
(60,631,l)
);
},
{
closed = 1;
nodes = (
(238,705,l),
(238,806,l),
(339,806,l),
(339,705,l)
);
},
{
closed = 1;
nodes = (
(271,738,l),
(306,738,l),
(306,773,l),
(271,773,l)
);
}
);
};
layerId = "6CDB3465-C44F-49AC-BF84-14420C40CC8C";
shapes = (
{
ref = U;
},
{
pos = (141,250);
ref = ringcomb;
}
);
width = 586;
}
);
unicode = 366;
},
